<svg width="20" height="14" viewBox="0 0 20 14" fill="none" xmlns="http://www.w3.org/2000/svg">
<path d="M18.9743 0.333496H1.02566C0.461523 0.333496 0 0.795019 0 1.35912V12.6412C0 13.2053 0.461523 13.6669 1.02566 13.6669H18.9744C19.5384 13.6669 20 13.2053 20 12.6412V1.35912C20 0.795019 19.5385 0.333496 18.9743 0.333496ZM18.5895 1.10268L10.59 7.10275C10.4462 7.21221 10.2254 7.28068 9.99996 7.27967C9.77457 7.28068 9.55383 7.21221 9.40996 7.10275L1.41051 1.10268H18.5895ZM14.3164 7.49865L18.6754 12.8833C18.6798 12.8887 18.6851 12.8928 18.6898 12.8977H1.31023C1.31484 12.8926 1.32023 12.8887 1.32461 12.8833L5.68359 7.49865C5.81715 7.33353 5.79184 7.09146 5.62641 6.9576C5.46129 6.82404 5.21922 6.84936 5.08563 7.01451L0.769219 12.3466V1.58346L8.94867 7.71807C9.25613 7.94705 9.6302 8.04783 9.99992 8.04885C10.3691 8.04807 10.7435 7.94728 11.0512 7.71807L19.2306 1.58346V12.3465L14.9143 7.01451C14.7807 6.84939 14.5384 6.824 14.3736 6.9576C14.2082 7.09115 14.1828 7.33353 14.3164 7.49865Z" fill="white"/>
</svg>
