<svg width="261" height="67" viewBox="0 0 261 67" fill="none" xmlns="http://www.w3.org/2000/svg">
<path d="M246.104 56.9238H248.905V58.605H246.104V56.9238Z" fill="#404151"/>
<path d="M251.146 56.9238H253.947V58.605H251.146V56.9238Z" fill="#404151"/>
<path d="M256.188 56.9238H258.989V58.605H256.188V56.9238Z" fill="#404151"/>
<path d="M230.978 56.9238H233.779V58.605H230.978V56.9238Z" fill="#404151"/>
<path d="M236.02 56.9238H238.821V58.605H236.02V56.9238Z" fill="#404151"/>
<path d="M241.062 56.9238H243.863V58.605H241.062V56.9238Z" fill="#404151"/>
<path d="M215.851 56.9238H218.652V58.605H215.851V56.9238Z" fill="#404151"/>
<path d="M220.893 56.9238H223.694V58.605H220.893V56.9238Z" fill="#404151"/>
<path d="M225.935 56.9238H228.736V58.605H225.935V56.9238Z" fill="#404151"/>
<path d="M200.724 56.9238H203.525V58.605H200.724V56.9238Z" fill="#404151"/>
<path d="M205.767 56.9238H208.568V58.605H205.767V56.9238Z" fill="#404151"/>
<path d="M210.697 56.9238H213.498V58.605H210.697V56.9238Z" fill="#404151"/>
<path d="M185.598 56.9238H188.399V58.605H185.598V56.9238Z" fill="#404151"/>
<path d="M190.64 56.9238H193.441V58.605H190.64V56.9238Z" fill="#404151"/>
<path d="M195.57 56.9238H198.371V58.605H195.57V56.9238Z" fill="#404151"/>
<path d="M170.471 56.9238H173.272V58.605H170.471V56.9238Z" fill="#404151"/>
<path d="M175.401 56.9238H178.202V58.605H175.401V56.9238Z" fill="#404151"/>
<path d="M180.443 56.9238H183.244V58.605H180.443V56.9238Z" fill="#404151"/>
<path d="M155.232 56.9238H158.033V58.605H155.232V56.9238Z" fill="#404151"/>
<path d="M160.274 56.9238H163.075V58.605H160.274V56.9238Z" fill="#404151"/>
<path d="M165.316 56.9238H168.118V58.605H165.316V56.9238Z" fill="#404151"/>
<path d="M140.106 56.9238H142.907V58.605H140.106V56.9238Z" fill="#404151"/>
<path d="M145.148 56.9238H147.949V58.605H145.148V56.9238Z" fill="#404151"/>
<path d="M150.19 56.9238H152.991V58.605H150.19V56.9238Z" fill="#404151"/>
<path d="M124.979 56.9238H127.78V58.605H124.979V56.9238Z" fill="#404151"/>
<path d="M130.021 56.9238H132.822V58.605H130.021V56.9238Z" fill="#404151"/>
<path d="M135.064 56.9238H137.865V58.605H135.064V56.9238Z" fill="#404151"/>
<path d="M114.335 34.1707H116.016V37.197H114.335V34.1707Z" fill="#404151"/>
<path d="M114.335 39.5508H116.016V42.5767H114.335V39.5508Z" fill="#404151"/>
<path d="M114.335 44.9309H116.016V47.957H114.335V44.9309Z" fill="#404151"/>
<path d="M114.335 18.1433H116.016V21.1697H114.335V18.1433Z" fill="#404151"/>
<path d="M114.335 23.4111H116.016V26.437H114.335V23.4111Z" fill="#404151"/>
<path d="M114.335 28.791H116.016V31.8174H114.335V28.791Z" fill="#404151"/>
<path d="M93.0455 7.9436H95.8467V9.62524H93.0455V7.9436Z" fill="#404151"/>
<path d="M98.0879 7.9436H100.889V9.62524H98.0879V7.9436Z" fill="#404151"/>
<path d="M103.13 7.9436H105.931V9.62524H103.13V7.9436Z" fill="#404151"/>
<path d="M77.8072 7.9436H80.6084V9.62524H77.8072V7.9436Z" fill="#404151"/>
<path d="M82.8496 7.9436H85.6509V9.62524H82.8496V7.9436Z" fill="#404151"/>
<path d="M87.8915 7.9436H90.6929V9.62524H87.8915V7.9436Z" fill="#404151"/>
<path d="M62.6803 7.9436H65.4814V9.62524H62.6803V7.9436Z" fill="#404151"/>
<path d="M67.7227 7.9436H70.5239V9.62524H67.7227V7.9436Z" fill="#404151"/>
<path d="M72.7648 7.9436H75.5659V9.62524H72.7648V7.9436Z" fill="#404151"/>
<path d="M47.4419 7.9436H50.2432V9.62524H47.4419V7.9436Z" fill="#404151"/>
<path d="M52.4839 7.9436H55.2852V9.62524H52.4839V7.9436Z" fill="#404151"/>
<path d="M57.5261 7.9436H60.3271V9.62524H57.5261V7.9436Z" fill="#404151"/>
<path d="M32.2032 7.9436H35.0044V9.62524H32.2032V7.9436Z" fill="#404151"/>
<path d="M37.3577 7.9436H40.1587V9.62524H37.3577V7.9436Z" fill="#404151"/>
<path d="M42.3995 7.9436H45.2007V9.62524H42.3995V7.9436Z" fill="#404151"/>
<path d="M17.0767 7.9436H19.8779V9.62524H17.0767V7.9436Z" fill="#404151"/>
<path d="M22.1186 7.9436H24.9199V9.62524H22.1186V7.9436Z" fill="#404151"/>
<path d="M27.1613 7.9436H29.9624V9.62524H27.1613V7.9436Z" fill="#404151"/>
<path d="M1.83801 7.9436H4.63916V9.62524H1.83801V7.9436Z" fill="#404151"/>
<path d="M6.88049 7.9436H9.68164V9.62524H6.88049V7.9436Z" fill="#404151"/>
<path d="M11.9224 7.9436H14.7236V9.62524H11.9224V7.9436Z" fill="#404151"/>
<path d="M119.937 56.5872H122.738V58.2686H119.937V56.5872Z" fill="#404151"/>
<path fill-rule="evenodd" clip-rule="evenodd" d="M114.895 58.269H117.696V56.5874H116.576V55.4663H114.895V58.269Z" fill="#404151"/>
<path d="M114.895 50.4229H116.576V53.2249H114.895V50.4229Z" fill="#404151"/>
<path d="M114.559 12.9875H116.24V15.7896H114.559V12.9875Z" fill="#404151"/>
<path fill-rule="evenodd" clip-rule="evenodd" d="M116.24 7.94385V10.7458H114.447V9.62505H113.439V7.94385H116.24Z" fill="#404151"/>
<path d="M108.397 7.9436H111.198V9.62524H108.397V7.9436Z" fill="#404151"/>
</svg>
