<?xml version="1.0" encoding="utf-8"?>
<!-- Generator: Adobe Illustrator 22.0.0, SVG Export Plug-In . SVG Version: 6.00 Build 0)  -->
<svg version="1.1" id="Layer_1" xmlns="http://www.w3.org/2000/svg" xmlns:xlink="http://www.w3.org/1999/xlink" x="0px" y="0px"
	 viewBox="0 0 430 430" style="enable-background:new 0 0 430 430;" xml:space="preserve">
<style type="text/css">
	.st0{fill:none;stroke:#FFFFFF;stroke-width:3;stroke-miterlimit:10;}
	.st1{fill:none;stroke:#434141;stroke-width:0.675;stroke-linecap:round;stroke-linejoin:round;stroke-miterlimit:10;}
	.st2{fill:#212E38;}
	.st3{fill:#E9B089;}
	.st4{fill:none;stroke:#000000;stroke-width:0.5672;stroke-linecap:round;stroke-linejoin:round;stroke-miterlimit:10;}
	.st5{fill:#39505E;}
	.st6{clip-path:url(#XMLID_2_);fill:#E9B089;}
	.st7{fill:#C27F22;}
	.st8{fill:#FFFFFF;}
	.st9{fill:#D59934;}
	.st10{fill:#D7896D;}
	.st11{fill:#744028;}
	.st12{fill:none;stroke:#000000;stroke-width:0.4357;stroke-linecap:round;stroke-linejoin:round;stroke-miterlimit:10;}
	.st13{clip-path:url(#XMLID_3_);}
	.st14{clip-path:url(#XMLID_4_);}
	.st15{fill:#294286;}
	.st16{fill:none;stroke:#000000;stroke-width:0.4574;stroke-linecap:round;stroke-linejoin:round;stroke-miterlimit:10;}
	.st17{fill:#C67B5B;}
	.st18{fill:#CA98BE;}
	.st19{fill:none;stroke:#000000;stroke-width:0.4443;stroke-linecap:round;stroke-linejoin:round;stroke-miterlimit:10;}
	.st20{fill:#A4563A;}
	.st21{clip-path:url(#XMLID_5_);}
	.st22{clip-path:url(#XMLID_6_);}
	.st23{fill:#BE5640;}
	.st24{fill:none;stroke:#0B66BF;stroke-width:3;stroke-miterlimit:10;}
</style>
<path class="st0" d="M409.3,209.1c0,84.3-54.5,156-130.2,181.8c-9.5,3.2-19.3,5.7-29.4,7.5c-5,0.8-10.1,1.5-15.3,2
	c-4.3,0.4-8.7,0.6-13.1,0.7c-1.3,0-2.5,0-3.8,0c-2.8,0-5.6-0.1-8.4-0.2c-1.8-0.1-3.6-0.2-5.3-0.3c-13.7-1-27-3.4-39.8-7.1
	c-9.2-2.7-18.1-6-26.6-9.9c-10.6-4.9-20.6-10.7-30-17.3c-10.6-7.5-20.4-15.9-29.3-25.3c-32.5-34.4-52.3-80.8-52.3-131.8
	c0-106.2,86-191.9,191.8-191.9C323.4,17.3,409.3,103,409.3,209.1z"/>
<g>
	<g>
		<g>
			<path d="M284.6,284.2l-5.5,105.7c-9.5,3.2-19.3,5.7-29.4,7.5l5.6-118.2l-20.9,120.1c-4.3,0.4-8.7,0.6-13.1,0.7
				c-1.3,0-2.5,0-3.8,0c-2.8,0-5.6-0.1-8.4-0.2c-1.8-0.1-3.6-0.2-5.3-0.3L225,266.1l2-12.3l0.6-4l0.6-3.8l0.8-5l0.9-5.5l1.4-0.2
				l9.2-1.2l9.6-1.2l1.9-0.2l25.6,2.8c0.1,0,1.1,0,2.4,2c0.4,0.7,0.9,1.5,1.4,2.7c1.4,3.6,2.8,9.8,3.3,20.9c0,1,0.1,2,0.1,3
				C285.1,270.1,285,278.3,284.6,284.2z"/>
			<line class="st1" x1="255.3" y1="279.1" x2="267.7" y2="276.2"/>
		</g>
	</g>
	<g>
		<g>
			<g>
				<path class="st2" d="M238,152.4c0,0,10.9,11,23.4,15.8c12.6,4.8,36.8,20.1,55.2,21.5l-6.1-25.7l-39.9-21.8L238,152.4z"/>
			</g>
			<g>
				<g>
					<g>
						<g>
							<path class="st3" d="M341.7,125.2l0.9-6.7c0.2-1.3,1.1-2.5,2.4-2.8l8-2.4c1.2-0.3,2.4,0.2,3,1.2l0,0c0.7,1.3,0.3,2.9-1,3.6
								l-3.8,2.1c0,0,5.3,4.2,0.2,9.9L341.7,125.2z"/>
							<path class="st3" d="M345,115.6l10.4-14.2c0.7-1,2.1-1.1,3-0.3l0,0c0.7,0.6,0.9,1.6,0.4,2.4l-6.5,12.7L345,115.6z"/>
							<path class="st3" d="M353.4,112.1l4-1.4c0.8-0.2,1.7,0,2.4,0.5l0.9,0.7c1,0.8,1.3,2.3,0.7,3.5l-5.1,9.1l-6.6-4.8L353.4,112.1
								z"/>
							<path class="st3" d="M360.7,113.4h1.5c0.7,0,1.4,0.3,1.9,0.8l1.2,1.2c0.5,0.5,0.8,1.2,0.8,1.9l0,0c0,0.6-0.2,1.2-0.5,1.6
								l-6.5,8.7l-5.7-4.2L360.7,113.4z"/>
							<path class="st3" d="M363.1,116.9h1.5c0.7,0,1.4,0.3,1.9,0.8l1.2,1.2c0.5,0.5,0.8,1.2,0.8,1.9l0,0c0,0.6-0.2,1.2-0.5,1.6
								l-2.3,3.1c-2.3,3.1-6.8,3.8-9.9,1.4l0,0L363.1,116.9z"/>
							<path class="st3" d="M362.5,127.3l-3.1,3.4c-2.9,3.2-7.9,3.5-11.1,0.6l-6.7-6.1l5.2-6.6h6.5l5.7,3.9L362.5,127.3z"/>
						</g>
						<path class="st4" d="M345.5,115.5l8.7-2.9c1.2-0.4,2.6,0.3,2.9,1.6l0,0c0.3,0.9,0,2-0.8,2.6l-5.2,3.3c0,0,4.7,2.3,0.9,7.7"/>
					</g>
					<polygon class="st3" points="341.7,125.2 330.5,140.5 342.9,149.8 354.4,130.9 					"/>
				</g>
				<g>
					<path class="st2" d="M305.5,168l29-38l18.1,14l-25,39.7c-5.1,6.5-12.4,8.1-18.3,3.4h0C304,182.8,298.8,173.1,305.5,168z"/>
				</g>
			</g>
		</g>
		<g>
			<path class="st2" d="M224.4,153.8l23-16.8l11.7,0.1c0,0,11.7,1.9,20.2,14.1c8.5,12.2,6.8,110.3,6.8,110.3s-8.9-0.8-9-14.9
				c0,0-3,19.2-19.2,21.1c-16.2,2-42.5-3.1-42.5-3.1l18-47.2l-14.5-40.8C216.3,168.5,218.5,159.7,224.4,153.8z"/>
			<g>
				<path class="st5" d="M270.6,142.3l6.9,12.2l-3.5,0l3.9,5c0,0,2.4,15.1-3.5,33.4L257.9,140l1.3-2.9c0,0,4.5,0.9,8,3L270.6,142.3z
					"/>
				<g>
					<defs>
						<path id="XMLID_24_" d="M239.2,142.9c0,0,27,21.6,35.1,49.8c0,0,3-34.7-15.2-55.7l-11.7-0.1L239.2,142.9z"/>
					</defs>
					<use xlink:href="#XMLID_24_"  style="overflow:visible;fill:#FFFFFF;"/>
					<clipPath id="XMLID_2_">
						<use xlink:href="#XMLID_24_"  style="overflow:visible;"/>
					</clipPath>
					<path class="st6" d="M240.4,148c0,0,26.9,11.6,25.8-7l-8.2-15.8c0,0-18.4,5.7-19.5,6l-4.8,6.5l-1.4,4.4L240.4,148z"/>
				</g>
				<path class="st5" d="M239.2,142.9l-5.7,4.2l7.5,13l7.5,0.1l-5.2,5.2c0,0,19.9,15.6,31,27.4C274.3,192.8,266.9,164.2,239.2,142.9
					z"/>
				<path class="st4" d="M284.5,179.1c0,0-0.4-8.9-2.3-15.9"/>
			</g>
		</g>
		<g>
			<g>
				<g>
					<path class="st2" d="M232.9,147.6c0,0-11.5,3.5-17.7,15.4s-25.1,40.2-28.6,58.3l26.2-3.1l25.4-37L232.9,147.6z"/>
				</g>
				<line class="st4" x1="226.6" y1="198.1" x2="238.2" y2="181.2"/>
			</g>
			<g>
				<g>
					<polygon class="st7" points="294.6,208.5 252,191.4 247.7,201.6 289.3,217.9 					"/>
					<polygon class="st8" points="250.9,198.3 253.1,193.5 293,209.9 290.6,214.7 					"/>
					<polygon class="st9" points="290.9,211.7 266.3,270.5 224.3,252.8 248,194.2 					"/>
					<polygon class="st7" points="290.9,211.7 294.6,208.5 270.3,267.1 266.3,270.5 					"/>
					<g>
						<polygon class="st8" points="248.3,217.2 275.2,228.2 278.2,221.2 251.3,210.2 						"/>
					</g>
				</g>
				<g>
					<g>
						<polygon class="st3" points="228.8,227.8 258.5,243.9 255.2,255.4 224,244.6 						"/>
						<path class="st3" d="M258.5,243.9c0,0,21-3.8,20.2,3.8c-0.8,7.6-4.6,25.4-23.5,7.8L258.5,243.9z"/>
						<path class="st3" d="M257.8,244.7l2.8-3.1c1.6-1.8,3.8-3,6.1-3.5l4.3-1c1-0.2,2.1,0.3,2.6,1.2l0,0c0.5,1,0.2,2.3-0.8,3
							l-6.3,4.1L257.8,244.7z"/>
					</g>
					<g>
						<g>
							<path class="st2" d="M207.1,210l47.3,25.2l-9.2,22.1l-49.6-20.9c-7.7-3-11.3-9.6-8.5-16.5v0
								C189.6,213.7,200.3,205.1,207.1,210z"/>
						</g>
						<line class="st4" x1="215.4" y1="214.4" x2="207.1" y2="210"/>
					</g>
				</g>
			</g>
		</g>
	</g>
	<g>
		<path class="st10" d="M264.4,113.5c0.2-2,0.7-3.9,1.7-5.8c1.3-2.5,3.3-4.9,6.3-3.5c5.1,2.4,0.1,10.7-5.2,11.4
			C265.7,115.8,264.3,114.8,264.4,113.5L264.4,113.5z"/>
		<path class="st11" d="M273.7,93.4c-1,10.8-10.3,23.1-22,23.1c-11.7,0-19.3-9.1-22.1-19.7c-3.1-11.8,10.3-19.9,22-19.7
			C259,77.2,274.9,81.6,273.7,93.4z"/>
		<polygon class="st3" points="245.8,112.6 242.8,144.7 259.4,144.7 258.4,115.9 		"/>
		<polygon class="st10" points="259,132.7 248.2,122.2 258.4,117.9 		"/>
		<path class="st3" d="M248.3,81.6c3.6-1,7.4-1.2,11.1-0.5c4.9,1,11.3,4.1,12.1,13.1c1.4,15-0.5,27.2-7.9,30.6
			c-5.7,2.6-9.9,1.6-16.4-2.2c-2.4-1.4-4.8-7.5-5.5-10.3l-2.8-8C238.8,104.3,231.1,86.3,248.3,81.6z"/>
		<g>
			<g>
				<polyline class="st12" points="262.4,103.9 264.8,109.1 263.1,110.5 				"/>
			</g>
			<path class="st11" d="M265,92.8c0,0-0.6,2.2,1.7,2.6c1.8,0.3,2.9,0.5,3.9,1c0.6,0.3,1.2,0,1.5-0.6l0,0c0.3-0.5,0.3-1.1,0-1.6
				c-0.5-1-1.7-2.5-3.8-2.9C265.5,90.8,265,92.8,265,92.8z"/>
			<path class="st11" d="M258,92.6c0,0,0.8,2.2-2.5,2.6c-2.5,0.3-5.4,1.3-6.8,1.8c-0.8,0.3-1.7,0-2.1-0.6l0,0
				c-0.4-0.5-0.3-1.1,0.1-1.6c0.8-1,3.9-3.3,6.9-3.7C257.4,90.6,258,92.6,258,92.6z"/>
			<g>
				<g>
					<defs>
						<path id="XMLID_21_" d="M258.7,103.1c0,0-1.5-5.9-9.4-1.6C249.3,101.5,252.5,107.7,258.7,103.1z"/>
					</defs>
					<use xlink:href="#XMLID_21_"  style="overflow:visible;fill:#FFFFFF;"/>
					<clipPath id="XMLID_3_">
						<use xlink:href="#XMLID_21_"  style="overflow:visible;"/>
					</clipPath>
					<path class="st13" d="M257.1,102.3c0.2,1.5-0.9,2.9-2.4,3.1c-1.5,0.2-2.8-0.9-3-2.5c-0.2-1.5,0.9-2.9,2.4-3.1
						C255.6,99.7,257,100.8,257.1,102.3z"/>
				</g>
				<g>
					<path d="M249.2,101.4c0.7-0.6,1.6-1,2.5-1.3c0.9-0.3,1.8-0.5,2.8-0.4c0.9,0,1.9,0.2,2.7,0.8c0.8,0.5,1.5,1.3,1.7,2.4
						c0,0.2-0.1,0.4-0.3,0.4c-0.2,0-0.4-0.1-0.4-0.3c0,0,0,0,0,0l0,0c-0.1-0.7-0.7-1.5-1.3-2c-0.7-0.5-1.6-0.7-2.4-0.8
						c-0.9,0-1.8,0.1-2.6,0.3c-0.9,0.2-1.7,0.6-2.4,1.1c-0.1,0.1-0.2,0-0.2,0C249.1,101.6,249.1,101.5,249.2,101.4z"/>
				</g>
			</g>
			<g>
				<g>
					<defs>
						<path id="XMLID_20_" d="M264.6,103.1c0,0,2.3-5.9,6.6-1.8C271.2,101.2,269.5,107,264.6,103.1z"/>
					</defs>
					<use xlink:href="#XMLID_20_"  style="overflow:visible;fill:#FFFFFF;"/>
					<clipPath id="XMLID_4_">
						<use xlink:href="#XMLID_20_"  style="overflow:visible;"/>
					</clipPath>
					<path class="st14" d="M266.1,101.9c-0.2,1.4,0.5,2.7,1.6,2.9c1.1,0.2,2.2-0.8,2.4-2.2c0.2-1.4-0.5-2.7-1.6-2.9
						S266.3,100.5,266.1,101.9z"/>
				</g>
				<g>
					<path d="M271.1,101.3c-0.3-0.5-0.8-0.8-1.3-1.1c-0.5-0.2-1.1-0.3-1.6-0.1l0,0c-0.7,0.1-1.4,0.5-2,1c-0.5,0.5-1,1.2-1.2,1.8l0,0
						c-0.1,0.2-0.2,0.2-0.4,0.2c-0.2-0.1-0.2-0.2-0.2-0.4c0,0,0,0,0,0c0.2-0.4,0.4-0.7,0.6-1.1c0.2-0.3,0.5-0.6,0.8-0.9
						c0.3-0.3,0.7-0.5,1-0.7c0.4-0.2,0.8-0.3,1.2-0.3l0,0c0.6-0.1,1.3,0,1.9,0.2c0.6,0.3,1,0.7,1.4,1.2c0,0.1,0,0.2,0,0.2
						C271.2,101.4,271.1,101.4,271.1,101.3z"/>
				</g>
			</g>
			<path class="st12" d="M256.8,113.2c0,0,5.4,2.9,9.2-0.6"/>
		</g>
		<path class="st11" d="M241.8,108.7c0,0,7.2-22.9-3.5-23.5l-5.8,11.4l3.1,9.5L241.8,108.7z"/>
		<g>
			<path class="st3" d="M243.7,113.5c-0.4-2.1-1.2-4-2.5-5.8c-1.7-2.5-4-4.7-7-2.9c-5,3.1,1.2,11.2,6.7,11.3
				C242.6,116.1,244,114.8,243.7,113.5L243.7,113.5z"/>
			<path class="st12" d="M235.6,108.9c3.9-1.3,6,3.1,6,3.1"/>
		</g>
		<path class="st11" d="M239.9,85.7c0,0,26.6,6.9,35.7-5.7c0,0-16.8-9.4-31.2-1.7L239.9,85.7z"/>
		<path class="st11" d="M240,81.6c0,0,5.8-9.1,16.4-9.2c0,0-2.9,7.3-9.2,9.3C240.9,83.7,240,81.6,240,81.6z"/>
		<path class="st11" d="M236.6,85.1c0,0,0.3-6,5.4-8.9c0,0,0.6,4.3-1.9,7S236.6,85.1,236.6,85.1z"/>
	</g>
</g>
<g>
	<g>
		<g>
			<g>
				<path class="st15" d="M164,392.4c-9.2-2.7-18.1-6-26.6-9.9l-24.6-118.7l0-0.1l-2.8,0.2l-2.7,101.3
					c-10.6-7.5-20.4-15.9-29.3-25.3c-1.3-29.4-2.5-56.8-2.6-67.5c-0.3-18.1,7.9-37.8,13.5-49.1c2.9-5.8,5.1-9.4,5.1-9.4l15.5,1.5
					l4.7,0.5l12.2,1.2c0.3,0.3,0.5,0.7,0.8,1.1c1.1,1.5,2.1,3.2,3,5c1.1,2.2,2.2,4.5,3.2,7c2.2,5.4,4.1,11,5.8,15.1
					c3.8,9.2,6.5,18.9,8,28.8L164,392.4z"/>
			</g>
			<line class="st16" x1="110.1" y1="264" x2="122.9" y2="263.2"/>
		</g>
	</g>
	<g>
		<g>
			<g>
				<path class="st17" d="M62,182.5l-16.9,25.3c-5.9,9.3,8.2,18.8,14.6,9.9c0,0,28.8-38.4,28.8-38.4L62,182.5z"/>
				<path class="st18" d="M86.6,153c-10.7-3.5-27,24-33.4,34L79,204C83.8,196.1,115.6,164.4,86.6,153z"/>
			</g>
			<path class="st18" d="M129.1,152.7c0,0,18.5,1.2,19.2,28.4l-12.7,2.9L129.1,152.7z"/>
			<g>
				<path class="st18" d="M83.9,152.6c20.7-3.8,32.1-3.8,47.6,0.6c17.6,5,2.7,52.4-1.4,70.3H89l-13.8-53.5
					C77,165.8,77.5,153,83.9,152.6z"/>
				<line class="st19" x1="83.1" y1="201" x2="78.2" y2="180.2"/>
				<line class="st19" x1="136.1" y1="193.9" x2="139.1" y2="173.1"/>
				<g>
					<path class="st8" d="M114.3,158.5l-12.8-7.9l0.7-4.4H100c-0.9,0-1.7,0.3-2.3,1l-3.9,3.8l8.9,13.3c0.9,1.4,2.9,1.7,4.1,0.6
						L114.3,158.5z"/>
					<path class="st8" d="M118.2,146.2h1.6c1.1,0,2.1,0.6,2.8,1.5l2.7,4l-1.2,11.5c-0.1,1.2-1.5,1.8-2.4,1l-7.3-5.6l4.1-6.9
						L118.2,146.2z"/>
					<path class="st8" d="M115.6,164c0,0.7-0.6,1.3-1.3,1.3c-0.7,0-1.3-0.6-1.3-1.3c0-0.7,0.6-1.3,1.3-1.3
						C115,162.7,115.6,163.3,115.6,164z"/>
					<path class="st8" d="M115.9,169.1c0,0.7-0.6,1.3-1.3,1.3c-0.7,0-1.3-0.6-1.3-1.3c0-0.7,0.6-1.3,1.3-1.3
						C115.3,167.8,115.9,168.4,115.9,169.1z"/>
				</g>
			</g>
		</g>
		<g>
			<g>
				<path class="st17" d="M103.1,193.4c0,0,7.2-12.7,26-5.2l-7.3,15.5l-16.4-0.6L103.1,193.4z"/>
				<g>
					<g>
						<polygon class="st17" points="103.1,193.4 52.6,202 55.5,220.9 105.3,203.1 						"/>
					</g>
					<line class="st19" x1="70.8" y1="198.9" x2="58.4" y2="201"/>
				</g>
			</g>
			<g>
				<g>
					<path class="st8" d="M106.7,233.8l-3.4-3.8l20.8-48.9c0,0,37.3-6.3,52.6-1.1L106.7,233.8z"/>
					<path d="M176.7,180l-8.1,1.1l-24.2,47.4c0,0,7,0.2,10.1-5.9L176.7,180z"/>
					<polygon class="st2" points="168.6,181.1 127,184.8 106.7,233.8 144.4,228.5 					"/>
					<polygon class="st8" points="154.6,192.6 131.4,194.7 129.1,200.2 151.7,198.1 					"/>
					<polygon class="st8" points="176.7,180 171.8,157.5 167,157.5 157.7,178.8 					"/>
				</g>
				<path class="st17" d="M159.1,213.8c0,0,5.5,1.4,10.2-5.8c4.7-7.1,0.1-10.9,0.1-10.9l-11.7-8.3c-0.5-0.3-1.2-0.3-1.6,0.1l0,0
					c-0.5,0.5-0.5,1.3,0,1.8l7,6.7l-10.5-6.9c-0.8-0.5-1.9-0.3-2.4,0.5l0,0c-0.4,0.7-0.3,1.7,0.4,2.2l9.8,7.6l-8.8-4.5
					c-0.7-0.4-1.6-0.1-1.9,0.6l0,0c-0.3,0.6-0.1,1.4,0.4,1.8l8.9,6.5l-7.6-3.6c-0.7-0.3-1.6-0.1-2,0.7l0,0c-0.4,0.7-0.2,1.5,0.4,1.9
					l10.3,7.5L159.1,213.8z"/>
			</g>
		</g>
	</g>
	<g>
		<path class="st20" d="M123.3,120.8c0.2-2,0.7-4,1.7-5.9c1.3-2.6,3.3-5,6.4-3.6c5.2,2.4,0.2,10.9-5.1,11.7
			C124.6,123.2,123.2,122.1,123.3,120.8L123.3,120.8z"/>
		
			<ellipse transform="matrix(0.9729 -0.2312 0.2312 0.9729 -24.5703 33.4443)" class="st8" cx="130.4" cy="121.5" rx="1.4" ry="1.4"/>
		<ellipse transform="matrix(0.7071 -0.7071 0.7071 0.7071 -61.5805 101.2135)" cx="91.4" cy="124.9" rx="13.2" ry="13.2"/>
		<path d="M94.6,90.8c0,0-3.9-2.1-8,3.7c-4.1,5.9-3.5,18.1,4.9,20.3L94.6,90.8z"/>
		<path d="M94.6,90.8c0,0,2.2-11.4,19.4-9.1c17.2,2.3,28.6,9.7,16.6,26L94.6,90.8z"/>
		<path d="M130.4,104.6c0.2,11.1-8.1,20.2-20.1,20.4c-11.9,0.2-21.8-8.7-21.9-19.8c-0.2-11.1,9.4-20.2,21.3-20.4
			C121.7,84.6,130.2,93.5,130.4,104.6z"/>
		<polygon class="st17" points="106,121 101.5,150.6 114.3,158.5 118.4,151.6 117.2,124.2 		"/>
		<polygon class="st20" points="117.9,141.3 106.8,130.7 117.2,126.3 		"/>
		<path class="st17" d="M106.4,89.3c3.6-1.1,7.5-1.3,11.3-0.6c5,1,11.5,4.1,12.5,13.3c1.6,15.3-0.1,26.8-7.7,30.4
			c-5.8,2.7-10,1.8-16.8-2c-2.5-1.4-5-6.7-5.7-9.6l-3-8.2C97,112.6,89,94.4,106.4,89.3z"/>
		<g>
			<g>
				<polyline class="st19" points="121.5,116.4 123.6,120.2 121.8,121.7 				"/>
			</g>
			<path d="M123.5,103c0,0-0.6,1.5,1.8,1.8c1.8,0.2,2.9,0.3,3.9,0.6c0.6,0.2,1.2,0,1.6-0.4l0,0c0.3-0.3,0.3-0.8,0-1.1
				c-0.6-0.7-1.8-1.7-3.9-2C124.1,101.7,123.5,103,123.5,103z"/>
			<path d="M116.4,103c0,0,0.8,1.5-2.5,1.8c-2.5,0.2-5.5,1-6.9,1.3c-0.8,0.2-1.7,0-2.2-0.4l0,0c-0.4-0.3-0.4-0.8,0-1.1
				c0.8-0.7,3.9-2.3,7-2.7C115.8,101.6,116.4,103,116.4,103z"/>
			<g>
				<g>
					<defs>
						<path id="XMLID_14_" d="M117.3,114.2c0,0-1.7-6-9.6-1.5C107.7,112.7,111,118.2,117.3,114.2z"/>
					</defs>
					<use xlink:href="#XMLID_14_"  style="overflow:visible;fill:#FFFFFF;"/>
					<clipPath id="XMLID_5_">
						<use xlink:href="#XMLID_14_"  style="overflow:visible;"/>
					</clipPath>
					<path class="st21" d="M115.4,113.2c0.2,1.4-0.8,2.7-2.1,2.9c-1.4,0.2-2.6-0.8-2.8-2.2c-0.2-1.4,0.8-2.7,2.1-2.9
						C113.9,110.7,115.2,111.7,115.4,113.2z"/>
				</g>
				<g>
					<path d="M107.6,112.6c0.8-0.6,1.6-1,2.5-1.3c0.9-0.3,1.8-0.5,2.8-0.5c1,0,1.9,0.2,2.8,0.7c0.8,0.5,1.5,1.3,1.8,2.4
						c0,0.2-0.1,0.4-0.3,0.4c-0.2,0-0.4-0.1-0.4-0.3c0,0,0,0,0,0l0,0c-0.2-0.8-0.7-1.5-1.4-2c-0.7-0.5-1.6-0.7-2.5-0.7
						c-0.9,0-1.8,0.1-2.6,0.4c-0.9,0.3-1.7,0.6-2.4,1.2c-0.1,0.1-0.2,0-0.2,0C107.5,112.7,107.5,112.6,107.6,112.6z"/>
				</g>
			</g>
			<g>
				<g>
					<defs>
						<path id="XMLID_13_" d="M123.3,114.1c0,0,2.3-6,6.7-2C130,112.1,127.5,117.9,123.3,114.1z"/>
					</defs>
					<use xlink:href="#XMLID_13_"  style="overflow:visible;fill:#FFFFFF;"/>
					<clipPath id="XMLID_6_">
						<use xlink:href="#XMLID_13_"  style="overflow:visible;"/>
					</clipPath>
					<path class="st22" d="M124.9,112.8c-0.2,1.3,0.5,2.4,1.5,2.6c1,0.2,2-0.8,2.2-2c0.2-1.3-0.5-2.4-1.5-2.6
						C126.1,110.6,125.1,111.5,124.9,112.8z"/>
				</g>
				<g>
					<path d="M129.9,112.2c-0.3-0.5-0.8-0.9-1.3-1.1c-0.5-0.2-1.1-0.3-1.6-0.1l0,0l0,0c-0.4,0.1-0.7,0.2-1.1,0.4
						c-0.3,0.2-0.6,0.4-0.9,0.7c-0.5,0.5-1,1.2-1.2,1.9l0,0c-0.1,0.2-0.2,0.2-0.4,0.2c-0.2-0.1-0.2-0.2-0.2-0.4c0,0,0,0,0,0
						c0.2-0.4,0.4-0.8,0.6-1.1c0.2-0.3,0.5-0.7,0.8-0.9c0.3-0.3,0.7-0.5,1.1-0.7c0.4-0.2,0.8-0.3,1.2-0.4l0,0c0.3-0.1,0.7-0.1,1-0.1
						c0.3,0,0.6,0.1,0.9,0.3c0.6,0.3,1.1,0.7,1.4,1.2c0,0.1,0,0.2,0,0.2C130,112.3,130,112.3,129.9,112.2z"/>
				</g>
			</g>
			<g>
				<path class="st23" d="M123.4,125c0,0-0.6,2.3-3.3,2.2c-3.6-0.2-5.1-3.1-5.1-3.1L123.4,125z"/>
				<path class="st23" d="M115.3,124.2c0,0,7.4-1.3,7.9,0.8C123.2,124.9,118.1,125.7,115.3,124.2z"/>
				<path class="st19" d="M123.8,124.7c0,0-3.9,1.9-9-0.9"/>
			</g>
		</g>
		<path d="M99.8,117.1c0,0,8.2-17.7-3.1-23.4c0,0-3.6-3.6-5.4,6C88.4,115.1,99.8,117.1,99.8,117.1z"/>
		<g>
			<path class="st17" d="M102.1,121.1c-0.5-2.1-1.3-4.1-2.6-5.9c-1.7-2.5-4.2-4.8-7.2-2.9c-5.1,3.2,1.4,11.4,7,11.4
				C101.1,123.7,102.4,122.4,102.1,121.1L102.1,121.1z"/>
			<path class="st19" d="M93.8,116.4c4-1.4,6.2,3,6.2,3"/>
			<path class="st8" d="M100,123.2c0,0.8-0.6,1.4-1.4,1.4c-0.8,0-1.4-0.6-1.4-1.4s0.6-1.4,1.4-1.4C99.4,121.7,100,122.4,100,123.2z"
				/>
		</g>
		<path d="M98.1,94.4c0,0,10,4.1,18.5,0s13.5,3.7,13.5,3.7s-3-12.4-17.1-11.4C98.9,87.7,98.1,94.4,98.1,94.4z"/>
	</g>
</g>
<path class="st24" d="M409.3,209.1c0,84.3-54.5,156-130.2,181.8c-9.5,3.2-19.3,5.7-29.4,7.5c-5,0.8-10.1,1.5-15.3,2
	c-4.3,0.4-8.7,0.6-13.1,0.7c-1.3,0-2.5,0-3.8,0c-2.8,0-5.6-0.1-8.4-0.2c-1.8-0.1-3.6-0.2-5.3-0.3c-13.7-1-27-3.4-39.8-7.1
	c-9.2-2.7-18.1-6-26.6-9.9c-10.6-4.9-20.6-10.7-30-17.3c-10.6-7.5-20.4-15.9-29.3-25.3c-32.5-34.4-52.3-80.8-52.3-131.8
	c0-106.2,86-191.9,191.8-191.9C323.4,17.3,409.3,103,409.3,209.1z"/>
</svg>
