<svg width="89" height="120" viewBox="0 0 89 120" fill="none" xmlns="http://www.w3.org/2000/svg">
<path d="M80.6175 14.0229H78.8523V17.5552H80.6175V14.0229Z" fill="#404151"/>
<path d="M80.6175 7.78223H78.8523V11.3147H80.6175V7.78223Z" fill="#404151"/>
<path d="M80.6175 1.54175H78.8523V5.07373H80.6175V1.54175Z" fill="#404151"/>
<path d="M80.6175 32.8623H78.8523V36.3948H80.6175V32.8623Z" fill="#404151"/>
<path d="M80.6175 26.6213H78.8523V30.1538H80.6175V26.6213Z" fill="#404151"/>
<path d="M80.6175 20.3809H78.8523V23.9133H80.6175V20.3809Z" fill="#404151"/>
<path d="M58.1406 45.4617H54.8455V47.2275H58.1406V45.4617Z" fill="#404151"/>
<path d="M64.0246 45.4617H60.7295V47.2275H64.0246V45.4617Z" fill="#404151"/>
<path d="M69.7909 45.4617H66.4958V47.2275H69.7909V45.4617Z" fill="#404151"/>
<path d="M40.4884 45.4617H37.1934V47.2275H40.4884V45.4617Z" fill="#404151"/>
<path d="M46.3724 45.4617H43.0774V47.2275H46.3724V45.4617Z" fill="#404151"/>
<path d="M52.2565 45.4617H48.9614V47.2275H52.2565V45.4617Z" fill="#404151"/>
<path d="M22.8361 45.4617H19.541V47.2275H22.8361V45.4617Z" fill="#404151"/>
<path d="M28.7201 45.4617H25.425V47.2275H28.7201V45.4617Z" fill="#404151"/>
<path d="M34.6042 45.4617H31.3091V47.2275H34.6042V45.4617Z" fill="#404151"/>
<path d="M10.0088 67.3628H8.24365V70.3059H10.0088V67.3628Z" fill="#404151"/>
<path d="M10.0088 61.9463H8.24365V64.8901H10.0088V61.9463Z" fill="#404151"/>
<path d="M10.0088 56.6477H8.24365V59.5913H10.0088V56.6477Z" fill="#404151"/>
<path d="M10.0088 83.3762H8.24365V86.3203H10.0088V83.3762Z" fill="#404151"/>
<path d="M10.0088 78.0774H8.24365V81.0212H10.0088V78.0774Z" fill="#404151"/>
<path d="M10.0088 72.6609H8.24365V75.6047H10.0088V72.6609Z" fill="#404151"/>
<path d="M10.0088 99.3899H8.24365V102.334H10.0088V99.3899Z" fill="#404151"/>
<path d="M10.0088 94.0916H8.24365V97.0349H10.0088V94.0916Z" fill="#404151"/>
<path d="M10.0088 88.7927H8.24365V91.7363H10.0088V88.7927Z" fill="#404151"/>
<path d="M10.0088 115.521H8.24365V118.465H10.0088V115.521Z" fill="#404151"/>
<path d="M10.0088 110.105H8.24365V113.049H10.0088V110.105Z" fill="#404151"/>
<path d="M10.0088 104.806H8.24365V107.75H10.0088V104.806Z" fill="#404151"/>
<path d="M80.7349 38.9854H78.9697V41.9292H80.7349V38.9854Z" fill="#404151"/>
<path fill-rule="evenodd" clip-rule="evenodd" d="M80.7349 47.2278V44.2842H78.9698V45.4616H77.793V47.2278H80.7349Z" fill="#404151"/>
<path d="M75.4393 45.4617H72.4973V47.2275H75.4393V45.4617Z" fill="#404151"/>
<path d="M17.0697 45.8147H14.1277V47.5811H17.0697V45.8147Z" fill="#404151"/>
<path fill-rule="evenodd" clip-rule="evenodd" d="M8.83228 45.8147H11.7743V47.5812H10.5975V48.7588H8.83228V45.8147Z" fill="#404151"/>
<path d="M10.5975 51.1133H8.83228V54.0571H10.5975V51.1133Z" fill="#404151"/>
</svg>
