<svg width="22" height="25" viewBox="0 0 22 25" fill="none" xmlns="http://www.w3.org/2000/svg">
<path d="M21.6402 22.254C21.3525 22.562 20.8878 22.87 20.2903 23.2C19.6707 23.53 18.9626 23.816 18.1438 24.08C17.325 24.344 16.5063 24.564 15.6654 24.718C14.8245 24.894 14.0278 24.96 13.2754 24.96C11.2838 24.96 9.49141 24.674 7.89814 24.08C6.30486 23.508 4.93287 22.694 3.8043 21.638C2.67573 20.604 1.81271 19.35 1.21523 17.92C0.617753 16.49 0.330078 14.928 0.330078 13.234C0.330078 11.012 0.662012 9.07601 1.34801 7.44801C2.01187 5.82001 2.94128 4.43401 4.11411 3.35601C5.28694 2.27801 6.61466 1.46401 8.11943 0.936011C9.62419 0.408011 11.2175 0.144012 12.8771 0.144012C14.4483 0.144012 15.8866 0.320013 17.1922 0.650013C18.4979 1.00201 19.6043 1.42001 20.5116 1.92601L18.9626 6.39202C18.5642 6.17202 18.0331 5.95202 17.3693 5.73202C16.7054 5.51202 16.0194 5.33602 15.3334 5.18202C14.6474 5.05002 14.05 4.96202 13.4967 4.96202C12.169 4.96202 10.9962 5.13801 9.97825 5.46801C8.96033 5.79801 8.09729 6.30402 7.4113 6.96402C6.70318 7.62402 6.19422 8.43801 5.84016 9.42801C5.4861 10.418 5.30906 11.54 5.30906 12.838C5.30906 13.982 5.50822 15.016 5.90654 15.918C6.30486 16.842 6.85809 17.612 7.58834 18.25C8.29646 18.888 9.15949 19.372 10.1332 19.702C11.1068 20.032 12.2133 20.208 13.4082 20.208C14.0942 20.208 14.7138 20.164 15.3113 20.054C15.8866 19.966 16.3735 19.79 16.7718 19.57V16.6H12.5673V11.98H21.6623V22.254H21.6402Z" fill="#0B66BF"/>
</svg>
