<svg width="144" height="48" viewBox="0 0 144 48" fill="none" xmlns="http://www.w3.org/2000/svg">
<path d="M29.9532 40.248C27.9616 42.206 25.5274 44.252 22.5843 46.386C21.168 47.398 19.265 47.398 17.8487 46.386C14.9277 44.274 12.5157 42.206 10.5462 40.27L7.5367 37.014C5.63362 34.748 4.30589 32.68 3.33222 30.92C-0.385422 24.1 0.853791 16.862 0.853791 16.862C2.31429 7.512 10.5462 0.34 20.3272 0.406C26.6781 0.45 32.2988 3.508 35.8395 8.216L27.519 13.76C25.6602 11.538 22.8056 10.174 19.6412 10.35C14.7728 10.614 10.856 14.574 10.6569 19.414C10.4356 24.826 14.7728 29.292 20.1944 29.292C23.1375 29.292 25.7708 27.972 27.519 25.882C27.9173 25.398 28.2714 24.892 28.5812 24.342H25.2619L20.1944 20.03L24.7529 15.74H39.2694C39.4686 16.642 39.6014 17.544 39.6677 18.468C39.6677 18.468 39.9997 23.484 38.5834 27.378C37.8753 29.622 36.3484 32.988 32.9627 37.014L29.9532 40.248Z" fill="url(#paint0_linear)"/>
<path d="M50.2011 38.378C48.8955 38.378 47.789 37.982 46.9039 37.168C46.0187 36.376 45.554 35.32 45.5098 34.044V23.264H50.1568V32.35C50.2011 32.988 50.356 33.494 50.6658 33.89C50.9534 34.286 51.4403 34.462 52.1263 34.462C52.8123 34.462 53.4097 34.242 53.8966 33.758C54.4055 33.296 54.7817 32.658 55.0694 31.866C55.335 31.074 55.4899 30.15 55.4899 29.138V23.264H60.1369V37.674H55.9324L55.5562 35.034L55.6226 35.32C55.2907 35.914 54.8702 36.442 54.3613 36.904C53.8523 37.366 53.2548 37.718 52.5467 37.982C51.8386 38.246 51.0641 38.378 50.2011 38.378Z" fill="#0B66BF"/>
<path d="M69.1211 23.264L69.4973 25.838L69.4309 25.618C69.9398 24.716 70.648 23.99 71.5995 23.418C72.551 22.846 73.6575 22.582 75.0295 22.582C76.4015 22.582 77.5522 22.978 78.4594 23.792C79.3667 24.606 79.8536 25.64 79.8757 26.916V37.696H75.2286V28.61C75.2065 27.972 75.0295 27.466 74.7197 27.07C74.3877 26.696 73.8566 26.498 73.1043 26.498C72.3961 26.498 71.7765 26.74 71.2454 27.202C70.7143 27.664 70.2939 28.302 70.0284 29.072C69.7407 29.864 69.5858 30.788 69.5858 31.822V37.696H64.9387V23.286H69.1211V23.264Z" fill="#0B66BF"/>
<path d="M84.5227 18.16C84.5227 17.478 84.7883 16.928 85.3415 16.466C85.8726 16.026 86.47 15.806 87.0896 15.806C87.7093 15.806 88.2846 16.026 88.7936 16.466C89.3025 16.906 89.5681 17.478 89.5681 18.16C89.5681 18.842 89.3025 19.392 88.7936 19.832C88.2625 20.272 87.7093 20.47 87.0896 20.47C86.47 20.47 85.8947 20.25 85.3415 19.832C84.7883 19.392 84.5227 18.842 84.5227 18.16ZM84.6333 23.264H89.2804V37.674H84.6333V23.264Z" fill="#0B66BF"/>
<path d="M114.64 35.254C114.352 35.562 113.888 35.87 113.29 36.2C112.671 36.53 111.963 36.816 111.144 37.08C110.325 37.344 109.506 37.564 108.665 37.718C107.824 37.894 107.028 37.96 106.275 37.96C104.284 37.96 102.491 37.674 100.898 37.08C99.3049 36.508 97.9329 35.694 96.8043 34.638C95.6757 33.604 94.8127 32.35 94.2152 30.92C93.6178 29.49 93.3301 27.928 93.3301 26.234C93.3301 24.012 93.662 22.076 94.348 20.448C95.0119 18.82 95.9413 17.434 97.1141 16.356C98.2869 15.278 99.6147 14.464 101.119 13.936C102.624 13.408 104.217 13.144 105.877 13.144C107.448 13.144 108.887 13.32 110.192 13.65C111.498 14.002 112.604 14.42 113.512 14.926L111.963 19.392C111.564 19.172 111.033 18.952 110.369 18.732C109.705 18.512 109.019 18.336 108.333 18.182C107.647 18.05 107.05 17.962 106.497 17.962C105.169 17.962 103.996 18.138 102.978 18.468C101.96 18.798 101.097 19.304 100.411 19.964C99.7032 20.624 99.1942 21.438 98.8402 22.428C98.4861 23.418 98.3091 24.54 98.3091 25.838C98.3091 26.982 98.5082 28.016 98.9065 28.918C99.3049 29.842 99.8581 30.612 100.588 31.25C101.296 31.888 102.159 32.372 103.133 32.702C104.107 33.032 105.213 33.208 106.408 33.208C107.094 33.208 107.714 33.164 108.311 33.054C108.887 32.966 109.373 32.79 109.772 32.57V29.6H105.567V24.98H114.662V35.254H114.64Z" fill="#0B66BF"/>
<path d="M118.624 25.574C118.624 23.902 118.933 22.318 119.575 20.822C120.217 19.326 121.102 18.006 122.253 16.84C123.381 15.674 124.709 14.772 126.214 14.112C127.718 13.452 129.334 13.122 131.06 13.122C132.764 13.122 134.357 13.452 135.884 14.112C137.389 14.772 138.716 15.674 139.889 16.84C141.062 18.006 141.947 19.326 142.611 20.822C143.253 22.318 143.585 23.902 143.585 25.574C143.585 27.29 143.253 28.896 142.611 30.392C141.947 31.888 141.062 33.208 139.889 34.33C138.716 35.474 137.389 36.354 135.884 36.992C134.379 37.63 132.764 37.96 131.06 37.96C129.334 37.96 127.718 37.652 126.214 36.992C124.709 36.354 123.381 35.474 122.253 34.33C121.102 33.208 120.217 31.888 119.575 30.392C118.933 28.896 118.624 27.29 118.624 25.574ZM123.603 25.574C123.603 26.652 123.802 27.664 124.178 28.588C124.554 29.534 125.107 30.348 125.793 31.074C126.501 31.8 127.298 32.35 128.227 32.746C129.135 33.142 130.153 33.34 131.237 33.34C132.277 33.34 133.251 33.142 134.136 32.746C135.021 32.35 135.818 31.8 136.481 31.074C137.145 30.37 137.654 29.534 138.03 28.588C138.407 27.664 138.584 26.652 138.584 25.574C138.584 24.474 138.385 23.462 138.008 22.494C137.61 21.548 137.079 20.712 136.415 20.008C135.729 19.304 134.955 18.732 134.047 18.336C133.14 17.94 132.166 17.742 131.104 17.742C130.042 17.742 129.046 17.94 128.139 18.336C127.232 18.732 126.435 19.282 125.749 20.008C125.063 20.734 124.532 21.548 124.156 22.494C123.78 23.462 123.603 24.474 123.603 25.574Z" fill="#0B66BF"/>
<defs>
<linearGradient id="paint0_linear" x1="0.67581" y1="23.7594" x2="39.7106" y2="23.7594" gradientUnits="userSpaceOnUse">
<stop stop-color="#00BBFE"/>
<stop offset="1" stop-color="#0B66BF"/>
</linearGradient>
</defs>
</svg>
