<?xml version="1.0" encoding="utf-8"?>
<!-- Generator: Adobe Illustrator 22.0.0, SVG Export Plug-In . SVG Version: 6.00 Build 0)  -->
<svg version="1.1" id="Layer_1" xmlns="http://www.w3.org/2000/svg" xmlns:xlink="http://www.w3.org/1999/xlink" x="0px" y="0px"
	 viewBox="0 0 430 430" style="enable-background:new 0 0 430 430;" xml:space="preserve">
<style type="text/css">
	.st0{fill:#111D36;}
	.st1{fill:#D48066;}
	.st2{fill:#F5425C;}
	.st3{fill:#4580D4;}
	.st4{fill:none;stroke:#1C5BA5;stroke-width:1.0211;stroke-miterlimit:10;}
	.st5{fill:none;stroke:#D82B4C;stroke-width:0.9881;stroke-miterlimit:10;}
	.st6{fill:none;stroke:#111D36;stroke-width:0.7381;stroke-linecap:round;stroke-linejoin:round;stroke-miterlimit:10;}
	.st7{fill:none;stroke:#111D36;stroke-width:0.7228;stroke-linecap:round;stroke-linejoin:round;stroke-miterlimit:10;}
	.st8{fill:#33C5A9;}
	.st9{fill:none;stroke:#0C9F8C;stroke-width:1.0099;stroke-miterlimit:10;}
	.st10{fill:#FFB1A5;}
	.st11{fill:none;stroke:#EF948B;stroke-width:1.0099;stroke-miterlimit:10;}
	.st12{fill:#001E3B;}
	.st13{fill:none;stroke:#000000;stroke-width:1.0099;stroke-miterlimit:10;}
	.st14{fill:none;stroke:#111D36;stroke-width:0.7875;stroke-linecap:round;stroke-linejoin:round;stroke-miterlimit:10;}
	.st15{fill:none;stroke:#111D36;stroke-width:0.7323;stroke-linecap:round;stroke-linejoin:round;stroke-miterlimit:10;}
	.st16{fill:#FFFFFF;}
	.st17{fill:none;stroke:#111D36;stroke-width:0.9528;stroke-linecap:round;stroke-linejoin:round;stroke-miterlimit:10;}
	.st18{fill:none;stroke:#FF796A;stroke-width:3;stroke-miterlimit:10;}
</style>
<g>
	<path class="st0" d="M148.6,111.4c-5.1-5.1-2.4-21.1-2.4-21.1L125,82.6l-21.2,7.7c0,0,2.7,16-2.4,21.1c-5,5-9.5,14.4-0.9,23.8
		c8.6,9.4,24.5,4.1,24.5,4.1s15.9,5.3,24.5-4.1C158.1,125.8,153.6,116.4,148.6,111.4z"/>
	<g>
		<g>
			<polygon class="st1" points="82.9,201.9 84.1,272.1 92.1,272.6 97.1,200.3 			"/>
			<path class="st1" d="M87.5,269.6c3.7-0.6-20.2,2.1-18.7,20.8c0.1,1.1,1.4,4.1,2.7,3.6l0.2-0.1c1.4-0.4,2.4-1.8,2.2-3
				c-0.4-3.1,0.3-8.6,8.7-11.6c0,0,1.7,1.8-2.1,5.9c-1,1.1-0.8,2.5,0.4,3.1l0,0c0.8,0.4,1.9,0.2,2.7-0.5c3-2.4,10.2-8.9,8.7-15.3
				L87.5,269.6z"/>
		</g>
		<path class="st2" d="M94.5,136.6c0,0-11.9,0.7-12.9,18.7c-1,18,1.3,46.5,1.3,46.5l14.2-1.5l4.2-45.9L94.5,136.6z"/>
	</g>
	<g>
		<g>
			<path class="st3" d="M156.4,264.2l-10,123.2c-3.1-1.2-6.1-2.5-9.1-3.9c-4.3-2-8.6-4.2-12.8-6.5l0-127.5v-0.6l-2.9,0.1l0,0.3
				l-4,123.7c-3.6-2.2-7-4.5-10.4-6.8c-4.6-3.2-9-6.7-13.3-10.3c-1.3-26.2-2.8-53.8-4.1-74.9c-0.2-3-0.4-5.9-0.5-8.6
				c0-0.6-0.1-1.1-0.1-1.7c-0.1-0.9-0.1-1.8-0.2-2.8c-1.9-27.8,2.5-43.7,6.9-52.3c3.6-7,7.1-9.2,7.1-9.2c21.8-12.6,40.9,0,40.9,0
				c2.5,3.7,4.6,7.7,6.3,11.7c1.4,3.5,2.6,7,3.5,10.5C158.5,247.1,156.4,264.2,156.4,264.2z"/>
			<g>
				<line class="st4" x1="116" y1="249.1" x2="131.7" y2="249.9"/>
				<line class="st4" x1="104.7" y1="220.1" x2="94.7" y2="244.6"/>
			</g>
		</g>
	</g>
	<g>
		<g>
			<path class="st0" d="M103.1,197.7v8.8c0,0,20.5-2.3,40.9,0v-8.8l-20.5-5.9L103.1,197.7z"/>
			<g>
				<path class="st2" d="M107.6,133.5l-14.4,3.4c0,0,6,39.9,9.9,60.7c0,0,20.8-3.4,40.9,0c0,0,10.4-42,15-60.7l-16.5-4.4
					L107.6,133.5z"/>
				<line class="st5" x1="99.2" y1="176.9" x2="95.8" y2="155.7"/>
			</g>
		</g>
		<g>
			<g>
				<path class="st2" d="M151,136.2c0,0,11.4-3.7,18.8,12.8c7.4,16.5,14.9,35.3,14.9,35.3L171,188l-22.1-32.8L151,136.2z"/>
				<line class="st5" x1="152.8" y1="161.9" x2="148.9" y2="155.2"/>
			</g>
			<g>
				<g>
					<polygon class="st1" points="184.7,193 150.1,232.8 146.8,223.2 171,188 					"/>
					<polygon class="st1" points="146.8,223.2 142.4,224.2 150.1,242.5 153,228.6 					"/>
					<path class="st1" d="M184.7,184.3c0,0,4.2,5.5,0,8.8c-4.2,3.3-13.2,1.2-13.2,1.2L171,188L184.7,184.3z"/>
				</g>
				<line class="st4" x1="141" y1="220.1" x2="151" y2="244.6"/>
			</g>
		</g>
	</g>
	<g>
		<g>
			<path class="st1" d="M133.6,132.5l-2.3-20.1c0,0-2.3,2.4-5.4,2.9c-3.1,0.6-6.1-1.2-6.1-1.3c0,0-2.5-2.1-2.5-2.1l-1.4,20.8
				c0,0.2,0,0.4-0.1,0.7l17.7-0.3C133.6,132.9,133.6,132.7,133.6,132.5z"/>
		</g>
		<path class="st0" d="M115.9,111c0,0,4.7,10,10.3,8.7c5.9-1.4,5.8-9.9,5.8-9.9L115.9,111z"/>
		<g>
			<path class="st0" d="M146.4,87.5c0,12.3-9.6,22.3-21.4,22.3c-11.8,0-21.4-10-21.4-22.3c0-12.3,9.6-20.7,21.4-20.7
				S146.4,75.2,146.4,87.5z"/>
		</g>
		<path class="st1" d="M141,87.1c0,6.8-1,12.7-1.9,16.8c-0.9,4.1-3.6,6.9-7.4,9.2l-0.7,0.4c-4,2.4-9.1,2.5-13.2,0.1l0,0
			c-4.1-2.4-6.9-5.5-7.8-9.8c-1.6-7.9-1.8-16.8-1.8-16.8s-1.5-17.1,16.1-16.8C142.1,70.6,141,87.1,141,87.1z"/>
		<g>
			<path class="st1" d="M110.2,103.5c-3.1,2.6-9.6-7.6-6.6-10.4c3-2.8,5.3,2.6,5.3,2.6l0.4,2.3l0.9,4.3l0.2,1L110.2,103.5z"/>
			<g>
				<g>
					<path class="st6" d="M104.9,96.8c0,0,1.3-2.8,4.2,2.1"/>
				</g>
			</g>
		</g>
		<g>
			<path class="st1" d="M139.3,103.5c3.1,2.6,9.6-7.6,6.6-10.4c-3-2.8-5.3,2.6-5.3,2.6l-0.4,2.3l-0.9,4.3l-0.2,1L139.3,103.5z"/>
			<g>
				<g>
					<path class="st6" d="M144.5,96.8c0,0-1.3-2.8-4.2,2.1"/>
				</g>
			</g>
		</g>
		<path class="st0" d="M120.9,75.9c0,0,5.8,11.5,22.8,14.7c0,0,2-21-15.1-22.6C128.6,68,125.1,66.3,120.9,75.9z"/>
		<path class="st0" d="M126.7,75.9c0,0-5.8,10.6-20.5,14.7c0,0-1.6-17.9,15.2-21.9C121.5,68.7,124.7,66.8,126.7,75.9z"/>
		<g>
			<g>
				<path class="st0" d="M118.5,94.3c0,0.9-0.7,1.6-1.6,1.6c-0.9,0-1.6-0.7-1.6-1.6c0-0.9,0.7-1.6,1.6-1.6
					C117.8,92.7,118.5,93.4,118.5,94.3z"/>
				<path class="st0" d="M133.6,94.3c0,0.9-0.7,1.6-1.6,1.6c-0.9,0-1.6-0.7-1.6-1.6c0-0.9,0.7-1.6,1.6-1.6
					C132.8,92.7,133.6,93.4,133.6,94.3z"/>
			</g>
			<path class="st7" d="M123.2,97.9l0,2.2c0,0.6,0.5,1,1,0.9l1.2-0.2"/>
			<path class="st0" d="M127,88.9l9.8,2.5c0,0-0.4-2.8-4.5-3.8C128.4,86.7,127,88.9,127,88.9z"/>
			<path class="st0" d="M120.9,88.9l-9.8,2.5c0,0,0.4-2.8,4.5-3.8C119.6,86.7,120.9,88.9,120.9,88.9z"/>
			<path class="st7" d="M119,102.8c0,0,2.5,3.1,9.2,1"/>
		</g>
		<g>
			<circle class="st0" cx="123.8" cy="61.3" r="4.6"/>
			<rect x="121.4" y="65.4" class="st2" width="4.9" height="1.7"/>
		</g>
		<g>
			<path class="st1" d="M124.6,125.8l-16.9,7.7c0,0,0.5,7.4,18,7.4c14.9,0,16.8-8.4,16.8-8.4L124.6,125.8z"/>
		</g>
	</g>
</g>
<g>
	<g>
		<g>
			<g>
				<path class="st8" d="M258.1,239.6l-4.8,26.3l-3.6,19.9l-0.1,0.3l-20.9,114.5c-2.5,0.1-4.9,0.2-7.4,0.3c-1.3,0-2.5,0-3.8,0
					c-2.8,0-5.6-0.1-8.4-0.2c-1.8-0.1-3.6-0.2-5.3-0.3c-1.9-0.1-3.9-0.3-5.8-0.5c4.1-39,10.8-98.3,17.4-140
					c1.7-10.9,3.4-20.6,5.1-28.4c1.6-7.8,26.3,2.7,34.9,6.6C257,239,258.1,239.6,258.1,239.6z"/>
			</g>
		</g>
		<g>
			<g>
				<path class="st8" d="M294.9,384.7c-5.1,2.3-10.4,4.3-15.8,6.2c-5.6,1.9-11.4,3.6-17.3,5l-12.2-109.7l0-0.3l-2.2-20.2l-2.4-22
					c0,0,4.4-2.5,10.2-5.4c11.5-5.7,28.6-13,29.4-6.6c1,8,2,17.1,2.9,27C291,297.1,293.4,346.9,294.9,384.7z"/>
				<line class="st9" x1="253" y1="286.8" x2="237.3" y2="283.5"/>
				<line class="st9" x1="296.4" y1="427.2" x2="296.4" y2="427.2"/>
			</g>
		</g>
	</g>
	<g>
		<g>
			<g>
				<path class="st10" d="M297.6,160.7l25.6,24.7c4.2,4.8,3.7,12-1,16.3l0,0c-4.7,4.3-11.6,5-16,0.3l-26.5-23.3L297.6,160.7z"/>
				<g>
					<g>
						<path class="st10" d="M346,146.3l-39.9,41.6c-4,4.6-3.4,11.6,1.4,15.4l0,0c5.1,4,12.5,2.6,15.8-2.9l32.8-47.9L346,146.3z"/>
						<path class="st10" d="M346,146.3c0,0-1.6-5.6,2.7-18.2c0.3-0.8,1-1.3,1.8-1.4l0,0c1.2-0.1,2.2,0.9,2.2,2.1l-0.4,5.8l3.8,17.8
							L346,146.3z"/>
						<path class="st10" d="M352.3,134.7l7.3-16.9c0.3-0.7,1.2-1.5,2.2-1.2l0,0c1.1,0.3,1.5,1.3,1.2,2.1l-4.5,12.2l7.9-13.2
							c0.4-0.6,1.2-0.9,1.9-0.5l0,0c0.6,0.4,0.9,1.1,0.6,1.8l-6.9,15l8.1-11.3c0.4-0.6,1.3-0.8,1.9-0.5l0,0c0.8,0.4,1.1,1.4,0.7,2.1
							l-7.1,13.2l9.6-6.1c0.8-0.4,1.7-0.1,2.1,0.8l0,0c0.2,0.6,0,1.3-0.5,1.7l-9.3,8.3c0,0-2.9,6.3-11.3,10.2l-6.9-9L352.3,134.7z"
							/>
					</g>
					<line class="st11" x1="315.6" y1="178.1" x2="309.5" y2="184.3"/>
				</g>
			</g>
			<path class="st12" d="M268.3,133.8c23.4,3.5,41.2,30.6,41.2,30.6L287,191.3l-16.9-28.6L268.3,133.8z"/>
		</g>
		<g>
			<g>
				<path class="st10" d="M221,183.4l-25.1,100.1l-10.2-1.9c0,0,6.3-62.5,16.5-104.7L221,183.4z"/>
				<path class="st10" d="M186.1,278.3c0,0-17.9,27.8,0.5,38c1.2,0.7,2.8,0.2,3.9-1.1l0.1-0.2c1.1-1.4,1.2-3.4,0.1-4.6
					c-2.5-2.9-5.7-9,0.7-17.8c0,0,3,0.6,2,7.5c-0.3,1.8,0.9,3.1,2.5,2.8l0,0c1.1-0.2,2-1.1,2.4-2.3c1.3-4.6,3.8-15.9-2.2-21.3
					L186.1,278.3z"/>
			</g>
			<path class="st12" d="M226,138.5c0,0-18.3,4.2-30,40.8l29.3,17.1l6.9-24.3L226,138.5z"/>
		</g>
		<g>
			<path class="st12" d="M268.3,133.8l13.8,5.2c3.6,1.3,6.8,11.3,5.9,15l3.3,101.9c-25,20.3-78.4,3.4-78.4,3.4l7.7-110.2
				c-0.6-2.6,0.9-8.8,3.3-9.8l18.7-7.4L268.3,133.8z"/>
			<line class="st13" x1="217.6" y1="192.5" x2="219.6" y2="162.5"/>
			<line class="st13" x1="289.1" y1="188.7" x2="288.9" y2="159.4"/>
		</g>
	</g>
	<g>
		<g>
			<g>
				<path class="st10" d="M262.3,135.5l-1.3-23.1c0,0-3.6,2.5-6.9,3.1c-3.3,0.6-6.5-1.3-6.5-1.3c0,0-3.8-2.2-3.8-2.2l-1.2,21.6
					c0,0.2-0.2,2.2-0.2,2.4l20,0.2C262.3,135.9,262.3,135.7,262.3,135.5z"/>
			</g>
			<path class="st0" d="M243,112.6c0,0,5.3,9.7,11.7,8.3c6.6-1.5,6.9-9.9,6.9-9.9L243,112.6z"/>
			<path class="st10" d="M270.2,85.8c0,7.4-1,13.8-2.1,18.4c-1,4.5-3.8,7.6-7.9,10.1l-0.7,0.5c-4.2,2.6-9.7,2.7-14,0.2l0,0
				c-4.3-2.6-7.4-6-8.3-10.7c-1.7-8.7-1.9-18.3-1.9-18.3s-1.6-18.7,17.2-18.4S270.2,85.8,270.2,85.8z"/>
			<g>
				<path class="st10" d="M237.4,103.4c-3.3,2.9-10.3-8.5-7.1-11.5c3.2-3.1,5.5,1.9,5.5,1.9l0.7,3.6l1,4.8l0.3,1.1L237.4,103.4z"/>
				<g>
					<g>
						<path class="st14" d="M231.7,95.7c0,0,1.4-2.9,4.5,2.2"/>
					</g>
				</g>
			</g>
			<g>
				<path class="st10" d="M268.2,103.5c3.4,2.8,10.2-8.7,6.9-11.7c-3.3-3-5.5,2-5.5,2l-0.6,3.6l-0.9,4.8l-0.2,1.1L268.2,103.5z"/>
				<g>
					<g>
						<path class="st14" d="M273.7,95.7c0,0-1.4-2.9-4.5,2.3"/>
					</g>
				</g>
			</g>
		</g>
		<g>
			<path class="st15" d="M251.6,95.8l0,2.3c0,0.6,0.5,1,1.1,0.9l1.2-0.3"/>
			<path class="st0" d="M255.1,85.6l10,2.6c0,0-0.5-2.8-4.6-3.8C256.5,83.3,255.1,85.6,255.1,85.6z"/>
			<path class="st0" d="M248.9,85.6l-10,2.6c0,0,0.5-2.8,4.6-3.8C247.6,83.3,248.9,85.6,248.9,85.6z"/>
			<path class="st16" d="M245.7,102.5h13c0,0-1,3.6-6.5,3.6C247.6,106.1,245.7,102.5,245.7,102.5z"/>
			<path class="st17" d="M242.3,92.5c0,0,2.3-1.5,4.7,0"/>
			<path class="st17" d="M262.5,92.5c0,0-2.4-1.5-4.8,0"/>
		</g>
		<g>
			<path class="st0" d="M235.9,94.6c0,0,4-13,1.1-21.3C237,73.3,227.9,77.8,235.9,94.6z"/>
			<path class="st0" d="M269.5,94.6c0,0-5.1-13-2.2-21.3C267.3,73.3,276.4,76.7,269.5,94.6z"/>
			<g>
				<path class="st0" d="M235.7,75.2c0,0,25.2,12.9,34.9,2.7c0,0,8-8-0.8-14.3c-8.8-6.2-29,4.7-29,4.7S236.3,69.4,235.7,75.2z"/>
				<path class="st0" d="M235.7,75.2c0,0-4.7-8.3,8.7-12.4c0,0,3.2,3.3-1.4,7.7C238.3,74.9,235.7,75.2,235.7,75.2z"/>
			</g>
		</g>
		<path class="st10" d="M242.6,131.9l-7.9,3.2c0,0,1.1,9.4,13.2,9.4c14.3,0,22.4-10.3,22.4-10.3l-10.5-2.9L242.6,131.9z"/>
	</g>
</g>
<path class="st18" d="M409.3,209.1c0,78.3-47.1,145.8-114.4,175.6c-5.1,2.3-10.4,4.3-15.8,6.2c-5.6,1.9-11.4,3.6-17.3,5
	c-4,1-8.1,1.8-12.2,2.5c-5,0.8-10.1,1.5-15.3,2c-1.9,0.2-3.8,0.3-5.7,0.4c-2.5,0.1-4.9,0.2-7.4,0.3c-1.3,0-2.5,0-3.8,0
	c-2.8,0-5.6-0.1-8.4-0.2c-1.8-0.1-3.6-0.2-5.3-0.3c-1.9-0.1-3.9-0.3-5.8-0.5c-11.7-1.2-23-3.4-33.9-6.6c-6-1.7-11.8-3.7-17.6-6
	c-3.1-1.2-6.1-2.5-9.1-3.9c-4.3-2-8.6-4.2-12.8-6.5c-2.3-1.3-4.6-2.6-6.9-4c-3.6-2.2-7-4.5-10.4-6.8c-4.6-3.2-9-6.7-13.3-10.3
	c-5.6-4.7-10.9-9.7-15.9-15.1c-32.5-34.4-52.3-80.8-52.3-131.8c0-106.2,86-191.9,191.8-191.9C323.4,17.3,409.3,103,409.3,209.1z"/>
</svg>
