<svg width="13" height="13" viewBox="0 0 13 13" fill="none" xmlns="http://www.w3.org/2000/svg">
<path d="M12.8889 6.21085L8.9891 1.87775C8.9059 1.78588 8.78977 1.73389 8.66671 1.73389H6.06685C5.89613 1.73389 5.741 1.83441 5.67081 1.99041C5.60148 2.14726 5.63008 2.33012 5.74447 2.45665L9.38341 6.5003L5.74447 10.5431C5.63008 10.6705 5.60061 10.8533 5.67081 11.0093C5.741 11.1662 5.89613 11.2667 6.06685 11.2667H8.66671C8.78977 11.2667 8.9059 11.2138 8.9891 11.1237L12.8889 6.79061C13.0371 6.62596 13.0371 6.37464 12.8889 6.21085Z" fill="white"/>
<path d="M7.25583 6.21085L3.35604 1.87775C3.27284 1.78588 3.15672 1.73389 3.03366 1.73389H0.433797C0.263073 1.73389 0.107948 1.83441 0.0377519 1.99041C-0.0315777 2.14726 -0.0029792 2.33012 0.111415 2.45665L3.75035 6.5003L0.111415 10.5431C-0.0029792 10.6705 -0.0324443 10.8533 0.0377519 11.0093C0.107948 11.1662 0.263073 11.2667 0.433797 11.2667H3.03366C3.15672 11.2667 3.27284 11.2138 3.35604 11.1237L7.25583 6.79061C7.40402 6.62596 7.40402 6.37464 7.25583 6.21085Z" fill="white"/>
</svg>
