<svg width="89" height="120" viewBox="0 0 89 120" fill="none" xmlns="http://www.w3.org/2000/svg">
<path d="M9.62976 14.0193H7.86572V17.5522H9.62976V14.0193Z" fill="#404151"/>
<path d="M9.62976 7.77856H7.86572V11.311H9.62976V7.77856Z" fill="#404151"/>
<path d="M9.62976 1.53735H7.86572V5.06982H9.62976V1.53735Z" fill="#404151"/>
<path d="M9.62976 32.8601H7.86572V36.3928H9.62976V32.8601Z" fill="#404151"/>
<path d="M9.62976 26.6189H7.86572V30.1516H9.62976V26.6189Z" fill="#404151"/>
<path d="M9.62976 20.3782H7.86572V23.9106H9.62976V20.3782Z" fill="#404151"/>
<path d="M34.0911 45.9302H30.7983V47.6965H34.0911V45.9302Z" fill="#404151"/>
<path d="M28.3282 45.9302H25.0352V47.6965H28.3282V45.9302Z" fill="#404151"/>
<path d="M22.4484 45.9302H19.1553V47.6965H22.4484V45.9302Z" fill="#404151"/>
<path d="M51.732 45.9302H48.439V47.6965H51.732V45.9302Z" fill="#404151"/>
<path d="M45.8514 45.9302H42.5586V47.6965H45.8514V45.9302Z" fill="#404151"/>
<path d="M40.0888 45.9302H36.7959V47.6965H40.0888V45.9302Z" fill="#404151"/>
<path d="M69.3722 45.9302H66.0791V47.6965H69.3722V45.9302Z" fill="#404151"/>
<path d="M63.4923 45.9302H60.1992V47.6965H63.4923V45.9302Z" fill="#404151"/>
<path d="M57.6122 45.9302H54.3193V47.6965H57.6122V45.9302Z" fill="#404151"/>
<path d="M80.0742 67.3616H78.3101V70.3052H80.0742V67.3616Z" fill="#404151"/>
<path d="M80.0742 61.9446H78.3101V64.8887H80.0742V61.9446Z" fill="#404151"/>
<path d="M80.0742 56.646H78.3101V59.5896H80.0742V56.646Z" fill="#404151"/>
<path d="M80.0742 83.3757H78.3101V86.3196H80.0742V83.3757Z" fill="#404151"/>
<path d="M80.0742 78.0769H78.3101V81.0205H80.0742V78.0769Z" fill="#404151"/>
<path d="M80.0742 72.6604H78.3101V75.604H80.0742V72.6604Z" fill="#404151"/>
<path d="M80.0742 99.3904H78.3101V102.334H80.0742V99.3904Z" fill="#404151"/>
<path d="M80.0742 94.0916H78.3101V97.0352H80.0742V94.0916Z" fill="#404151"/>
<path d="M80.0742 88.7925H78.3101V91.7363H80.0742V88.7925Z" fill="#404151"/>
<path d="M80.0742 115.522H78.3101V118.466H80.0742V115.522Z" fill="#404151"/>
<path d="M80.0742 110.106H78.3101V113.049H80.0742V110.106Z" fill="#404151"/>
<path d="M80.0742 104.807H78.3101V107.751H80.0742V104.807Z" fill="#404151"/>
<path d="M9.9823 38.9834H8.21826V41.9268H9.9823V38.9834Z" fill="#404151"/>
<path fill-rule="evenodd" clip-rule="evenodd" d="M8.21826 47.2258V44.2822H9.98234V45.4597H11.1584V47.2258H8.21826Z" fill="#404151"/>
<path d="M16.4507 45.4595H13.5107V47.2258H16.4507V45.4595Z" fill="#404151"/>
<path d="M74.7819 45.8125H71.8418V47.5789H74.7819V45.8125Z" fill="#404151"/>
<path fill-rule="evenodd" clip-rule="evenodd" d="M80.074 45.8125H77.1338V47.579H78.3099V48.7566H80.074V45.8125Z" fill="#404151"/>
<path d="M80.0742 51.1116H78.3101V54.0554H80.0742V51.1116Z" fill="#404151"/>
</svg>
