<?xml version="1.0" encoding="utf-8"?>
<!-- Generator: Adobe Illustrator 22.0.0, SVG Export Plug-In . SVG Version: 6.00 Build 0)  -->
<svg version="1.1" id="Layer_1" xmlns="http://www.w3.org/2000/svg" xmlns:xlink="http://www.w3.org/1999/xlink" x="0px" y="0px"
	 viewBox="0 0 430 430" style="enable-background:new 0 0 430 430;" xml:space="preserve">
<style type="text/css">
	.st0{fill:#EBEBEB;}
	.st1{fill:#E6E6E6;}
	.st2{fill:#F0F0F0;}
	.st3{fill:#FAFAFA;}
	.st4{fill:#E0E0E0;}
	.st5{fill:#F5F5F5;}
	.st6{fill:none;}
	.st7{fill:#263238;}
	.st8{opacity:0.5;enable-background:new    ;}
	.st9{opacity:0.2;enable-background:new    ;}
	.st10{fill:#407BFF;}
	.st11{opacity:0.4;fill:#FFFFFF;}
	.st12{fill:#E4897B;}
	.st13{fill:#FFFFFF;}
	.st14{fill:none;stroke:#263238;stroke-width:0.708;stroke-linecap:round;stroke-linejoin:round;stroke-miterlimit:10;}
	.st15{opacity:0.2;fill:#FFFFFF;}
	.st16{fill:#DE5753;}
	.st17{opacity:0.7;fill:#FFFFFF;}
	.st18{fill:none;stroke:#FF796A;stroke-width:3;stroke-miterlimit:10;}
</style>
<g>
	<path class="st0" d="M360.3,337c-0.1,0.1-0.1,0.1-0.2,0.2c0,0,0,0,0,0.1H74.7c0,0,0,0-0.1-0.1c0-0.1-0.1-0.1-0.2-0.2H360.3z"/>
	<rect x="267.7" y="354.7" class="st0" width="8.1" height="0.2"/>
	<path class="st0" d="M354.3,343.4c-0.1,0.1-0.1,0.1-0.2,0.2h-17v-0.2H354.3z"/>
	<rect x="88.6" y="348.9" class="st0" width="87.8" height="0.2"/>
</g>
<g>
	<g>
		<path class="st1" d="M379.4,290.8V312c-3.3,5.2-6.9,10.3-10.7,15.1c-2.4,3.1-4.9,6.1-7.5,9H73.7c-2.1-2.3-4.1-4.7-6-7.2
			c-1-1.2-1.9-2.4-2.9-3.7c-0.5-0.7-1.1-1.4-1.6-2.1c-0.5-0.6-0.9-1.2-1.3-1.8c-0.2-0.3-0.4-0.6-0.6-0.9c-2.1-3-4.2-6.1-6.2-9.2
			c-0.6-0.9-1.1-1.8-1.7-2.8c-0.8-1.4-1.6-2.7-2.4-4.1c0,0,0-0.1-0.1-0.1c-0.1-0.1-0.1-0.2-0.2-0.4c-0.4-0.6-0.7-1.2-1-1.9
			c-0.5-0.9-1-1.8-1.4-2.6c-0.5-1-1.1-2.1-1.6-3.1c-0.3-0.5-0.5-1.1-0.8-1.6c-0.3-0.6-0.6-1.2-0.9-1.8c-0.3-0.7-0.7-1.4-1-2.1
			c-1.7-3.7-3.3-7.4-4.8-11.2c-0.2-0.6-0.5-1.2-0.7-1.8c-0.2-0.6-0.5-1.2-0.7-1.9c-0.3-0.9-0.7-1.8-1-2.7c-0.8-2.1-1.5-4.3-2.2-6.5
			c-0.3-0.9-0.6-1.8-0.8-2.7c-0.3-1-0.6-2-0.9-3.1h2.9v-19.8h5.8v-14h16.9v14h5.8v19.8h10.6v5.8h4.6v22.8H81v-31.7h2.6v20.3h2.9
			v-28.1h9.7v-7.5h3.4v-27.6h2v-0.5h3.4v-23.5h65.4v58.1h20.3v-25.2H210v-44.5h4.8v-6.8h22.8v6.8h3.4v61.5h10.6v28.6h5.5v-22.8h4.6
			v-5.8h10.7v-19.9h5.8v-14h7.2v-20.5h2.6v20.5h7.2v14h5.8v19.9h10.7v5.8h4.6v22.8h7v-39.5H335v39.5h3.4v-75.1h31.5v75.1h5.7v21.6
			H379.4z"/>
		<g>
			<rect x="129.5" y="193.5" class="st2" width="2.7" height="2.7"/>
			<rect x="129.5" y="198.1" class="st2" width="2.7" height="2.7"/>
			<rect x="129.5" y="216.5" class="st2" width="2.7" height="2.7"/>
			<rect x="129.5" y="221.1" class="st2" width="2.7" height="2.7"/>
			<rect x="129.5" y="225.7" class="st2" width="2.7" height="2.7"/>
			<rect x="129.5" y="239.5" class="st2" width="2.7" height="2.7"/>
			<rect x="129.5" y="244.1" class="st2" width="2.7" height="2.7"/>
			<rect x="133.9" y="211.9" class="st2" width="2.7" height="2.7"/>
			<rect x="133.9" y="216.5" class="st2" width="2.7" height="2.7"/>
			<rect x="133.9" y="221.1" class="st2" width="2.7" height="2.7"/>
			<rect x="133.9" y="225.7" class="st2" width="2.7" height="2.7"/>
			<rect x="133.9" y="230.3" class="st2" width="2.7" height="2.7"/>
			<rect x="133.9" y="239.5" class="st2" width="2.7" height="2.7"/>
			<rect x="133.9" y="244.1" class="st2" width="2.7" height="2.7"/>
			<rect x="138.2" y="193.5" class="st2" width="2.7" height="2.7"/>
			<rect x="138.2" y="198.1" class="st2" width="2.7" height="2.7"/>
			<rect x="138.2" y="202.7" class="st2" width="2.7" height="2.7"/>
			<rect x="138.2" y="207.3" class="st2" width="2.7" height="2.7"/>
			<rect x="138.2" y="211.9" class="st2" width="2.7" height="2.7"/>
			<rect x="138.2" y="216.5" class="st2" width="2.7" height="2.7"/>
			<rect x="138.2" y="221.1" class="st2" width="2.7" height="2.7"/>
			<rect x="138.2" y="225.7" class="st2" width="2.7" height="2.7"/>
			<rect x="138.2" y="230.3" class="st2" width="2.7" height="2.7"/>
			<rect x="138.2" y="234.9" class="st2" width="2.7" height="2.7"/>
			<rect x="138.2" y="244.1" class="st2" width="2.7" height="2.7"/>
			<rect x="142.6" y="193.5" class="st2" width="2.7" height="2.7"/>
			<rect x="142.6" y="198.1" class="st2" width="2.7" height="2.7"/>
			<rect x="142.6" y="202.7" class="st2" width="2.7" height="2.7"/>
			<rect x="142.6" y="207.3" class="st2" width="2.7" height="2.7"/>
			<rect x="142.6" y="211.9" class="st2" width="2.7" height="2.7"/>
			<rect x="142.6" y="216.5" class="st2" width="2.7" height="2.7"/>
			<rect x="142.6" y="221.1" class="st2" width="2.7" height="2.7"/>
			<rect x="142.6" y="262.5" class="st2" width="2.7" height="2.7"/>
			<rect x="147" y="193.5" class="st2" width="2.7" height="2.7"/>
			<rect x="147" y="198.1" class="st2" width="2.7" height="2.7"/>
			<rect x="147" y="202.7" class="st2" width="2.7" height="2.7"/>
			<rect x="147" y="207.3" class="st2" width="2.7" height="2.7"/>
			<rect x="147" y="211.9" class="st2" width="2.7" height="2.7"/>
			<rect x="147" y="216.5" class="st2" width="2.7" height="2.7"/>
			<rect x="147" y="221.1" class="st2" width="2.7" height="2.7"/>
			<rect x="147" y="225.7" class="st2" width="2.7" height="2.7"/>
			<rect x="147" y="253.3" class="st2" width="2.7" height="2.7"/>
			<rect x="147" y="257.9" class="st2" width="2.7" height="2.7"/>
			<rect x="147" y="262.5" class="st2" width="2.7" height="2.7"/>
			<rect x="147" y="267" class="st2" width="2.7" height="2.7"/>
			<rect x="147" y="285.4" class="st2" width="2.7" height="2.7"/>
			<rect x="151.3" y="193.5" class="st2" width="2.7" height="2.7"/>
			<rect x="151.3" y="198.1" class="st2" width="2.7" height="2.7"/>
			<rect x="151.3" y="202.7" class="st2" width="2.7" height="2.7"/>
			<rect x="151.3" y="207.3" class="st2" width="2.7" height="2.7"/>
			<rect x="151.3" y="211.9" class="st2" width="2.7" height="2.7"/>
			<rect x="151.3" y="216.5" class="st2" width="2.7" height="2.7"/>
			<rect x="151.3" y="221.1" class="st2" width="2.7" height="2.7"/>
			<rect x="151.3" y="225.7" class="st2" width="2.7" height="2.7"/>
			<rect x="151.3" y="230.3" class="st2" width="2.7" height="2.7"/>
			<rect x="151.3" y="234.9" class="st2" width="2.7" height="2.7"/>
			<rect x="151.3" y="248.7" class="st2" width="2.7" height="2.7"/>
			<rect x="151.3" y="253.3" class="st2" width="2.7" height="2.7"/>
			<rect x="151.3" y="257.9" class="st2" width="2.7" height="2.7"/>
			<rect x="151.3" y="262.5" class="st2" width="2.7" height="2.7"/>
			<rect x="151.3" y="267" class="st2" width="2.7" height="2.7"/>
			<rect x="151.3" y="285.4" class="st2" width="2.7" height="2.7"/>
			<rect x="155.7" y="193.5" class="st2" width="2.7" height="2.7"/>
			<rect x="155.7" y="198.1" class="st2" width="2.7" height="2.7"/>
			<rect x="155.7" y="202.7" class="st2" width="2.7" height="2.7"/>
			<rect x="155.7" y="207.3" class="st2" width="2.7" height="2.7"/>
			<rect x="155.7" y="211.9" class="st2" width="2.7" height="2.7"/>
			<rect x="155.7" y="216.5" class="st2" width="2.7" height="2.7"/>
			<rect x="155.7" y="221.1" class="st2" width="2.7" height="2.7"/>
			<rect x="155.7" y="225.7" class="st2" width="2.7" height="2.7"/>
			<rect x="155.7" y="230.3" class="st2" width="2.7" height="2.7"/>
			<rect x="155.7" y="234.9" class="st2" width="2.7" height="2.7"/>
			<rect x="155.7" y="239.5" class="st2" width="2.7" height="2.7"/>
			<rect x="155.7" y="244.1" class="st2" width="2.7" height="2.7"/>
			<rect x="155.7" y="248.7" class="st2" width="2.7" height="2.7"/>
			<rect x="155.7" y="253.3" class="st2" width="2.7" height="2.7"/>
			<rect x="155.7" y="257.9" class="st2" width="2.7" height="2.7"/>
			<rect x="155.7" y="262.5" class="st2" width="2.7" height="2.7"/>
			<rect x="155.7" y="267" class="st2" width="2.7" height="2.7"/>
			<rect x="155.7" y="271.6" class="st2" width="2.7" height="2.7"/>
			<rect x="160" y="193.5" class="st2" width="2.7" height="2.7"/>
			<rect x="160" y="198.1" class="st2" width="2.7" height="2.7"/>
			<rect x="160" y="202.7" class="st2" width="2.7" height="2.7"/>
			<rect x="160" y="207.3" class="st2" width="2.7" height="2.7"/>
			<rect x="160" y="211.9" class="st2" width="2.7" height="2.7"/>
			<rect x="160" y="216.5" class="st2" width="2.7" height="2.7"/>
			<rect x="160" y="221.1" class="st2" width="2.7" height="2.7"/>
			<rect x="160" y="225.7" class="st2" width="2.7" height="2.7"/>
			<rect x="160" y="230.3" class="st2" width="2.7" height="2.7"/>
			<rect x="160" y="234.9" class="st2" width="2.7" height="2.7"/>
			<rect x="160" y="248.7" class="st2" width="2.7" height="2.7"/>
			<rect x="160" y="253.3" class="st2" width="2.7" height="2.7"/>
			<rect x="160" y="257.9" class="st2" width="2.7" height="2.7"/>
			<rect x="160" y="262.5" class="st2" width="2.7" height="2.7"/>
			<rect x="164.4" y="193.5" class="st2" width="2.7" height="2.7"/>
			<rect x="164.4" y="198.1" class="st2" width="2.7" height="2.7"/>
			<rect x="164.4" y="202.7" class="st2" width="2.7" height="2.7"/>
			<rect x="164.4" y="207.3" class="st2" width="2.7" height="2.7"/>
			<rect x="164.4" y="211.9" class="st2" width="2.7" height="2.7"/>
			<rect x="164.4" y="216.5" class="st2" width="2.7" height="2.7"/>
			<rect x="164.4" y="221.1" class="st2" width="2.7" height="2.7"/>
			<rect x="164.4" y="225.7" class="st2" width="2.7" height="2.7"/>
			<rect x="164.4" y="230.3" class="st2" width="2.7" height="2.7"/>
			<rect x="164.4" y="234.9" class="st2" width="2.7" height="2.7"/>
			<rect x="164.4" y="248.7" class="st2" width="2.7" height="2.7"/>
			<rect x="164.4" y="253.3" class="st2" width="2.7" height="2.7"/>
			<rect x="164.4" y="257.9" class="st2" width="2.7" height="2.7"/>
			<rect x="213.5" y="181.5" class="st2" width="2.7" height="2.7"/>
			<rect x="213.5" y="186.1" class="st2" width="2.7" height="2.7"/>
			<rect x="213.5" y="190.7" class="st2" width="2.7" height="2.7"/>
			<rect x="213.5" y="195.3" class="st2" width="2.7" height="2.7"/>
			<rect x="213.5" y="199.9" class="st2" width="2.7" height="2.7"/>
			<rect x="213.5" y="204.5" class="st2" width="2.7" height="2.7"/>
			<rect x="213.5" y="209.1" class="st2" width="2.7" height="2.7"/>
			<rect x="213.5" y="213.7" class="st2" width="2.7" height="2.7"/>
			<rect x="213.5" y="227.5" class="st2" width="2.7" height="2.7"/>
			<rect x="213.5" y="232.1" class="st2" width="2.7" height="2.7"/>
			<rect x="217.8" y="181.5" class="st2" width="2.7" height="2.7"/>
			<rect x="217.8" y="186.1" class="st2" width="2.7" height="2.7"/>
			<rect x="217.8" y="190.7" class="st2" width="2.7" height="2.7"/>
			<rect x="217.8" y="195.3" class="st2" width="2.7" height="2.7"/>
			<rect x="217.8" y="199.9" class="st2" width="2.7" height="2.7"/>
			<rect x="217.8" y="204.5" class="st2" width="2.7" height="2.7"/>
			<rect x="217.8" y="209.1" class="st2" width="2.7" height="2.7"/>
			<rect x="217.8" y="213.7" class="st2" width="2.7" height="2.7"/>
			<rect x="217.8" y="232.1" class="st2" width="2.7" height="2.7"/>
			<rect x="222.2" y="181.5" class="st2" width="2.7" height="2.7"/>
			<rect x="222.2" y="186.1" class="st2" width="2.7" height="2.7"/>
			<rect x="222.2" y="190.7" class="st2" width="2.7" height="2.7"/>
			<rect x="222.2" y="195.3" class="st2" width="2.7" height="2.7"/>
			<rect x="222.2" y="199.9" class="st2" width="2.7" height="2.7"/>
			<rect x="222.2" y="204.5" class="st2" width="2.7" height="2.7"/>
			<rect x="222.2" y="209.1" class="st2" width="2.7" height="2.7"/>
			<rect x="222.2" y="213.7" class="st2" width="2.7" height="2.7"/>
			<rect x="226.5" y="181.5" class="st2" width="2.7" height="2.7"/>
			<rect x="226.5" y="186.1" class="st2" width="2.7" height="2.7"/>
			<rect x="226.5" y="190.7" class="st2" width="2.7" height="2.7"/>
			<rect x="226.5" y="195.3" class="st2" width="2.7" height="2.7"/>
			<rect x="226.5" y="199.9" class="st2" width="2.7" height="2.7"/>
			<rect x="226.5" y="204.5" class="st2" width="2.7" height="2.7"/>
			<rect x="226.5" y="213.7" class="st2" width="2.7" height="2.7"/>
			<rect x="226.5" y="218.3" class="st2" width="2.7" height="2.7"/>
			<rect x="226.5" y="232.1" class="st2" width="2.7" height="2.7"/>
			<rect x="226.5" y="236.7" class="st2" width="2.7" height="2.7"/>
			<rect x="226.5" y="241.3" class="st2" width="2.7" height="2.7"/>
			<rect x="226.5" y="245.9" class="st2" width="2.7" height="2.7"/>
			<rect x="226.5" y="250.5" class="st2" width="2.7" height="2.7"/>
			<rect x="226.5" y="255.1" class="st2" width="2.7" height="2.7"/>
			<rect x="226.5" y="259.7" class="st2" width="2.7" height="2.7"/>
			<rect x="230.9" y="181.5" class="st2" width="2.7" height="2.7"/>
			<rect x="230.9" y="186.1" class="st2" width="2.7" height="2.7"/>
			<rect x="230.9" y="190.7" class="st2" width="2.7" height="2.7"/>
			<rect x="230.9" y="195.3" class="st2" width="2.7" height="2.7"/>
			<rect x="230.9" y="199.9" class="st2" width="2.7" height="2.7"/>
			<rect x="230.9" y="204.5" class="st2" width="2.7" height="2.7"/>
			<rect x="230.9" y="218.3" class="st2" width="2.7" height="2.7"/>
			<rect x="230.9" y="222.9" class="st2" width="2.7" height="2.7"/>
			<rect x="230.9" y="227.5" class="st2" width="2.7" height="2.7"/>
			<rect x="230.9" y="232.1" class="st2" width="2.7" height="2.7"/>
			<rect x="230.9" y="236.7" class="st2" width="2.7" height="2.7"/>
			<rect x="230.9" y="241.3" class="st2" width="2.7" height="2.7"/>
			<rect x="230.9" y="245.9" class="st2" width="2.7" height="2.7"/>
			<rect x="230.9" y="250.5" class="st2" width="2.7" height="2.7"/>
			<rect x="230.9" y="255.1" class="st2" width="2.7" height="2.7"/>
			<rect x="230.9" y="259.7" class="st2" width="2.7" height="2.7"/>
			<rect x="230.9" y="264.3" class="st2" width="2.7" height="2.7"/>
			<rect x="230.9" y="273.5" class="st2" width="2.7" height="2.7"/>
			<rect x="235.2" y="181.5" class="st2" width="2.7" height="2.7"/>
			<rect x="235.2" y="186.1" class="st2" width="2.7" height="2.7"/>
			<rect x="235.2" y="190.7" class="st2" width="2.7" height="2.7"/>
			<rect x="235.2" y="195.3" class="st2" width="2.7" height="2.7"/>
			<rect x="235.2" y="199.9" class="st2" width="2.7" height="2.7"/>
			<rect x="235.2" y="204.5" class="st2" width="2.7" height="2.7"/>
			<rect x="235.2" y="218.3" class="st2" width="2.7" height="2.7"/>
			<rect x="235.2" y="222.9" class="st2" width="2.7" height="2.7"/>
			<rect x="235.2" y="227.5" class="st2" width="2.7" height="2.7"/>
			<rect x="235.2" y="232.1" class="st2" width="2.7" height="2.7"/>
			<rect x="235.2" y="245.9" class="st2" width="2.7" height="2.7"/>
			<rect x="235.2" y="250.5" class="st2" width="2.7" height="2.7"/>
			<rect x="235.2" y="255.1" class="st2" width="2.7" height="2.7"/>
			<rect x="235.2" y="259.7" class="st2" width="2.7" height="2.7"/>
			<rect x="235.2" y="264.3" class="st2" width="2.7" height="2.7"/>
			<rect x="235.2" y="273.5" class="st2" width="2.7" height="2.7"/>
			<rect x="235.2" y="278.1" class="st2" width="2.7" height="2.7"/>
			<rect x="274.8" y="224.3" class="st2" width="2.7" height="2.7"/>
			<rect x="274.8" y="228.9" class="st2" width="2.7" height="2.7"/>
			<rect x="274.8" y="233.5" class="st2" width="2.7" height="2.7"/>
			<rect x="274.8" y="238.1" class="st2" width="2.7" height="2.7"/>
			<rect x="274.8" y="242.7" class="st2" width="2.7" height="2.7"/>
			<rect x="274.8" y="247.3" class="st2" width="2.7" height="2.7"/>
			<rect x="274.8" y="251.9" class="st2" width="2.7" height="2.7"/>
			<rect x="274.8" y="265.7" class="st2" width="2.7" height="2.7"/>
			<rect x="274.8" y="270.3" class="st2" width="2.7" height="2.7"/>
			<rect x="274.8" y="274.9" class="st2" width="2.7" height="2.7"/>
			<rect x="279.1" y="224.3" class="st2" width="2.7" height="2.7"/>
			<rect x="279.1" y="228.9" class="st2" width="2.7" height="2.7"/>
			<rect x="279.1" y="233.5" class="st2" width="2.7" height="2.7"/>
			<rect x="279.1" y="238.1" class="st2" width="2.7" height="2.7"/>
			<rect x="279.1" y="242.7" class="st2" width="2.7" height="2.7"/>
			<rect x="279.1" y="247.3" class="st2" width="2.7" height="2.7"/>
			<rect x="279.1" y="251.9" class="st2" width="2.7" height="2.7"/>
			<rect x="283.5" y="224.3" class="st2" width="2.7" height="2.7"/>
			<rect x="283.5" y="228.9" class="st2" width="2.7" height="2.7"/>
			<rect x="283.5" y="233.5" class="st2" width="2.7" height="2.7"/>
			<rect x="283.5" y="238.1" class="st2" width="2.7" height="2.7"/>
			<rect x="283.5" y="242.7" class="st2" width="2.7" height="2.7"/>
			<rect x="283.5" y="247.3" class="st2" width="2.7" height="2.7"/>
			<rect x="283.5" y="251.9" class="st2" width="2.7" height="2.7"/>
			<rect x="287.9" y="224.3" class="st2" width="2.7" height="2.7"/>
			<rect x="287.9" y="228.9" class="st2" width="2.7" height="2.7"/>
			<rect x="287.9" y="233.5" class="st2" width="2.7" height="2.7"/>
			<rect x="287.9" y="238.1" class="st2" width="2.7" height="2.7"/>
			<rect x="287.9" y="242.7" class="st2" width="2.7" height="2.7"/>
			<rect x="287.9" y="247.3" class="st2" width="2.7" height="2.7"/>
			<rect x="287.9" y="251.9" class="st2" width="2.7" height="2.7"/>
			<rect x="287.9" y="256.5" class="st2" width="2.7" height="2.7"/>
			<rect x="287.9" y="261.1" class="st2" width="2.7" height="2.7"/>
			<rect x="287.9" y="265.7" class="st2" width="2.7" height="2.7"/>
			<rect x="287.9" y="270.3" class="st2" width="2.7" height="2.7"/>
			<rect x="292.2" y="224.3" class="st2" width="2.7" height="2.7"/>
			<rect x="292.2" y="228.9" class="st2" width="2.7" height="2.7"/>
			<rect x="292.2" y="233.5" class="st2" width="2.7" height="2.7"/>
			<rect x="292.2" y="238.1" class="st2" width="2.7" height="2.7"/>
			<rect x="292.2" y="242.7" class="st2" width="2.7" height="2.7"/>
			<rect x="292.2" y="247.3" class="st2" width="2.7" height="2.7"/>
			<rect x="292.2" y="251.9" class="st2" width="2.7" height="2.7"/>
			<rect x="292.2" y="256.5" class="st2" width="2.7" height="2.7"/>
			<rect x="292.2" y="261.1" class="st2" width="2.7" height="2.7"/>
			<rect x="292.2" y="265.7" class="st2" width="2.7" height="2.7"/>
			<rect x="292.2" y="270.3" class="st2" width="2.7" height="2.7"/>
			<rect x="292.2" y="274.9" class="st2" width="2.7" height="2.7"/>
			<rect x="292.2" y="288.7" class="st2" width="2.7" height="2.7"/>
			<rect x="292.2" y="293.3" class="st2" width="2.7" height="2.7"/>
			<rect x="296.6" y="224.3" class="st2" width="2.7" height="2.7"/>
			<rect x="296.6" y="228.9" class="st2" width="2.7" height="2.7"/>
			<rect x="296.6" y="233.5" class="st2" width="2.7" height="2.7"/>
			<rect x="296.6" y="247.3" class="st2" width="2.7" height="2.7"/>
			<rect x="296.6" y="251.9" class="st2" width="2.7" height="2.7"/>
			<rect x="296.6" y="256.5" class="st2" width="2.7" height="2.7"/>
			<rect x="296.6" y="261.1" class="st2" width="2.7" height="2.7"/>
			<rect x="296.6" y="265.7" class="st2" width="2.7" height="2.7"/>
			<rect x="296.6" y="270.3" class="st2" width="2.7" height="2.7"/>
			<rect x="296.6" y="274.9" class="st2" width="2.7" height="2.7"/>
			<rect x="296.6" y="288.7" class="st2" width="2.7" height="2.7"/>
			<rect x="296.6" y="293.3" class="st2" width="2.7" height="2.7"/>
			<rect x="296.6" y="297.9" class="st2" width="2.7" height="2.7"/>
			<rect x="342.2" y="196.7" class="st2" width="2.7" height="2.7"/>
			<rect x="342.2" y="201.3" class="st2" width="2.7" height="2.7"/>
			<rect x="342.2" y="205.9" class="st2" width="2.7" height="2.7"/>
			<rect x="342.2" y="210.5" class="st2" width="2.7" height="2.7"/>
			<rect x="342.2" y="215.1" class="st2" width="2.7" height="2.7"/>
			<rect x="342.2" y="219.7" class="st2" width="2.7" height="2.7"/>
			<rect x="342.2" y="224.3" class="st2" width="2.7" height="2.7"/>
			<rect x="342.2" y="228.9" class="st2" width="2.7" height="2.7"/>
			<rect x="342.2" y="233.5" class="st2" width="2.7" height="2.7"/>
			<rect x="342.2" y="238.1" class="st2" width="2.7" height="2.7"/>
			<rect x="342.2" y="242.7" class="st2" width="2.7" height="2.7"/>
			<rect x="342.2" y="247.3" class="st2" width="2.7" height="2.7"/>
			<rect x="342.2" y="251.9" class="st2" width="2.7" height="2.7"/>
			<rect x="342.2" y="256.5" class="st2" width="2.7" height="2.7"/>
			<rect x="342.2" y="261.1" class="st2" width="2.7" height="2.7"/>
			<rect x="342.2" y="265.7" class="st2" width="2.7" height="2.7"/>
			<rect x="342.2" y="270.3" class="st2" width="2.7" height="2.7"/>
			<rect x="342.2" y="274.9" class="st2" width="2.7" height="2.7"/>
			<rect x="342.2" y="279.5" class="st2" width="2.7" height="2.7"/>
			<rect x="342.2" y="284.1" class="st2" width="2.7" height="2.7"/>
			<rect x="342.2" y="288.7" class="st2" width="2.7" height="2.7"/>
			<rect x="342.2" y="293.3" class="st2" width="2.7" height="2.7"/>
			<rect x="342.2" y="297.9" class="st2" width="2.7" height="2.7"/>
			<rect x="346.6" y="196.7" class="st2" width="2.7" height="2.7"/>
			<rect x="346.6" y="201.3" class="st2" width="2.7" height="2.7"/>
			<rect x="346.6" y="205.9" class="st2" width="2.7" height="2.7"/>
			<rect x="346.6" y="210.5" class="st2" width="2.7" height="2.7"/>
			<rect x="346.6" y="215.1" class="st2" width="2.7" height="2.7"/>
			<rect x="346.6" y="219.7" class="st2" width="2.7" height="2.7"/>
			<rect x="346.6" y="224.3" class="st2" width="2.7" height="2.7"/>
			<rect x="346.6" y="228.9" class="st2" width="2.7" height="2.7"/>
			<rect x="346.6" y="233.5" class="st2" width="2.7" height="2.7"/>
			<rect x="346.6" y="238.1" class="st2" width="2.7" height="2.7"/>
			<rect x="346.6" y="242.7" class="st2" width="2.7" height="2.7"/>
			<rect x="346.6" y="247.3" class="st2" width="2.7" height="2.7"/>
			<rect x="346.6" y="251.9" class="st2" width="2.7" height="2.7"/>
			<rect x="346.6" y="256.5" class="st2" width="2.7" height="2.7"/>
			<rect x="346.6" y="261.1" class="st2" width="2.7" height="2.7"/>
			<rect x="346.6" y="265.7" class="st2" width="2.7" height="2.7"/>
			<rect x="346.6" y="270.3" class="st2" width="2.7" height="2.7"/>
			<rect x="346.6" y="274.9" class="st2" width="2.7" height="2.7"/>
			<rect x="346.6" y="279.5" class="st2" width="2.7" height="2.7"/>
			<rect x="351" y="196.7" class="st2" width="2.7" height="2.7"/>
			<rect x="351" y="201.3" class="st2" width="2.7" height="2.7"/>
			<rect x="351" y="205.9" class="st2" width="2.7" height="2.7"/>
			<rect x="351" y="210.5" class="st2" width="2.7" height="2.7"/>
			<rect x="351" y="215.1" class="st2" width="2.7" height="2.7"/>
			<rect x="351" y="219.7" class="st2" width="2.7" height="2.7"/>
			<rect x="351" y="224.3" class="st2" width="2.7" height="2.7"/>
			<rect x="351" y="228.9" class="st2" width="2.7" height="2.7"/>
			<rect x="351" y="233.5" class="st2" width="2.7" height="2.7"/>
			<rect x="351" y="238.1" class="st2" width="2.7" height="2.7"/>
			<rect x="351" y="242.7" class="st2" width="2.7" height="2.7"/>
			<rect x="351" y="247.3" class="st2" width="2.7" height="2.7"/>
			<rect x="351" y="251.9" class="st2" width="2.7" height="2.7"/>
			<rect x="351" y="256.5" class="st2" width="2.7" height="2.7"/>
			<rect x="351" y="261.1" class="st2" width="2.7" height="2.7"/>
			<rect x="351" y="265.7" class="st2" width="2.7" height="2.7"/>
			<rect x="351" y="270.3" class="st2" width="2.7" height="2.7"/>
			<rect x="351" y="274.9" class="st2" width="2.7" height="2.7"/>
			<rect x="351" y="279.5" class="st2" width="2.7" height="2.7"/>
			<rect x="355.3" y="196.7" class="st2" width="2.7" height="2.7"/>
			<rect x="355.3" y="201.3" class="st2" width="2.7" height="2.7"/>
			<rect x="355.3" y="205.9" class="st2" width="2.7" height="2.7"/>
			<rect x="355.3" y="210.5" class="st2" width="2.7" height="2.7"/>
			<rect x="355.3" y="215.1" class="st2" width="2.7" height="2.7"/>
			<rect x="355.3" y="219.7" class="st2" width="2.7" height="2.7"/>
			<rect x="355.3" y="224.3" class="st2" width="2.7" height="2.7"/>
			<rect x="355.3" y="228.9" class="st2" width="2.7" height="2.7"/>
			<rect x="355.3" y="233.5" class="st2" width="2.7" height="2.7"/>
			<rect x="355.3" y="238.1" class="st2" width="2.7" height="2.7"/>
			<rect x="355.3" y="242.7" class="st2" width="2.7" height="2.7"/>
			<rect x="355.3" y="247.3" class="st2" width="2.7" height="2.7"/>
			<rect x="355.3" y="251.9" class="st2" width="2.7" height="2.7"/>
			<rect x="355.3" y="256.5" class="st2" width="2.7" height="2.7"/>
			<rect x="355.3" y="261.1" class="st2" width="2.7" height="2.7"/>
			<rect x="359.7" y="196.7" class="st2" width="2.7" height="2.7"/>
			<rect x="359.7" y="201.3" class="st2" width="2.7" height="2.7"/>
			<rect x="359.7" y="205.9" class="st2" width="2.7" height="2.7"/>
			<rect x="359.7" y="210.5" class="st2" width="2.7" height="2.7"/>
			<rect x="359.7" y="215.1" class="st2" width="2.7" height="2.7"/>
			<rect x="359.7" y="219.7" class="st2" width="2.7" height="2.7"/>
			<rect x="359.7" y="224.3" class="st2" width="2.7" height="2.7"/>
			<rect x="359.7" y="228.9" class="st2" width="2.7" height="2.7"/>
			<rect x="359.7" y="233.5" class="st2" width="2.7" height="2.7"/>
			<rect x="359.7" y="238.1" class="st2" width="2.7" height="2.7"/>
			<rect x="359.7" y="242.7" class="st2" width="2.7" height="2.7"/>
			<rect x="359.7" y="247.3" class="st2" width="2.7" height="2.7"/>
			<rect x="359.7" y="251.9" class="st2" width="2.7" height="2.7"/>
			<rect x="364" y="196.7" class="st2" width="2.7" height="2.7"/>
			<rect x="364" y="201.3" class="st2" width="2.7" height="2.7"/>
			<rect x="364" y="205.9" class="st2" width="2.7" height="2.7"/>
			<rect x="364" y="210.5" class="st2" width="2.7" height="2.7"/>
			<rect x="364" y="215.1" class="st2" width="2.7" height="2.7"/>
			<rect x="364" y="219.7" class="st2" width="2.7" height="2.7"/>
			<rect x="364" y="224.3" class="st2" width="2.7" height="2.7"/>
			<rect x="364" y="228.9" class="st2" width="2.7" height="2.7"/>
			<rect x="364" y="233.5" class="st2" width="2.7" height="2.7"/>
			<rect x="364" y="238.1" class="st2" width="2.7" height="2.7"/>
			<rect x="364" y="242.7" class="st2" width="2.7" height="2.7"/>
			<rect x="364" y="247.3" class="st2" width="2.7" height="2.7"/>
			<rect x="43.8" y="230.3" class="st2" width="2.7" height="2.7"/>
			<rect x="43.8" y="234.9" class="st2" width="2.7" height="2.7"/>
			<rect x="43.8" y="239.5" class="st2" width="2.7" height="2.7"/>
			<rect x="43.8" y="244.1" class="st2" width="2.7" height="2.7"/>
			<rect x="43.8" y="248.7" class="st2" width="2.7" height="2.7"/>
			<rect x="43.8" y="253.3" class="st2" width="2.7" height="2.7"/>
			<rect x="43.8" y="257.9" class="st2" width="2.7" height="2.7"/>
			<rect x="43.8" y="262.5" class="st2" width="2.7" height="2.7"/>
			<rect x="43.8" y="267" class="st2" width="2.7" height="2.7"/>
			<rect x="43.8" y="271.6" class="st2" width="2.7" height="2.7"/>
			<rect x="43.8" y="276.2" class="st2" width="2.7" height="2.7"/>
			<rect x="43.8" y="280.8" class="st2" width="2.7" height="2.7"/>
			<rect x="43.8" y="285.4" class="st2" width="2.7" height="2.7"/>
			<path class="st2" d="M46.6,290v2.8h-1.7c-0.3-0.7-0.7-1.4-1-2.1V290H46.6z"/>
			<path class="st2" d="M46.6,294.6v1.6c-0.3-0.5-0.5-1.1-0.8-1.6H46.6z"/>
			<rect x="48.2" y="230.3" class="st2" width="2.7" height="2.7"/>
			<rect x="48.2" y="234.9" class="st2" width="2.7" height="2.7"/>
			<rect x="48.2" y="239.5" class="st2" width="2.7" height="2.7"/>
			<rect x="48.2" y="244.1" class="st2" width="2.7" height="2.7"/>
			<rect x="48.2" y="248.7" class="st2" width="2.7" height="2.7"/>
			<rect x="48.2" y="253.3" class="st2" width="2.7" height="2.7"/>
			<rect x="48.2" y="257.9" class="st2" width="2.7" height="2.7"/>
			<rect x="48.2" y="262.5" class="st2" width="2.7" height="2.7"/>
			<rect x="48.2" y="267" class="st2" width="2.7" height="2.7"/>
			<rect x="48.2" y="271.6" class="st2" width="2.7" height="2.7"/>
			<rect x="48.2" y="276.2" class="st2" width="2.7" height="2.7"/>
			<rect x="48.2" y="280.8" class="st2" width="2.7" height="2.7"/>
			<rect x="48.2" y="285.4" class="st2" width="2.7" height="2.7"/>
			<rect x="48.2" y="290" class="st2" width="2.7" height="2.7"/>
			<rect x="48.2" y="294.6" class="st2" width="2.7" height="2.7"/>
			<path class="st2" d="M50.9,299.2v2.8h-1.3c-0.5-0.9-1-1.8-1.4-2.6v-0.1H50.9z"/>
			<path class="st2" d="M50.9,303.8v0.5c0,0,0-0.1-0.1-0.1c-0.1-0.1-0.1-0.2-0.2-0.4H50.9z"/>
			<rect x="52.5" y="230.3" class="st2" width="2.7" height="2.7"/>
			<rect x="52.5" y="234.9" class="st2" width="2.7" height="2.7"/>
			<rect x="52.5" y="239.5" class="st2" width="2.7" height="2.7"/>
			<rect x="52.5" y="244.1" class="st2" width="2.7" height="2.7"/>
			<rect x="52.5" y="248.7" class="st2" width="2.7" height="2.7"/>
			<rect x="52.5" y="253.3" class="st2" width="2.7" height="2.7"/>
			<rect x="52.5" y="257.9" class="st2" width="2.7" height="2.7"/>
			<rect x="52.5" y="262.5" class="st2" width="2.7" height="2.7"/>
			<rect x="52.5" y="267" class="st2" width="2.7" height="2.7"/>
			<rect x="52.5" y="271.6" class="st2" width="2.7" height="2.7"/>
			<rect x="52.5" y="276.2" class="st2" width="2.7" height="2.7"/>
			<rect x="52.5" y="280.8" class="st2" width="2.7" height="2.7"/>
			<rect x="52.5" y="285.4" class="st2" width="2.7" height="2.7"/>
			<rect x="52.5" y="290" class="st2" width="2.7" height="2.7"/>
			<rect x="52.5" y="294.6" class="st2" width="2.7" height="2.7"/>
			<rect x="52.5" y="299.2" class="st2" width="2.7" height="2.7"/>
			<rect x="52.5" y="303.8" class="st2" width="2.7" height="2.7"/>
			<path class="st2" d="M55.3,308.4v2.8H55c-0.6-0.9-1.1-1.8-1.7-2.8H55.3z"/>
			<path class="st2" d="M34.6,263.8v2.7h-0.2c-0.3-0.9-0.6-1.8-0.8-2.7H34.6z"/>
			<rect x="36.2" y="263.8" class="st2" width="2.7" height="2.7"/>
			<rect x="36.2" y="268.4" class="st2" width="2.7" height="2.7"/>
			<path class="st2" d="M39,273v2.7h-1.4c-0.3-0.9-0.7-1.8-1-2.7H39z"/>
			<path class="st2" d="M39,277.6v1.8c-0.2-0.6-0.5-1.2-0.7-1.8H39z"/>
			<rect x="60.5" y="265.2" class="st2" width="2.7" height="2.7"/>
			<rect x="60.5" y="269.8" class="st2" width="2.7" height="2.7"/>
			<rect x="60.5" y="274.4" class="st2" width="2.7" height="2.7"/>
			<rect x="60.5" y="279" class="st2" width="2.7" height="2.7"/>
			<rect x="60.5" y="283.6" class="st2" width="2.7" height="2.7"/>
			<rect x="60.5" y="288.2" class="st2" width="2.7" height="2.7"/>
			<rect x="60.5" y="292.8" class="st2" width="2.7" height="2.7"/>
			<rect x="60.5" y="297.4" class="st2" width="2.7" height="2.7"/>
			<rect x="60.5" y="302" class="st2" width="2.7" height="2.7"/>
			<rect x="60.5" y="306.6" class="st2" width="2.7" height="2.7"/>
			<path class="st2" d="M63.2,320.4v2.7c-0.5-0.6-0.9-1.2-1.3-1.8c-0.2-0.3-0.4-0.6-0.6-0.9H63.2z"/>
			<rect x="64.8" y="265.2" class="st2" width="2.7" height="2.7"/>
			<rect x="64.8" y="269.8" class="st2" width="2.7" height="2.7"/>
			<rect x="64.8" y="274.4" class="st2" width="2.7" height="2.7"/>
			<rect x="64.8" y="279" class="st2" width="2.7" height="2.7"/>
			<rect x="64.8" y="283.6" class="st2" width="2.7" height="2.7"/>
			<rect x="64.8" y="288.2" class="st2" width="2.7" height="2.7"/>
			<rect x="64.8" y="292.8" class="st2" width="2.7" height="2.7"/>
			<rect x="64.8" y="297.4" class="st2" width="2.7" height="2.7"/>
			<rect x="64.8" y="302" class="st2" width="2.7" height="2.7"/>
			<rect x="64.8" y="315.8" class="st2" width="2.7" height="2.7"/>
			<rect x="64.8" y="320.4" class="st2" width="2.7" height="2.7"/>
			<rect x="69.2" y="265.2" class="st2" width="2.7" height="2.7"/>
			<rect x="69.2" y="269.8" class="st2" width="2.7" height="2.7"/>
			<rect x="69.2" y="274.4" class="st2" width="2.7" height="2.7"/>
			<rect x="69.2" y="279" class="st2" width="2.7" height="2.7"/>
			<rect x="69.2" y="283.6" class="st2" width="2.7" height="2.7"/>
			<rect x="69.2" y="288.2" class="st2" width="2.7" height="2.7"/>
			<rect x="69.2" y="292.8" class="st2" width="2.7" height="2.7"/>
			<rect x="69.2" y="297.4" class="st2" width="2.7" height="2.7"/>
			<rect x="69.2" y="311.2" class="st2" width="2.7" height="2.7"/>
			<rect x="69.2" y="315.8" class="st2" width="2.7" height="2.7"/>
			<rect x="69.2" y="320.4" class="st2" width="2.7" height="2.7"/>
			<rect x="109.7" y="195.3" class="st2" width="2.7" height="2.7"/>
			<rect x="109.7" y="199.9" class="st2" width="2.7" height="2.7"/>
			<rect x="109.7" y="204.5" class="st2" width="2.7" height="2.7"/>
			<rect x="109.7" y="209.1" class="st2" width="2.7" height="2.7"/>
			<rect x="109.7" y="213.7" class="st2" width="2.7" height="2.7"/>
			<rect x="109.7" y="218.3" class="st2" width="2.7" height="2.7"/>
			<rect x="109.7" y="222.9" class="st2" width="2.7" height="2.7"/>
			<rect x="109.7" y="227.5" class="st2" width="2.7" height="2.7"/>
			<rect x="109.7" y="232.1" class="st2" width="2.7" height="2.7"/>
			<rect x="109.7" y="236.7" class="st2" width="2.7" height="2.7"/>
			<rect x="109.7" y="241.3" class="st2" width="2.7" height="2.7"/>
			<rect x="109.7" y="245.9" class="st2" width="2.7" height="2.7"/>
			<rect x="109.7" y="250.5" class="st2" width="2.7" height="2.7"/>
			<rect x="109.7" y="255.1" class="st2" width="2.7" height="2.7"/>
			<rect x="109.7" y="259.7" class="st2" width="2.7" height="2.7"/>
			<rect x="109.7" y="264.3" class="st2" width="2.7" height="2.7"/>
			<rect x="109.7" y="268.9" class="st2" width="2.7" height="2.7"/>
			<rect x="109.7" y="278.1" class="st2" width="2.7" height="2.7"/>
			<rect x="109.7" y="282.7" class="st2" width="2.7" height="2.7"/>
			<rect x="109.7" y="287.3" class="st2" width="2.7" height="2.7"/>
			<rect x="109.7" y="291.9" class="st2" width="2.7" height="2.7"/>
			<rect x="109.7" y="296.5" class="st2" width="2.7" height="2.7"/>
			<rect x="114" y="195.3" class="st2" width="2.7" height="2.7"/>
			<rect x="114" y="199.9" class="st2" width="2.7" height="2.7"/>
			<rect x="114" y="204.5" class="st2" width="2.7" height="2.7"/>
			<rect x="114" y="209.1" class="st2" width="2.7" height="2.7"/>
			<rect x="114" y="213.7" class="st2" width="2.7" height="2.7"/>
			<rect x="114" y="218.3" class="st2" width="2.7" height="2.7"/>
			<rect x="114" y="222.9" class="st2" width="2.7" height="2.7"/>
			<rect x="114" y="227.5" class="st2" width="2.7" height="2.7"/>
			<rect x="114" y="232.1" class="st2" width="2.7" height="2.7"/>
			<rect x="114" y="236.7" class="st2" width="2.7" height="2.7"/>
			<rect x="114" y="241.3" class="st2" width="2.7" height="2.7"/>
			<rect x="114" y="245.9" class="st2" width="2.7" height="2.7"/>
			<rect x="114" y="250.5" class="st2" width="2.7" height="2.7"/>
			<rect x="114" y="255.1" class="st2" width="2.7" height="2.7"/>
			<rect x="114" y="259.7" class="st2" width="2.7" height="2.7"/>
			<rect x="114" y="264.3" class="st2" width="2.7" height="2.7"/>
			<rect x="114" y="291.9" class="st2" width="2.7" height="2.7"/>
			<rect x="114" y="296.5" class="st2" width="2.7" height="2.7"/>
			<rect x="118.4" y="195.3" class="st2" width="2.7" height="2.7"/>
			<rect x="118.4" y="199.9" class="st2" width="2.7" height="2.7"/>
			<rect x="118.4" y="204.5" class="st2" width="2.7" height="2.7"/>
			<rect x="118.4" y="209.1" class="st2" width="2.7" height="2.7"/>
			<rect x="118.4" y="213.7" class="st2" width="2.7" height="2.7"/>
			<rect x="118.4" y="218.3" class="st2" width="2.7" height="2.7"/>
			<rect x="118.4" y="222.9" class="st2" width="2.7" height="2.7"/>
			<rect x="118.4" y="227.5" class="st2" width="2.7" height="2.7"/>
			<rect x="118.4" y="232.1" class="st2" width="2.7" height="2.7"/>
			<rect x="118.4" y="236.7" class="st2" width="2.7" height="2.7"/>
			<rect x="118.4" y="241.3" class="st2" width="2.7" height="2.7"/>
			<rect x="118.4" y="245.9" class="st2" width="2.7" height="2.7"/>
			<rect x="118.4" y="250.5" class="st2" width="2.7" height="2.7"/>
			<rect x="118.4" y="255.1" class="st2" width="2.7" height="2.7"/>
			<rect x="118.4" y="259.7" class="st2" width="2.7" height="2.7"/>
			<rect x="118.4" y="264.3" class="st2" width="2.7" height="2.7"/>
			<rect x="118.4" y="273.5" class="st2" width="2.7" height="2.7"/>
			<rect x="118.4" y="278.1" class="st2" width="2.7" height="2.7"/>
			<rect x="118.4" y="282.7" class="st2" width="2.7" height="2.7"/>
			<rect x="118.4" y="287.3" class="st2" width="2.7" height="2.7"/>
			<rect x="118.4" y="296.5" class="st2" width="2.7" height="2.7"/>
			<rect x="93.9" y="253.3" class="st2" width="2.7" height="2.7"/>
			<rect x="93.9" y="257.9" class="st2" width="2.7" height="2.7"/>
			<rect x="93.9" y="262.5" class="st2" width="2.7" height="2.7"/>
			<rect x="93.9" y="267" class="st2" width="2.7" height="2.7"/>
			<rect x="93.9" y="271.6" class="st2" width="2.7" height="2.7"/>
			<rect x="93.9" y="276.2" class="st2" width="2.7" height="2.7"/>
			<rect x="93.9" y="280.8" class="st2" width="2.7" height="2.7"/>
			<rect x="93.9" y="290" class="st2" width="2.7" height="2.7"/>
			<rect x="93.9" y="294.6" class="st2" width="2.7" height="2.7"/>
			<rect x="93.9" y="299.2" class="st2" width="2.7" height="2.7"/>
			<rect x="93.9" y="303.8" class="st2" width="2.7" height="2.7"/>
			<rect x="93.9" y="308.4" class="st2" width="2.7" height="2.7"/>
			<rect x="93.9" y="313" class="st2" width="2.7" height="2.7"/>
			<rect x="93.9" y="317.6" class="st2" width="2.7" height="2.7"/>
			<rect x="93.9" y="322.2" class="st2" width="2.7" height="2.7"/>
			<rect x="98.2" y="253.3" class="st2" width="2.7" height="2.7"/>
			<rect x="98.2" y="257.9" class="st2" width="2.7" height="2.7"/>
			<rect x="98.2" y="262.5" class="st2" width="2.7" height="2.7"/>
			<rect x="98.2" y="267" class="st2" width="2.7" height="2.7"/>
			<rect x="98.2" y="271.6" class="st2" width="2.7" height="2.7"/>
			<rect x="98.2" y="276.2" class="st2" width="2.7" height="2.7"/>
			<rect x="98.2" y="290" class="st2" width="2.7" height="2.7"/>
			<rect x="98.2" y="294.6" class="st2" width="2.7" height="2.7"/>
			<rect x="98.2" y="299.2" class="st2" width="2.7" height="2.7"/>
			<rect x="98.2" y="303.8" class="st2" width="2.7" height="2.7"/>
			<rect x="98.2" y="308.4" class="st2" width="2.7" height="2.7"/>
			<rect x="98.2" y="313" class="st2" width="2.7" height="2.7"/>
			<rect x="98.2" y="317.6" class="st2" width="2.7" height="2.7"/>
			<rect x="98.2" y="322.2" class="st2" width="2.7" height="2.7"/>
			<rect x="102.6" y="253.3" class="st2" width="2.7" height="2.7"/>
			<rect x="102.6" y="257.9" class="st2" width="2.7" height="2.7"/>
			<rect x="102.6" y="262.5" class="st2" width="2.7" height="2.7"/>
			<rect x="102.6" y="267" class="st2" width="2.7" height="2.7"/>
			<rect x="102.6" y="271.6" class="st2" width="2.7" height="2.7"/>
			<rect x="102.6" y="276.2" class="st2" width="2.7" height="2.7"/>
			<rect x="102.6" y="285.4" class="st2" width="2.7" height="2.7"/>
			<rect x="102.6" y="290" class="st2" width="2.7" height="2.7"/>
			<rect x="102.6" y="294.6" class="st2" width="2.7" height="2.7"/>
			<rect x="102.6" y="299.2" class="st2" width="2.7" height="2.7"/>
			<rect x="102.6" y="303.8" class="st2" width="2.7" height="2.7"/>
			<rect x="102.6" y="308.4" class="st2" width="2.7" height="2.7"/>
			<rect x="102.6" y="313" class="st2" width="2.7" height="2.7"/>
			<rect x="102.6" y="317.6" class="st2" width="2.7" height="2.7"/>
			<rect x="102.6" y="322.2" class="st2" width="2.7" height="2.7"/>
			<rect x="194.4" y="227.5" class="st2" width="2.7" height="2.7"/>
			<rect x="194.4" y="232.1" class="st2" width="2.7" height="2.7"/>
			<rect x="194.4" y="236.7" class="st2" width="2.7" height="2.7"/>
			<rect x="194.4" y="241.3" class="st2" width="2.7" height="2.7"/>
			<rect x="194.4" y="245.9" class="st2" width="2.7" height="2.7"/>
			<rect x="194.4" y="250.5" class="st2" width="2.7" height="2.7"/>
			<rect x="194.4" y="255.1" class="st2" width="2.7" height="2.7"/>
			<rect x="194.4" y="259.7" class="st2" width="2.7" height="2.7"/>
			<rect x="194.4" y="264.3" class="st2" width="2.7" height="2.7"/>
			<rect x="194.4" y="268.9" class="st2" width="2.7" height="2.7"/>
			<rect x="194.4" y="273.5" class="st2" width="2.7" height="2.7"/>
			<rect x="194.4" y="278.1" class="st2" width="2.7" height="2.7"/>
			<rect x="194.4" y="282.7" class="st2" width="2.7" height="2.7"/>
			<rect x="194.4" y="291.9" class="st2" width="2.7" height="2.7"/>
			<rect x="194.4" y="296.5" class="st2" width="2.7" height="2.7"/>
			<rect x="194.4" y="301.1" class="st2" width="2.7" height="2.7"/>
			<rect x="194.4" y="305.7" class="st2" width="2.7" height="2.7"/>
			<rect x="194.4" y="314.9" class="st2" width="2.7" height="2.7"/>
			<rect x="194.4" y="319.5" class="st2" width="2.7" height="2.7"/>
			<rect x="194.4" y="324.1" class="st2" width="2.7" height="2.7"/>
			<rect x="198.8" y="227.5" class="st2" width="2.7" height="2.7"/>
			<rect x="198.8" y="232.1" class="st2" width="2.7" height="2.7"/>
			<rect x="198.8" y="236.7" class="st2" width="2.7" height="2.7"/>
			<rect x="198.8" y="241.3" class="st2" width="2.7" height="2.7"/>
			<rect x="198.8" y="245.9" class="st2" width="2.7" height="2.7"/>
			<rect x="198.8" y="250.5" class="st2" width="2.7" height="2.7"/>
			<rect x="198.8" y="255.1" class="st2" width="2.7" height="2.7"/>
			<rect x="198.8" y="259.7" class="st2" width="2.7" height="2.7"/>
			<rect x="198.8" y="264.3" class="st2" width="2.7" height="2.7"/>
			<rect x="198.8" y="268.9" class="st2" width="2.7" height="2.7"/>
			<rect x="198.8" y="273.5" class="st2" width="2.7" height="2.7"/>
			<rect x="198.8" y="278.1" class="st2" width="2.7" height="2.7"/>
			<rect x="198.8" y="282.7" class="st2" width="2.7" height="2.7"/>
			<rect x="198.8" y="296.5" class="st2" width="2.7" height="2.7"/>
			<rect x="198.8" y="301.1" class="st2" width="2.7" height="2.7"/>
			<rect x="198.8" y="310.3" class="st2" width="2.7" height="2.7"/>
			<rect x="198.8" y="314.9" class="st2" width="2.7" height="2.7"/>
			<rect x="198.8" y="319.5" class="st2" width="2.7" height="2.7"/>
			<rect x="198.8" y="324.1" class="st2" width="2.7" height="2.7"/>
			<rect x="203.1" y="227.5" class="st2" width="2.7" height="2.7"/>
			<rect x="203.1" y="232.1" class="st2" width="2.7" height="2.7"/>
			<rect x="203.1" y="236.7" class="st2" width="2.7" height="2.7"/>
			<rect x="203.1" y="241.3" class="st2" width="2.7" height="2.7"/>
			<rect x="203.1" y="245.9" class="st2" width="2.7" height="2.7"/>
			<rect x="203.1" y="250.5" class="st2" width="2.7" height="2.7"/>
			<rect x="203.1" y="255.1" class="st2" width="2.7" height="2.7"/>
			<rect x="203.1" y="259.7" class="st2" width="2.7" height="2.7"/>
			<rect x="203.1" y="264.3" class="st2" width="2.7" height="2.7"/>
			<rect x="203.1" y="268.9" class="st2" width="2.7" height="2.7"/>
			<rect x="203.1" y="273.5" class="st2" width="2.7" height="2.7"/>
			<rect x="203.1" y="278.1" class="st2" width="2.7" height="2.7"/>
			<rect x="203.1" y="282.7" class="st2" width="2.7" height="2.7"/>
			<rect x="203.1" y="287.3" class="st2" width="2.7" height="2.7"/>
			<rect x="203.1" y="296.5" class="st2" width="2.7" height="2.7"/>
			<rect x="203.1" y="305.7" class="st2" width="2.7" height="2.7"/>
			<rect x="203.1" y="310.3" class="st2" width="2.7" height="2.7"/>
			<rect x="203.1" y="314.9" class="st2" width="2.7" height="2.7"/>
			<rect x="203.1" y="319.5" class="st2" width="2.7" height="2.7"/>
			<rect x="203.1" y="324.1" class="st2" width="2.7" height="2.7"/>
			<rect x="176.7" y="253.7" class="st2" width="2.7" height="2.7"/>
			<rect x="176.7" y="258.3" class="st2" width="2.7" height="2.7"/>
			<rect x="176.7" y="262.9" class="st2" width="2.7" height="2.7"/>
			<rect x="176.7" y="267.5" class="st2" width="2.7" height="2.7"/>
			<rect x="176.7" y="272.1" class="st2" width="2.7" height="2.7"/>
			<rect x="176.7" y="276.7" class="st2" width="2.7" height="2.7"/>
			<rect x="176.7" y="290.5" class="st2" width="2.7" height="2.7"/>
			<rect x="176.7" y="295.1" class="st2" width="2.7" height="2.7"/>
			<rect x="176.7" y="299.7" class="st2" width="2.7" height="2.7"/>
			<rect x="176.7" y="304.3" class="st2" width="2.7" height="2.7"/>
			<rect x="176.7" y="308.9" class="st2" width="2.7" height="2.7"/>
			<rect x="176.7" y="313.5" class="st2" width="2.7" height="2.7"/>
			<rect x="176.7" y="318.1" class="st2" width="2.7" height="2.7"/>
			<rect x="181" y="253.7" class="st2" width="2.7" height="2.7"/>
			<rect x="181" y="258.3" class="st2" width="2.7" height="2.7"/>
			<rect x="181" y="262.9" class="st2" width="2.7" height="2.7"/>
			<rect x="181" y="267.5" class="st2" width="2.7" height="2.7"/>
			<rect x="181" y="272.1" class="st2" width="2.7" height="2.7"/>
			<rect x="181" y="276.7" class="st2" width="2.7" height="2.7"/>
			<rect x="181" y="290.5" class="st2" width="2.7" height="2.7"/>
			<rect x="181" y="295.1" class="st2" width="2.7" height="2.7"/>
			<rect x="181" y="299.7" class="st2" width="2.7" height="2.7"/>
			<rect x="181" y="304.3" class="st2" width="2.7" height="2.7"/>
			<rect x="181" y="308.9" class="st2" width="2.7" height="2.7"/>
			<rect x="181" y="313.5" class="st2" width="2.7" height="2.7"/>
			<rect x="181" y="322.7" class="st2" width="2.7" height="2.7"/>
			<rect x="325.8" y="233.5" class="st2" width="2.7" height="2.7"/>
			<rect x="325.8" y="238.1" class="st2" width="2.7" height="2.7"/>
			<rect x="325.8" y="242.7" class="st2" width="2.7" height="2.7"/>
			<rect x="325.8" y="247.3" class="st2" width="2.7" height="2.7"/>
			<rect x="325.8" y="251.9" class="st2" width="2.7" height="2.7"/>
			<rect x="325.8" y="256.5" class="st2" width="2.7" height="2.7"/>
			<rect x="325.8" y="261.1" class="st2" width="2.7" height="2.7"/>
			<rect x="325.8" y="265.7" class="st2" width="2.7" height="2.7"/>
			<rect x="325.8" y="270.3" class="st2" width="2.7" height="2.7"/>
			<rect x="325.8" y="274.9" class="st2" width="2.7" height="2.7"/>
			<rect x="325.8" y="279.5" class="st2" width="2.7" height="2.7"/>
			<rect x="325.8" y="288.7" class="st2" width="2.7" height="2.7"/>
			<rect x="325.8" y="293.3" class="st2" width="2.7" height="2.7"/>
			<rect x="325.8" y="297.9" class="st2" width="2.7" height="2.7"/>
			<rect x="325.8" y="302.5" class="st2" width="2.7" height="2.7"/>
			<rect x="325.8" y="307.1" class="st2" width="2.7" height="2.7"/>
			<rect x="325.8" y="311.7" class="st2" width="2.7" height="2.7"/>
			<rect x="325.8" y="316.3" class="st2" width="2.7" height="2.7"/>
			<rect x="325.8" y="320.9" class="st2" width="2.7" height="2.7"/>
			<rect x="330.1" y="233.5" class="st2" width="2.7" height="2.7"/>
			<rect x="330.1" y="238.1" class="st2" width="2.7" height="2.7"/>
			<rect x="330.1" y="242.7" class="st2" width="2.7" height="2.7"/>
			<rect x="330.1" y="247.3" class="st2" width="2.7" height="2.7"/>
			<rect x="330.1" y="251.9" class="st2" width="2.7" height="2.7"/>
			<rect x="330.1" y="256.5" class="st2" width="2.7" height="2.7"/>
			<rect x="330.1" y="261.1" class="st2" width="2.7" height="2.7"/>
			<rect x="330.1" y="265.7" class="st2" width="2.7" height="2.7"/>
			<rect x="330.1" y="270.3" class="st2" width="2.7" height="2.7"/>
			<rect x="330.1" y="274.9" class="st2" width="2.7" height="2.7"/>
			<rect x="330.1" y="279.5" class="st2" width="2.7" height="2.7"/>
			<rect x="330.1" y="284.1" class="st2" width="2.7" height="2.7"/>
			<rect x="330.1" y="288.7" class="st2" width="2.7" height="2.7"/>
			<rect x="330.1" y="293.3" class="st2" width="2.7" height="2.7"/>
			<rect x="330.1" y="297.9" class="st2" width="2.7" height="2.7"/>
			<rect x="330.1" y="302.5" class="st2" width="2.7" height="2.7"/>
			<rect x="330.1" y="307.1" class="st2" width="2.7" height="2.7"/>
			<rect x="330.1" y="311.7" class="st2" width="2.7" height="2.7"/>
			<rect x="330.1" y="316.3" class="st2" width="2.7" height="2.7"/>
			<rect x="330.1" y="320.9" class="st2" width="2.7" height="2.7"/>
			<rect x="304.3" y="251.4" class="st2" width="2.7" height="2.7"/>
			<rect x="304.3" y="256" class="st2" width="2.7" height="2.7"/>
			<rect x="304.3" y="260.6" class="st2" width="2.7" height="2.7"/>
			<rect x="304.3" y="265.2" class="st2" width="2.7" height="2.7"/>
			<rect x="304.3" y="269.8" class="st2" width="2.7" height="2.7"/>
			<rect x="304.3" y="274.4" class="st2" width="2.7" height="2.7"/>
			<rect x="304.3" y="279" class="st2" width="2.7" height="2.7"/>
			<rect x="304.3" y="283.6" class="st2" width="2.7" height="2.7"/>
			<rect x="304.3" y="288.2" class="st2" width="2.7" height="2.7"/>
			<rect x="304.3" y="292.8" class="st2" width="2.7" height="2.7"/>
			<rect x="308.7" y="251.4" class="st2" width="2.7" height="2.7"/>
			<rect x="308.7" y="256" class="st2" width="2.7" height="2.7"/>
			<rect x="308.7" y="260.6" class="st2" width="2.7" height="2.7"/>
			<rect x="308.7" y="265.2" class="st2" width="2.7" height="2.7"/>
			<rect x="308.7" y="269.8" class="st2" width="2.7" height="2.7"/>
			<rect x="308.7" y="274.4" class="st2" width="2.7" height="2.7"/>
			<rect x="308.7" y="279" class="st2" width="2.7" height="2.7"/>
			<rect x="308.7" y="283.6" class="st2" width="2.7" height="2.7"/>
			<rect x="308.7" y="288.2" class="st2" width="2.7" height="2.7"/>
		</g>
	</g>
	<path class="st3" d="M157.3,102.8c0-4.3-3.5-7.8-7.8-7.8c-0.8,0-1.5,0.1-2.2,0.3c0.1-0.8,0.2-1.6,0.2-2.4c0-9.1-7.4-16.5-16.5-16.5
		c-1,0-2.1,0.1-3,0.3c-2.5-4.2-7.1-6.9-12.3-6.9c-7.9,0-14.3,6.4-14.5,14.2c-0.1,0-0.2,0-0.2,0c-7.4,0-13.3,6-13.3,13.3
		c0,7.4,6,13.3,13.3,13.3h48.9l0,0C153.9,110.4,157.3,107,157.3,102.8z"/>
	<path class="st3" d="M299.8,92.1c0-2.8-2.2-5-5-5c-0.5,0-1,0.1-1.4,0.2c0.1-0.5,0.1-1,0.1-1.5c0-5.8-4.7-10.6-10.6-10.6
		c-0.7,0-1.3,0.1-1.9,0.2c-1.6-2.7-4.5-4.4-7.9-4.4c-5.1,0-9.2,4.1-9.2,9.1c-0.1,0-0.1,0-0.2,0c-4.7,0-8.5,3.8-8.5,8.5
		c0,4.7,3.8,8.5,8.5,8.5H295l0,0C297.7,97,299.8,94.8,299.8,92.1z"/>
	<path class="st3" d="M208.1,132c0-1.7-1.4-3.1-3.1-3.1c-0.3,0-0.6,0-0.9,0.1c0-0.3,0.1-0.6,0.1-0.9c0-3.6-2.9-6.5-6.5-6.5
		c-0.4,0-0.8,0-1.2,0.1c-1-1.6-2.8-2.7-4.8-2.7c-3.1,0-5.6,2.5-5.7,5.6c0,0-0.1,0-0.1,0c-2.9,0-5.2,2.3-5.2,5.2
		c0,2.9,2.3,5.2,5.2,5.2h19.1l0,0C206.7,135,208.1,133.7,208.1,132z"/>
	<path class="st3" d="M70.7,151.4c0-1.7-1.4-3.1-3.1-3.1c-0.3,0-0.6,0-0.9,0.1c0-0.3,0.1-0.6,0.1-0.9c0-3.6-2.9-6.5-6.5-6.5
		c-0.4,0-0.8,0-1.2,0.1c-1-1.6-2.8-2.7-4.8-2.7c-3.1,0-5.6,2.5-5.7,5.6c0,0-0.1,0-0.1,0c-2.9,0-5.2,2.3-5.2,5.2
		c0,2.9,2.3,5.2,5.2,5.2h19.1l0,0C69.3,154.4,70.7,153,70.7,151.4z"/>
	<path class="st4" d="M160.1,321.3c-0.1,0.7-0.4,1.5-0.7,2.2c-0.7,1.7-4.9,2.8-11.2,3.5c-5.6,0.6-13,0.8-21.3,0.8
		c-6.1,0-12.7-0.1-19.5-0.3c-6.8-0.2-13.7-0.5-20.4-0.9c-6.9-0.3-13.5-0.8-19.5-1.2c-1-0.1-1.9-0.1-2.9-0.2
		c-0.5-0.7-1.1-1.4-1.6-2.1c-0.5-0.6-0.9-1.2-1.3-1.8c-0.2-0.3-0.4-0.6-0.6-0.9c-2.1-3-4.2-6.1-6.2-9.2c-0.6-0.9-1.1-1.8-1.7-2.8
		c-0.8-1.4-1.6-2.7-2.4-4.1c0,0,0-0.1-0.1-0.1c0,0,0,0,0.1,0c1-0.7,1.9-1.4,2.7-2.2c0.6-0.6,1.2-1.2,1.7-1.8c2.3-2.9,3.4-6.3,3.3-10
		c-0.1-2.2,0.6-4.4,1.9-6.2c0.1-0.1,0.2-0.2,0.3-0.4c0.5-0.7,1.1-1.3,1.8-1.9c0.2-0.2,0.5-0.4,0.7-0.5c0.5-0.3,1-0.6,1.6-0.9
		c0.9-0.4,1.8-0.6,2.7-0.6c0.5,0,1.1,0,1.6,0.1c0.9,0.2,1.8,0.5,2.7,1.1c0.6,0.4,1.3,0.9,1.9,1.5c2.8,2.9,4.2,2.4,5.6,0.7
		c0.5-0.6,1-1.4,1.6-2.3c0.7-1.1,1.5-2.3,2.6-3.5c0.8-0.9,1.7-1.7,2.9-2.4c0.6-0.4,1.3-0.7,2-0.9c1.9-0.6,3.8-0.8,5.5-0.6
		c1,0.1,1.9,0.3,2.7,0.7c1.2,0.5,2.3,1.1,3.2,2c0.4,0.4,0.8,0.8,1.1,1.2c1.7,2.2,2.3,4.9,1.4,7.6c-0.7,2-0.5,3.7,0.6,5
		c0.6,0.8,1.4,1.4,2.4,1.9c1.2,0.5,2.7,0.8,4.4,0.8c0.9,0,1.8-0.1,2.7-0.3c0.5-0.1,1.1-0.2,1.6-0.3c0.3-0.1,0.6-0.2,0.8-0.3
		c1.4-0.4,2.8-1,4.2-1.8c0.1,0,0.1-0.1,0.2-0.1c0.6-0.3,1.3-0.6,1.9-0.8c9.8-3.4,19.8,6,17.7,13.4c-2.2,8-0.4,8.9,6.2,6.2
		C151.2,306.4,161.8,312.6,160.1,321.3z"/>
	<path class="st4" d="M263.7,324.8c-4.4-4.4-0.4-12,4-12.8c4.4-0.9,8.9-8.7,9.1-13.6c0.2-5,8.2-20.2,20.6-10.8
		c12.4,9.4,8.6,1.4,17.6-1.3c9-2.6,14.6,5,10.7,10.7c0,0,9-2.3,12.7,6.2c3.7,8.4,0,13.6,0,13.6s16.9-0.5,15.4,10
		S263.7,324.8,263.7,324.8z"/>
	<g>
		<path class="st4" d="M368.7,325.1v2c-2.4,3.1-4.9,6.1-7.5,9c-0.3,0.3-0.6,0.6-0.9,1c-0.1,0.1-0.1,0.1-0.2,0.2H74.7
			c0-0.1-0.1-0.1-0.2-0.2c-0.3-0.3-0.6-0.6-0.9-1c-2.1-2.3-4.1-4.7-6-7.2c-1-1.2-1.9-2.4-2.9-3.7c-0.5-0.7-1.1-1.4-1.6-2.1
			c-0.5-0.6-0.9-1.2-1.3-1.8h303.3C367.2,321.3,368.7,323,368.7,325.1z"/>
		<g>
			<path class="st5" d="M67.6,321.3v7.6c-1-1.2-1.9-2.4-2.9-3.7c-0.5-0.7-1.1-1.4-1.6-2.1c-0.5-0.6-0.9-1.2-1.3-1.8H67.6z"/>
			<rect x="87.1" y="321.3" class="st5" width="20.4" height="15.9"/>
			<rect x="127" y="321.3" class="st5" width="21.2" height="15.9"/>
			<rect x="167.7" y="321.3" class="st5" width="20.4" height="15.9"/>
			<rect x="207.5" y="321.3" class="st5" width="20.4" height="15.9"/>
			<rect x="247.4" y="321.3" class="st5" width="21.2" height="15.9"/>
			<rect x="288.1" y="321.3" class="st5" width="20.4" height="15.9"/>
			<rect x="327.9" y="321.3" class="st5" width="21.2" height="15.9"/>
		</g>
	</g>
</g>
<path class="st5" d="M333.8,361.6c-7.5,5.8-15.5,11-23.9,15.6c-30.6,1.4-68.8,2.2-110.3,2.2c-25.7,0-50.2-0.3-72.4-0.9
	c-0.9-0.5-1.8-1-2.7-1.5c-2.3-1.3-4.6-2.6-6.9-4c-3.6-2.2-7-4.5-10.4-6.8c-2.9-2-5.7-4.1-8.4-6.3c28.8-1.1,63.5-1.8,100.8-1.8
	c7.6,0,15.1,0,22.5,0.1c0.2,0,0.4,0,0.6,0c0.4,0,0.7,0,1.1,0c0.2,0,0.3,0,0.5,0c0.9,0,1.8,0,2.7,0c2.2,0,4.3,0,6.5,0.1
	c16.8,0.2,32.9,0.5,47.7,0.9c0.3,0,0.6,0,0.9,0c0.4,0,0.7,0,1.1,0c0.2,0,0.4,0,0.6,0c0,0,0.1,0,0.1,0c4.2,0.1,8.3,0.3,12.3,0.4
	C310.2,360.3,322.8,360.9,333.8,361.6z"/>
<g>
	<g>
		<path class="st7" d="M244.4,223.2c-0.7-0.1-18.5,3.1-21.8,1.9c-0.1,0-0.2-0.1-0.3-0.1c-2.4-1.5,3.6-42.1,3.6-42.1l16.2-3
			c0,0,0.1,1.1,0.2,2.9C242.9,192.6,245,223.4,244.4,223.2z"/>
		<path class="st8" d="M227.1,183.6c0,0,1.8,1,3.1,1c1.3,0,9.1-2,9.1-2l-3.8-1L227.1,183.6z"/>
		<path class="st9" d="M244.4,223.2c-0.7-0.1-18.5,3.1-21.8,1.9c1.7-0.2,3.6-0.5,4.6-1.1c0,0,4.2-30.7,11.1-39.9
			c1.1-1.5,2.5-1.9,4-1.3C242.9,192.6,245,223.4,244.4,223.2z"/>
	</g>
	<g>
		<path class="st10" d="M234.7,151.9c-3.9,2-10.2,22.6-11.9,22.8c-1.7,0.2-6.9-13-6.9-13l-3.7,1.6c0,0,3.3,15.5,8.5,18.1
			c5.2,2.6,16.3-14.5,16.3-14.5L234.7,151.9z"/>
		<path class="st11" d="M237,166.9c0,0-4,6.1-8.2,10.5c-2.9,2.9-5.9,5.1-8,4c-5.2-2.6-8.5-18.1-8.5-18.1l3.7-1.6
			c0,0,5.2,13.2,6.9,13c1.7-0.2,8-20.8,11.9-22.8l1.5,9.9L237,166.9z"/>
		<path class="st9" d="M237,166.9c0,0-4,6.1-8.2,10.5c-0.2-8.4,7.5-15.5,7.5-15.5L237,166.9z"/>
	</g>
	<path class="st7" d="M255.1,114.8c3.3,4.4,8.5-2,12.7,12.2c4.2,14.2,7.3,18.9,14.6,19c7.2,0,15.6,11-3.3,16.7
		c-18.9,5.7-30.5,1.8-38-7.1c-7.5-8.9-9.9-21-8.6-30.8C233.7,115,247.5,104.8,255.1,114.8z"/>
	<path class="st12" d="M257.2,241.3c1.2,3.3,2.4,6.6,3.4,9.8c5.2,16.5,7.9,36.1,7.9,36.1c13.9,28.2,23.7,70.5,23.7,70.5l-5.2,1.7
		L253.2,284l-10.1-25.9L257.2,241.3z"/>
	<path class="st7" d="M292.4,353.7c-0.3-0.6-7.6,3.5-7.6,3.5s-2.3,7-6.3,10.2c-4,3.3-0.2,4.7,4.9,2.3c5-2.4,8.9-4.3,12.5-6.1
		C299.4,362,295.6,360,292.4,353.7z"/>
	<g>
		<path class="st10" d="M284.4,358.4C284.4,358.4,284.4,358.4,284.4,358.4C284.4,358.4,284.4,358.3,284.4,358.4
			C284.4,358.3,284.4,358.3,284.4,358.4c-0.2-0.2-1.6-1.6-2.8-1.5c-0.4,0-0.7,0.2-1,0.5c-0.3,0.3-0.3,0.6-0.2,0.9
			c0.2,0.4,0.9,0.5,1.7,0.6c-0.3,0.1-0.7,0.3-1,0.5c-0.3,0.2-0.5,0.4-0.6,0.5c-0.2,0.2-0.2,0.5-0.2,0.7c0.1,0.5,0.4,0.7,0.6,0.7
			c0.2,0.1,0.5,0,0.8-0.1c0.7-0.3,1.5-1.2,2.1-1.8c0.1-0.1,0.2-0.2,0.3-0.3c0.1-0.2,0.3-0.3,0.3-0.4c0,0,0,0,0-0.1
			C284.5,358.5,284.5,358.5,284.4,358.4C284.5,358.4,284.5,358.4,284.4,358.4z M280.8,358c-0.1-0.1,0.1-0.3,0.1-0.4
			c0.1-0.1,0.2-0.2,0.3-0.3c0.1,0,0.2-0.1,0.3-0.1c0.7,0,1.6,0.6,2.1,1C282.4,358.4,281,358.4,280.8,358z M281.1,360.8
			c0,0-0.2,0-0.3-0.4c0-0.1,0-0.3,0.1-0.4c0.2-0.2,0.5-0.4,0.8-0.6c0.1-0.1,0.3-0.1,0.4-0.2c0.5-0.2,1.1-0.4,1.5-0.5
			c-0.1,0.2-0.3,0.3-0.4,0.5C282.4,360.2,281.5,360.9,281.1,360.8z"/>
	</g>
	<path class="st10" d="M234.7,241.1c1.9,11.8,4.9,20.9,8.1,28.4c4.2,9.8,8.8,16.9,12.2,24.3c6,13.1,21.4,44.3,21.4,44.3l10.3-7.8
		c0,0-16.5-39.7-17.6-47.5c-0.7-5-1.4-32.2-1.8-50.7c-0.2-10.1-0.3-17.6-0.3-17.6L237.4,191C237.4,191,230.3,213.8,234.7,241.1z"/>
	<path class="st9" d="M242.7,269.4c4.2,9.8,8.8,16.9,12.2,24.3c6,13.1,21.4,44.3,21.4,44.3l10.3-7.8c0,0-16.5-39.7-17.6-47.5
		c-0.7-5-1.4-32.2-1.8-50.7l-8.7-18.3l-11.3,4.5l3.7,14.2L242.7,269.4z"/>
	<path class="st12" d="M253.5,299.5c-7.8,29.6-22.4,64.7-22.4,64.7l-5.1-2l14.8-62.7H253.5z"/>
	<path class="st7" d="M233.8,361.3c0.1-0.7-8.1-2.1-8.1-2.1s-6.3,3.9-11.4,3.8c-5.2,0-3.1,3.5,2.3,4.9c5.4,1.3,9.6,2.3,13.5,3.3
		C233.9,372.1,232.3,368.2,233.8,361.3z"/>
	<g>
		<path class="st10" d="M224.4,358.2c-0.2-0.5-0.5-1.1-0.9-1.4c-0.3-0.2-0.7-0.3-1.1-0.2c-0.4,0.1-0.6,0.3-0.7,0.6
			c-0.1,0.3,0.2,0.7,0.5,1c0.1,0.2,0.3,0.3,0.5,0.5c-0.7-0.2-1.4-0.4-1.9-0.3c-0.3,0.1-0.5,0.2-0.6,0.4c-0.3,0.5-0.1,0.8,0,0.9
			c0.1,0.2,0.4,0.3,0.7,0.4c0.9,0.2,2.3,0,3.1-0.1h0c0.2,0,0.4-0.1,0.5-0.1c0,0,0.1,0,0.1,0c0,0,0,0,0.1,0c0,0,0,0,0-0.1
			c0,0,0-0.1,0-0.1c0,0,0,0,0,0C224.7,359.6,224.6,358.9,224.4,358.2z M220.6,359.6c0,0-0.1-0.2,0.1-0.5c0-0.1,0.2-0.2,0.3-0.2
			c0.3-0.1,0.6,0,1,0.1c0.6,0.2,1.4,0.5,1.9,0.7C222.5,359.9,220.9,360,220.6,359.6z M222.8,358.2c-0.4-0.4-0.7-0.8-0.7-1
			c0-0.1,0.2-0.2,0.3-0.2c0.1,0,0.3,0,0.4,0c0.1,0,0.2,0.1,0.3,0.1c0.3,0.2,0.5,0.6,0.7,1c0.1,0.4,0.2,0.8,0.3,1.1
			C223.7,359,223.2,358.6,222.8,358.2z"/>
	</g>
	<path class="st10" d="M268.6,187.8c0,0,11.4,24.1,7.4,46.9c-4,22.7-16.2,51.9-19.5,59c-3.3,7.1-15.6,49-15.6,49l-10.6-3.5
		c0,0,9.5-41.6,12.5-56.1c1.4-6.8,13.5-55.6,13.5-55.6s-20.7-15.4-19.2-39.4L268.6,187.8z"/>
	<g>
		<g>
			<polygon points="257.3,193.3 240.8,193.5 240.6,188.6 257.1,188.7 			"/>
			<polygon points="239.1,188.5 239.3,193.5 237.6,193.6 237.2,188.5 			"/>
			<polygon points="258.6,188.7 267.3,188.8 267.7,193.1 258.7,193.3 			"/>
		</g>
		
			<rect x="244.4" y="188.9" transform="matrix(-1 6.267946e-04 -6.267946e-04 -1 495.4225 382.5527)" class="st13" width="6.4" height="4.9"/>
	</g>
	<path class="st14" d="M252.1,116.7c0,0-3.1-6.6-10.4-4.1c-7.3,2.4-15.5,16.2-10,29.3"/>
	<path class="st14" d="M268.7,134.1c2.6,6.6,6.3,10.1,13,10.1c6.7,0,8.8-2.2,8.8-2.2"/>
	<g>
		<path class="st7" d="M272.6,149.8c0,0-20.8-4.6-37.9,2.1c0,0-1.2,18.1,2.5,36.7l31.7,0.2c0,0-1.7-8.6,5.3-25.4L272.6,149.8z"/>
		<path class="st15" d="M272.6,149.8c0,0-20.8-4.6-37.9,2.1c0,0-1.2,18.1,2.5,36.7l31.7,0.2c0,0-1.7-8.6,5.3-25.4L272.6,149.8z"/>
	</g>
	<g>
		<path class="st12" d="M249.4,154.7c7.3-1.8,9.2-5.2,9.2-5.2c-3.4-2.5-3.3-6.8-2.8-9.5c0.3-1.5,0.6-2.5,0.6-2.5l-8.7,2.7
			c0.4,1.4,0.6,2.7,0.8,3.7c0.1,1.1,0.2,2.1,0.1,2.8c-0.3,2.7-1.8,2.9-1.8,2.9C245.4,152.7,249.4,154.7,249.4,154.7z"/>
		<path class="st9" d="M248.4,143.8c0.1,1.1,0.2,2.1,0.1,2.8c3.5-0.9,5.8-4,7.2-6.7c0.3-1.5,0.6-2.5,0.6-2.5l-8.7,2.7
			C248,141.6,248.3,142.8,248.4,143.8z"/>
	</g>
	<g>
		<path class="st12" d="M245.8,117.4c-7.7,1.1-9.6,5.6-9,13.7c0.7,10.1,4,16.8,13.3,13.3C262.8,139.5,258.6,115.5,245.8,117.4z"/>
		<path class="st16" d="M241.7,129.9c0,0-0.8,2.2-1.8,3.5c0,0,0.8,1,2.2,0.6L241.7,129.9z"/>
		<g>
			<path class="st7" d="M246.3,128.6c0.1,0.6,0.5,1.1,0.9,1.1c0.4-0.1,0.7-0.6,0.6-1.2c-0.1-0.6-0.5-1.1-0.9-1.1
				C246.5,127.4,246.2,127.9,246.3,128.6z"/>
			<path class="st7" d="M247.1,127.3l-1.5-0.4C245.7,126.9,246.5,128,247.1,127.3z"/>
		</g>
		<g>
			<path class="st7" d="M238.4,129.4c0.1,0.6,0.5,1.1,0.9,1.1c0.4-0.1,0.7-0.6,0.6-1.2c-0.1-0.6-0.5-1.1-0.9-1.1
				C238.6,128.2,238.3,128.7,238.4,129.4z"/>
			<path class="st7" d="M239.2,128.1l-1.5-0.4C237.7,127.8,238.6,128.8,239.2,128.1z"/>
		</g>
		<path class="st14" d="M245.6,123.2c0,0,2.1-0.6,3.5,0.7"/>
		<path class="st14" d="M240,123.7c0,0-1.4-0.3-3,1.1"/>
		<path class="st7" d="M256.1,129.2c0,0-4.5-5.8-4.7-10.8c0,0-16.2-4-14.7,11.6c0,0-3.5-13.6,9.7-15.8c13.2-2.2,16,17.2,10,24
			C256.4,138.2,258.9,132.8,256.1,129.2z"/>
		<path class="st12" d="M255.1,131c-0.1-1.3,0.9-3.5,3.2-3.6c2.4-0.1,4.3,4.7-1.5,6.7C256,134.4,255.4,133.6,255.1,131z"/>
		<path class="st14" d="M243.7,138c0,0,3.3,0.3,4.3-2.8"/>
	</g>
	<g>
		<path class="st10" d="M263.1,148.2c0,0-6.8,16.4-6.8,21.7c0,5.3,17,37,20.5,38.4c3.5,1.5,7-1.5,7-1.5s-11.6-29.7-11.4-32.6
			c0.2-3,3-12.4,3-14.7c0-2.4-1.2-9.8-1.2-9.8L263.1,148.2z"/>
		<path class="st11" d="M283.8,206.9c0,0-3.5,3-7,1.5c-3.5-1.5-20.5-33.1-20.5-38.4c0-5.3,6.8-21.7,6.8-21.7l11.1,1.5
			c0,0,1.2,7.4,1.2,9.8c0,1.1-0.6,3.9-1.3,6.7c-0.7,3.1-1.5,6.4-1.7,8c-0.1,1,1.2,5,2.9,9.9C278.7,193.8,283.8,206.9,283.8,206.9z"
			/>
	</g>
	<g>
		<path class="st10" d="M242.7,149.1c0,0,1.4,17.8,1,21.4c-0.4,3.7-9,33.3-9,33.3v-16.1c0,0-2.9-25.5,0-36L242.7,149.1z"/>
		<path class="st11" d="M242.7,149.1c0,0,1.4,17.8,1,21.4c-0.4,3.7-9,33.3-9,33.3v-16.1c0,0-2.9-25.5,0-36L242.7,149.1z"/>
	</g>
	<path class="st9" d="M271.3,161.8l0-0.8c0,0,1.2,2.2,2.8,5.3c-0.7,3.1-1.5,6.4-1.7,8c-0.1,1,1.2,5,2.9,9.9
		C268.9,176.5,271.3,161.8,271.3,161.8z"/>
	<g>
		<g>
			<path class="st10" d="M311,263.3c0-0.9-0.1-1.8-0.1-2.7c0-0.1,0-0.3,0-0.4c0-0.5-0.1-1-0.1-1.4c-0.1-0.9-0.2-1.8-0.3-2.7
				c0-0.3-0.1-0.6-0.1-0.9c0-0.3-0.1-0.6-0.1-0.9v0c0,0,0,0,0,0c-0.1-0.8-0.2-1.5-0.3-2.3c0-0.1,0-0.3,0-0.4c0-0.1,0-0.2,0-0.3
				c0-0.4-0.1-0.7-0.2-1.1c0-0.3-0.1-0.6-0.1-0.9c-0.1-0.6-0.2-1.2-0.3-1.9c-0.1-0.9-0.3-1.9-0.5-2.8c0-0.3-0.1-0.6-0.2-1
				c-0.1-0.6-0.2-1.2-0.3-1.8c-0.1-0.4-0.1-0.7-0.2-1c-0.2-1-0.4-1.9-0.5-2.9c-0.2-0.8-0.3-1.7-0.5-2.5c-0.1-0.5-0.2-1-0.3-1.6
				c-0.1-0.4-0.2-0.9-0.3-1.3c-0.1-0.5-0.2-1-0.3-1.4c-0.2-0.9-0.4-1.7-0.6-2.6c0-0.2-0.1-0.4-0.1-0.6c-0.2-0.7-0.3-1.4-0.5-2
				c0,0,0,0,0-0.1c0-0.1,0-0.2-0.1-0.3v0c0-0.2-0.1-0.4-0.1-0.6c-0.1-0.3-0.2-0.6-0.2-0.9c0,0,0-0.1,0-0.1c-0.2-0.8-0.4-1.5-0.6-2.3
				v0c-0.1-0.3-0.2-0.6-0.3-0.9c0,0,0,0,0-0.1v0c0,0,0,0,0,0c-0.1-0.2-0.1-0.4-0.2-0.6c0-0.1-0.1-0.3-0.1-0.4c0-0.1-0.1-0.3-0.1-0.4
				c-0.1-0.2-0.1-0.5-0.2-0.7c-0.1-0.2-0.1-0.4-0.2-0.6c-0.2-0.4-0.3-0.8-0.4-1.2v0c0,0,0,0,0,0c-0.1-0.4-0.3-0.8-0.4-1.1
				c0-0.1-0.1-0.2-0.1-0.3c0,0,0,0,0,0c-0.2-0.4-0.3-0.8-0.5-1.1c-0.1-0.1-0.1-0.2-0.2-0.3c-0.1-0.1-0.1-0.2-0.2-0.3
				c-0.1-0.1-0.1-0.2-0.2-0.3s-0.1-0.2-0.2-0.3c-0.1-0.1-0.1-0.2-0.2-0.2c0-0.1-0.1-0.1-0.1-0.1c0,0,0,0,0,0c0,0,0,0,0,0
				c-0.1-0.1-0.3-0.2-0.4-0.3c0,0,0,0-0.1-0.1c-0.4-0.3-0.8-0.6-1.2-0.8h0c-0.2-0.1-0.4-0.2-0.5-0.3c0,0,0,0,0,0h0c0,0,0,0,0,0
				c-1-0.5-2-0.8-2.8-0.9c-1.8-0.3-3,0.1-3,0.1l0.8,0.1c-0.2,0-0.5,0-0.7,0.1c-0.1,0-0.2,0-0.2,0.1c-0.4,0.1-0.8,0.3-1.2,0.6h0
				c0,0,0,0,0,0c-0.2,0.2-0.5,0.4-0.7,0.6c-0.7,0.7-1.5,1.5-2.2,2.5c-0.2,0.3-0.4,0.5-0.5,0.8c-0.4,0.6-0.8,1.2-1.2,1.9
				c-0.2,0.3-0.3,0.5-0.5,0.8c-0.2,0.3-0.4,0.7-0.5,1c-0.1,0.2-0.2,0.4-0.3,0.5c-0.2,0.4-0.4,0.8-0.6,1.2c-0.1,0.3-0.2,0.5-0.3,0.8
				c-0.6,1.2-1.1,2.4-1.6,3.7c-0.1,0.2-0.1,0.3-0.2,0.5c-0.2,0.5-0.4,0.9-0.5,1.4c0,0.1-0.1,0.2-0.1,0.3c-0.1,0.3-0.2,0.6-0.3,0.9
				l-0.3,0.9c-0.3,0.9-0.6,1.8-0.9,2.8c-0.2,0.6-0.4,1.2-0.5,1.9c0,0,0,0.1,0,0.1c-0.2,0.8-0.4,1.6-0.6,2.4
				c-0.1,0.4-0.2,0.8-0.3,1.2c-0.2,0.9-0.4,1.8-0.5,2.7c-0.1,0.3-0.1,0.6-0.2,1c-0.1,0.6-0.2,1.2-0.4,1.9c-0.2,0.9-0.4,1.9-0.6,2.8
				c-0.1,0.6-0.3,1.3-0.4,1.8c-0.2,1-0.4,1.9-0.6,2.8c-0.1,0.6-0.3,1.3-0.4,1.8c-0.2,1-0.4,1.9-0.5,2.8c-0.6,4.5-0.4,8.1,2,11.1
				c0.2,0.3,0.4,0.5,0.7,0.8c0.6,0.6,1.4,1.3,2.3,1.9c0.6,0.4,1.2,0.8,1.9,1.1c0,0,0,0,0,0c0.3,0.2,0.7,0.3,1,0.5
				c0.2,0.1,0.4,0.2,0.5,0.3c0,0,0,0,0,0c0,0,0,0,0.1,0c0.1,0,0.1,0.1,0.2,0.1c0,0,0,0,0,0c0.3,0.2,0.7,0.3,1,0.5
				c0.4,0.2,0.7,0.3,1.1,0.4c0.4,0.1,0.8,0.3,1.1,0.4c0.3,0.1,0.7,0.2,1,0.3c0.6,0.2,1.1,0.3,1.7,0.5c0.3,0.1,0.7,0.2,1,0.3
				c0.4,0.1,0.8,0.2,1.2,0.3c0.2,0,0.3,0.1,0.5,0.1c0,0,0.1,0,0.1,0c0,0,0,0,0,0c0.5,0.1,1,0.2,1.6,0.3c0.5,0.1,1,0.2,1.6,0.2
				c0.3,0,0.6,0.1,0.9,0.1c0.3,0,0.6,0.1,0.9,0.1c0.6,0.1,1.2,0.1,1.8,0.1c0.4,0,0.9,0,1.3,0c0.2,0,0.4,0,0.6,0c0.2,0,0.4,0,0.6,0
				c0.4,0,0.8,0,1.2-0.1c0.3,0,0.7-0.1,1-0.1c0.2,0,0.5-0.1,0.7-0.1c0.3-0.1,0.7-0.1,1-0.2c0.2,0,0.4-0.1,0.5-0.1
				c0.2,0,0.3-0.1,0.5-0.1c0.1,0,0.1,0,0.2-0.1c0.1,0,0.3-0.1,0.4-0.2c0,0,0.1,0,0.1,0c0.1,0,0.2-0.1,0.3-0.1
				c0.2-0.1,0.5-0.2,0.7-0.3c0,0,0.1-0.1,0.2-0.1c0.1-0.1,0.2-0.1,0.3-0.2c0,0,0,0,0,0c0.1-0.1,0.2-0.2,0.3-0.2
				c0.1,0,0.1-0.1,0.2-0.1c0.1-0.1,0.3-0.2,0.4-0.3c0.1-0.1,0.1-0.1,0.2-0.2c0.1-0.1,0.2-0.2,0.3-0.3c0.1-0.1,0.2-0.3,0.3-0.4
				c0.1-0.2,0.2-0.4,0.3-0.6c0,0,0,0,0,0c0-0.1,0.1-0.2,0.1-0.4c0.1-0.2,0.1-0.5,0.2-0.8c0-0.1,0-0.2,0-0.3c0-0.1,0-0.3,0-0.4
				c0.1-0.6,0.1-1.2,0.1-1.9c0-0.3,0-0.6,0-0.9C311.1,264.6,311,264,311,263.3z M295.1,210.6c0.4,0,0.8,0,1.2,0.1
				c0.2,0.1,0.4,0.1,0.6,0.3c0.3,0.1,0.6,0.3,0.8,0.6c0.2,0.2,0.4,0.4,0.6,0.6c0.3,0.4,0.7,0.9,0.9,1.4c0.5,0.9,0.9,1.9,1.3,2.9
				c0.5,1.5,1,3,1,4.4v0c0,0.4,0,0.7,0,1c-0.1,0.4-0.2,0.8-0.3,1.2c-0.1,0.1-0.1,0.3-0.2,0.4c0,0.1-0.1,0.1-0.1,0.2
				c-0.2,0.4-0.5,0.7-0.9,0.9c-0.2,0.2-0.5,0.3-0.7,0.5c-0.1,0.1-0.2,0.1-0.4,0.2c-0.6,0.3-1.4,0.5-2.3,0.6c-0.1,0-0.1,0-0.1,0
				c-0.5,0.1-0.9,0.2-1.4,0.2c-0.1,0-0.2,0-0.2,0c-0.4,0.1-0.7,0.1-1.1,0.2c-0.6,0.1-1.2,0.2-1.7,0.2c-0.5,0-0.9,0.1-1.3,0.1h-0.3
				c-1.3,0-2.3-0.4-2.7-1.3c-0.1-0.2-0.2-0.5-0.3-0.8v0c-0.1-0.5-0.1-1.1-0.1-1.8c0-0.2,0-0.3,0-0.5c0.4-3.2,1.8-6.4,3.3-8.5
				c0.5-0.7,0.9-1.3,1.3-1.7c0.2-0.3,0.5-0.4,0.7-0.6c0.6-0.4,1.2-0.7,1.8-0.8c0.1,0,0.2,0,0.3-0.1
				C294.9,210.6,295,210.6,295.1,210.6z"/>
			<path class="st11" d="M311,263.3c0-0.9-0.1-1.8-0.1-2.7c0-0.1,0-0.3,0-0.4c0-0.5-0.1-1-0.1-1.4c-0.1-0.9-0.2-1.8-0.3-2.7
				c0-0.3-0.1-0.6-0.1-0.9c0-0.3-0.1-0.6-0.1-0.9c0,0,0,0,0,0c0,0,0,0,0,0c-0.1-0.8-0.2-1.5-0.3-2.3c0-0.1,0-0.3-0.1-0.4
				c0-0.1,0-0.2,0-0.3c0-0.4-0.1-0.7-0.2-1.1c0-0.3-0.1-0.6-0.1-0.9c-0.1-0.6-0.2-1.2-0.3-1.9c-0.1-0.9-0.3-1.9-0.5-2.8
				c0-0.3-0.1-0.6-0.2-1c-0.1-0.6-0.2-1.2-0.3-1.8c-0.1-0.4-0.1-0.7-0.2-1c-0.2-1-0.4-1.9-0.5-2.9c-0.2-0.8-0.3-1.7-0.5-2.5
				c-0.1-0.5-0.2-1-0.3-1.6c-0.1-0.4-0.2-0.9-0.3-1.3c-0.1-0.5-0.2-1-0.3-1.4c-0.2-0.9-0.4-1.7-0.6-2.6c0-0.2-0.1-0.4-0.1-0.6
				c-0.2-0.7-0.3-1.4-0.5-2c0,0,0,0,0-0.1c0-0.1,0-0.2-0.1-0.3v0c0-0.2-0.1-0.4-0.1-0.6c-0.1-0.3-0.2-0.6-0.2-0.9c0,0,0-0.1,0-0.1
				c-0.2-0.8-0.4-1.5-0.6-2.3v0c-0.1-0.3-0.2-0.6-0.3-0.9c0,0,0,0,0-0.1v0c0,0,0,0,0,0c-0.1-0.2-0.1-0.4-0.2-0.6
				c0-0.1-0.1-0.3-0.1-0.4c0-0.1-0.1-0.3-0.1-0.4c-0.1-0.2-0.1-0.4-0.2-0.7c-0.1-0.2-0.1-0.4-0.2-0.6c-0.1-0.4-0.3-0.8-0.4-1.2v0
				c0,0,0,0,0,0v0c-0.1-0.4-0.3-0.7-0.4-1c0-0.1-0.1-0.2-0.1-0.3c-0.2-0.4-0.3-0.8-0.5-1.1c-0.1-0.1-0.1-0.2-0.2-0.3
				c-0.1-0.1-0.1-0.2-0.2-0.3c-0.1-0.1-0.1-0.2-0.2-0.3s-0.1-0.2-0.2-0.3c-0.1-0.1-0.1-0.2-0.2-0.2c0-0.1-0.1-0.1-0.1-0.1
				c0,0,0,0,0,0c0,0,0,0,0,0c-0.1-0.1-0.3-0.2-0.4-0.3c0,0,0,0-0.1-0.1c-0.4-0.3-0.8-0.6-1.2-0.8h0c-0.2-0.1-0.4-0.2-0.5-0.3
				c0,0,0,0,0,0h0c0,0,0,0,0,0c-1-0.5-2-0.8-2.8-0.9c-1.8-0.3-3,0.1-3,0.1l1,0.1h-0.2c-0.2,0-0.5,0-0.7,0.1c-0.1,0-0.2,0-0.2,0.1
				c-0.4,0.1-0.8,0.3-1.2,0.6h0c0,0,0,0,0,0c-0.2,0.2-0.5,0.4-0.7,0.6c-0.7,0.7-1.5,1.5-2.2,2.5c-0.2,0.3-0.4,0.5-0.5,0.8
				c-0.4,0.6-0.8,1.2-1.2,1.9c-0.2,0.3-0.3,0.5-0.5,0.8c-0.2,0.3-0.4,0.7-0.5,1c-0.1,0.2-0.2,0.4-0.3,0.5c-0.2,0.4-0.4,0.8-0.6,1.2
				c-0.1,0.3-0.2,0.5-0.3,0.8c-0.6,1.2-1.1,2.4-1.6,3.7c-0.1,0.2-0.1,0.3-0.2,0.5c-0.2,0.4-0.4,0.9-0.5,1.3c0,0.1-0.1,0.2-0.1,0.3h0
				c-0.1,0.3-0.2,0.6-0.3,0.9l-0.3,0.9c-0.3,0.9-0.6,1.8-0.9,2.8c-0.2,0.6-0.4,1.2-0.5,1.9c0,0,0,0.1,0,0.1
				c-0.2,0.8-0.4,1.6-0.6,2.4c-0.1,0.4-0.2,0.8-0.3,1.2c-0.2,0.9-0.4,1.8-0.5,2.7c-0.1,0.3-0.1,0.6-0.2,1c-0.1,0.6-0.2,1.2-0.4,1.9
				c-0.2,0.9-0.4,1.9-0.6,2.8c-0.1,0.6-0.3,1.3-0.4,1.8c-0.2,1-0.4,1.9-0.6,2.8c-0.1,0.6-0.3,1.3-0.4,1.8c-0.2,1-0.4,1.9-0.5,2.8
				c-0.6,4.5-0.4,8.1,2,11.1c0.2,0.3,0.4,0.5,0.7,0.8c0.6,0.6,1.4,1.3,2.3,1.9c0.6,0.4,1.2,0.8,1.9,1.1c0,0,0,0,0,0
				c0.3,0.2,0.7,0.3,1,0.5c0.2,0.1,0.4,0.2,0.5,0.3c0,0,0,0,0,0c0,0,0,0,0.1,0c0.1,0,0.1,0.1,0.2,0.1c0,0,0,0,0,0
				c0.3,0.2,0.7,0.3,1,0.5c0.4,0.2,0.7,0.3,1.1,0.4c0.4,0.1,0.8,0.3,1.1,0.4c0.3,0.1,0.7,0.2,1,0.3c0.6,0.2,1.1,0.3,1.7,0.5
				c0.3,0.1,0.7,0.2,1,0.3v0c0.4,0.1,0.8,0.2,1.2,0.3c0.2,0,0.3,0.1,0.5,0.1c0,0,0.1,0,0.1,0c0,0,0,0,0,0c0.5,0.1,1,0.2,1.6,0.3
				c0.5,0.1,1,0.2,1.6,0.2c0.3,0,0.6,0.1,0.9,0.1c0.3,0,0.6,0.1,0.9,0.1c0.6,0.1,1.2,0.1,1.8,0.1c0.4,0,0.9,0,1.3,0
				c0.2,0,0.4,0,0.6,0c0.2,0,0.4,0,0.6,0c0.4,0,0.8,0,1.2-0.1c0.3,0,0.7-0.1,1-0.1c0.2,0,0.5-0.1,0.7-0.1c0.3-0.1,0.7-0.1,1-0.2
				c0.2,0,0.4-0.1,0.5-0.1c0.2,0,0.3-0.1,0.5-0.1c0.1,0,0.1,0,0.2-0.1c0.1,0,0.3-0.1,0.4-0.2c0,0,0.1,0,0.1,0c0.1,0,0.2-0.1,0.3-0.1
				c0.2-0.1,0.5-0.2,0.7-0.3c0,0,0.1-0.1,0.2-0.1c0.1-0.1,0.2-0.1,0.3-0.2c0,0,0,0,0,0c0.1-0.1,0.2-0.2,0.3-0.2
				c0.1,0,0.1-0.1,0.2-0.1c0.1-0.1,0.3-0.2,0.4-0.3c0.1-0.1,0.1-0.1,0.2-0.2c0.1-0.1,0.2-0.2,0.3-0.3c0.1-0.1,0.2-0.3,0.3-0.4
				c0.1-0.2,0.2-0.4,0.3-0.6c0,0,0,0,0,0c0-0.1,0.1-0.2,0.1-0.4c0.1-0.2,0.1-0.5,0.2-0.8c0-0.1,0-0.2,0-0.3c0-0.1,0-0.3,0-0.4
				c0.1-0.6,0.1-1.2,0.1-1.9c0-0.3,0-0.6,0-0.9C311.1,264.6,311,264,311,263.3z M295.1,210.6c0.4,0,0.8,0,1.2,0.1
				c0.2,0.1,0.4,0.1,0.6,0.3c0.3,0.1,0.6,0.3,0.8,0.6c0.2,0.2,0.4,0.4,0.6,0.6c0.3,0.4,0.7,0.9,0.9,1.4c0.5,0.9,0.9,1.9,1.3,2.9
				c0.5,1.5,1,3,1,4.4v0c0,0.4,0,0.7,0,1c-0.1,0.4-0.2,0.8-0.3,1.2c-0.1,0.1-0.1,0.3-0.2,0.4c0,0.1-0.1,0.1-0.1,0.2
				c-0.2,0.4-0.5,0.7-0.9,0.9c-0.2,0.2-0.5,0.3-0.7,0.5c-0.1,0.1-0.2,0.1-0.4,0.2c-0.6,0.3-1.4,0.5-2.3,0.6c-0.1,0-0.1,0-0.1,0
				c-0.5,0.1-0.9,0.2-1.4,0.2c-0.1,0-0.2,0-0.2,0c-0.4,0.1-0.7,0.1-1.1,0.2c-0.6,0.1-1.2,0.2-1.7,0.2c-0.5,0-0.9,0.1-1.3,0.1h-0.3
				c-1.3,0-2.3-0.4-2.7-1.3c-0.1-0.2-0.2-0.5-0.3-0.8v0c-0.1-0.5-0.1-1.1-0.1-1.8c0-0.2,0-0.3,0-0.5c0.4-3.2,1.8-6.4,3.3-8.5
				c0.5-0.7,0.9-1.3,1.3-1.7c0.2-0.3,0.5-0.4,0.7-0.6c0.6-0.4,1.2-0.7,1.8-0.8c0.1,0,0.2,0,0.3-0.1
				C294.9,210.6,295,210.6,295.1,210.6z"/>
			<path class="st9" d="M310.3,270.4c-3.2,5.7-19.3,3.9-28.6-1c-1.7-3.2-2.6-6.5-3-9.2c-1.1-8.1,5.4-37.7,5.4-37.7
				s14.3,8.5,23.6,15.2C310.4,251.8,312.1,267.2,310.3,270.4z"/>
		</g>
		<path class="st10" d="M307.2,220.7c-0.3-0.7-0.7-1.4-1.1-2.1c-0.1-0.2-0.2-0.3-0.3-0.5c-0.3-0.6-0.7-1.1-1.1-1.7
			c-0.6-0.8-1.2-1.5-2-2.2c-0.8-0.7-1.6-1.4-2.5-1.9c0,0,0,0,0,0c0,0,0,0,0,0c-0.3-0.2-0.5-0.3-0.8-0.5c-0.2-0.1-0.5-0.2-0.7-0.3
			c-0.5-0.2-1.1-0.5-1.7-0.6c-0.5-0.1-1-0.2-1.6-0.3c-0.1,0-0.2,0-0.3,0c-0.1,0-0.2,0-0.3,0c-1.6-0.1-2.9,0-4.1,0.4h0
			c-0.3,0.1-0.6,0.2-0.9,0.4c-3,1.4-4.4,4.5-5.2,7.8c-0.3,1.1-0.4,2.2-0.6,3.3h0c0,0,0,0,0,0v0c0,0,0,0,0,0c0,0,0,0,0,0.1
			c0,0,0,0.1,0,0.2v0c0,0.2,0,0.4-0.1,0.7c0,0.2,0,0.4-0.1,0.7c0,0.1,0,0.1,0,0.2c-0.1,1.1,0.5,1.9,1.6,2.6c1.7,1,4.7,1.6,7.9,1.8
			c0.2,0,0.3,0,0.5,0c0.2,0,0.5,0,0.7,0h0c0.1,0,0.2,0,0.4,0c0.5,0,1.1,0,1.6,0c0.3,0,0.6,0,1,0c0.6,0,1.2,0,1.7,0h0.1
			c0.1,0,0.3,0,0.5,0c0.2,0,0.3,0,0.5,0c0.2,0,0.4,0,0.7,0c1.3-0.1,2.5-0.2,3.5-0.3c0.5-0.1,0.9-0.1,1.3-0.2c1-0.2,1.7-0.4,2.1-0.6
			C308.9,227.2,308.7,224.1,307.2,220.7z M296.5,211.6c0.6,0.1,1.3,0.4,1.9,0.6c0.2,0.1,0.4,0.2,0.6,0.3c1.1,0.6,2,1.5,2.8,2.5
			c0,0,0,0,0,0c0.2,0.3,0.4,0.6,0.6,0.9c0.5,0.8,0.9,1.7,1.1,2.6v0c0.1,0.6,0.2,1.3,0.2,1.9c0,0,0,0,0,0v0c-0.1,1.3-1,2.2-2.5,3
			c-0.1,0-0.1,0-0.2,0.1c0,0-0.1,0-0.1,0c-0.1,0.1-0.3,0.1-0.4,0.2c-0.5,0.2-1,0.4-1.5,0.5c0,0-0.1,0-0.1,0
			c-0.8,0.2-1.5,0.3-2.3,0.5c-0.5,0.1-1.1,0.1-1.6,0.2c-0.3,0-0.7,0-1,0.1c-0.4,0-0.8,0-1.2,0c-0.2,0-0.3,0-0.5,0
			c-0.6,0-1.1-0.1-1.6-0.2c-0.8-0.1-1.4-0.3-1.9-0.5c-0.3-0.2-0.5-0.3-0.7-0.5c-0.2-0.4-0.4-0.8-0.5-1.4c-0.5-2.5,0.3-6.8,3-9.2
			c0.5-0.4,1-0.8,1.6-1c0.5-0.2,1-0.4,1.5-0.5c0.5-0.1,1-0.1,1.5-0.1S296.1,211.5,296.5,211.6z"/>
		<path class="st11" d="M307.2,220.7c-0.3-0.7-0.7-1.4-1.1-2.1c-0.1-0.2-0.2-0.3-0.3-0.5c-0.3-0.6-0.7-1.1-1.1-1.7
			c-0.6-0.8-1.2-1.5-2-2.2c-0.8-0.7-1.6-1.4-2.5-1.9c0,0,0,0,0,0c0,0,0,0,0,0c-0.3-0.2-0.5-0.3-0.8-0.5c-0.2-0.1-0.5-0.2-0.7-0.3
			c-0.5-0.2-1.1-0.5-1.7-0.6c-0.5-0.1-1-0.2-1.6-0.3c-0.1,0-0.2,0-0.3,0c-0.1,0-0.2,0-0.3,0c-1.6-0.1-2.9,0-4.1,0.4h0
			c-0.3,0.1-0.6,0.2-0.9,0.4c-3,1.4-4.4,4.5-5.2,7.8c-0.3,1.1-0.4,2.2-0.6,3.3h0c0,0,0,0,0,0v0c0,0,0,0,0,0c0,0,0,0,0,0.1
			c0,0,0,0.1,0,0.2v0c0,0.2,0,0.4-0.1,0.7c0,0.2,0,0.4-0.1,0.7c0,0.1,0,0.1,0,0.2c-0.1,1.1,0.5,1.9,1.6,2.6c1.7,1,4.7,1.6,7.9,1.8
			c0.2,0,0.3,0,0.5,0c0.2,0,0.5,0,0.7,0h0c0.1,0,0.2,0,0.4,0c0.5,0,1.1,0,1.6,0c0.3,0,0.6,0,1,0c0.6,0,1.2,0,1.7,0h0.1
			c0.1,0,0.3,0,0.5,0c0.2,0,0.3,0,0.5,0c0.2,0,0.4,0,0.7,0c1.3-0.1,2.5-0.2,3.5-0.3c0.5-0.1,0.9-0.1,1.3-0.2c1-0.2,1.7-0.4,2.1-0.6
			C308.9,227.2,308.7,224.1,307.2,220.7z M296.5,211.6c0.6,0.1,1.3,0.4,1.9,0.6c0.2,0.1,0.4,0.2,0.6,0.3c1.1,0.6,2,1.5,2.8,2.5
			c0,0,0,0,0,0c0.2,0.3,0.4,0.6,0.6,0.9c0.5,0.8,0.9,1.7,1.1,2.6v0c0.1,0.6,0.2,1.3,0.2,1.9c0,0,0,0,0,0v0c-0.1,1.3-1,2.2-2.5,3
			c-0.1,0-0.1,0-0.2,0.1c0,0-0.1,0-0.1,0c-0.1,0.1-0.3,0.1-0.4,0.2c-0.5,0.2-1,0.4-1.5,0.5c0,0-0.1,0-0.1,0
			c-0.8,0.2-1.5,0.3-2.3,0.5c-0.5,0.1-1.1,0.1-1.6,0.2c-0.3,0-0.7,0-1,0.1c-0.4,0-0.8,0-1.2,0c-0.2,0-0.3,0-0.5,0
			c-0.6,0-1.1-0.1-1.6-0.2c-0.8-0.1-1.4-0.3-1.9-0.5c-0.3-0.2-0.5-0.3-0.7-0.5c-0.2-0.4-0.4-0.8-0.5-1.4c-0.5-2.5,0.3-6.8,3-9.2
			c0.5-0.4,1-0.8,1.6-1c0.5-0.2,1-0.4,1.5-0.5c0.5-0.1,1-0.1,1.5-0.1S296.1,211.5,296.5,211.6z"/>
		<path class="st10" d="M293.7,236.4l0.4-18.2c0,0,2.9-0.7,4.4,0l1.3,17.7L293.7,236.4z"/>
		<path class="st7" d="M297.5,229l13.7-23.8c0,0,1.1,0.2,1.5,0.7l-13.7,24.3L297.5,229z"/>
		<g>
			<path class="st7" d="M299.7,232.1l6.2-36.6c0,0,2.3-0.8,3.8,2l-6.1,35.3L299.7,232.1z"/>
			<path class="st11" d="M299.7,232.1l6.2-36.6c0,0,2.3-0.8,3.8,2l-6.1,35.3L299.7,232.1z"/>
		</g>
		<g>
			<path class="st10" d="M307,216.1c-0.1-0.1-0.3-0.3-0.4-0.4c-0.3-0.3-0.6-0.6-1-0.9c-0.9-0.7-1.8-1.4-2.7-1.9
				c-1.4-0.9-2.9-1.5-4.5-1.8c-0.2,0-0.3-0.1-0.5-0.1c0,0,0,0,0,0h0c-0.5-0.1-1.1-0.2-1.6-0.2c-0.3,0-0.6,0-1,0h-0.3
				c-0.2,0-0.4,0-0.6,0c-1.5,0-3.1,0.2-4.4,1.4c-1,0.9-2,2.3-2.6,4.7c-1.6,5.9-2.9,6-3.3,5.8c-0.1,0-0.1,0-0.1-0.1c0,0,0,0,0,0h0v0
				c0,0,0,0,0,0c0,0,0,0,0,0.1c0,0,0,0.1,0,0.2v0c0,0.2,0,0.4-0.1,0.7c0,0.2,0,0.4-0.1,0.7c0,0.1,0,0.1,0,0.2
				c-0.1,0.7-0.2,1.6-0.3,2.6c-0.9,9-2.7,28.6-1.1,31.5c1.6,3,5.1,5.8,9.7,7.5c0.9,0.3,1.8,0.6,2.7,0.8c0.5,0.1,1.1,0.3,1.6,0.3
				c0.9,0.2,1.8,0.3,2.8,0.4c0.8,0.1,1.5,0.1,2.3,0.1c0.9,0,1.8-0.1,2.7-0.1c0.9-0.1,1.9-0.2,2.8-0.4c0.5-0.1,1.1-0.2,1.6-0.4
				c0.8-0.2,1.6-0.4,2.4-0.7c0.1,0,0.3-0.1,0.4-0.1c1.8-0.6,3.4-1.3,4.8-2c2.4-1.1,4.2-2.3,5.2-2.9
				C323.4,259.8,319.7,228.8,307,216.1z M302.8,213.8c0.8,0.6,1.5,1.4,2.2,2.2c0.4,0.5,0.8,1.1,1.1,1.7c0,0.1,0.1,0.2,0.1,0.3
				c0.5,0.9,0.8,1.9,0.9,2.8c0,0.2,0,0.3,0.1,0.5c0.1,1.4-0.8,2.5-2.1,3.4c-0.1,0.1-0.2,0.1-0.3,0.1l0,0c-1,0.5-2.1,0.9-3.4,1.2
				c-0.2,0-0.3,0.1-0.5,0.1c-0.1,0-0.1,0-0.2,0c-0.5,0.1-1,0.1-1.4,0.2c-0.1,0-0.2,0-0.2,0c0,0,0,0-0.1,0c-0.9,0.1-1.7,0.1-2.5,0
				c-0.5,0-0.9-0.1-1.4-0.2c-0.1,0-0.2,0-0.2,0c-0.4-0.1-0.7-0.2-1.1-0.3c-0.3-0.1-0.6-0.3-0.8-0.5c-0.1-0.1-0.2-0.2-0.3-0.3
				c-0.2-0.2-0.3-0.4-0.5-0.7c-1.3-2.1-1.9-6.1-0.6-9.1v0c0.6-1.5,1.8-2.7,3.5-3.3c0.4-0.2,0.9-0.3,1.4-0.3h0c0.4,0,0.8,0,1.3,0
				c0.3,0,0.6,0.1,0.9,0.2c0.2,0,0.4,0.1,0.7,0.2c0.1,0,0.3,0.1,0.4,0.2c0,0,0,0,0,0C300.9,212.5,301.9,213.1,302.8,213.8z"/>
			<path class="st17" d="M307,216.1c-0.1-0.1-0.3-0.3-0.4-0.4c-0.3-0.3-0.6-0.6-1-0.9c-0.9-0.7-1.8-1.4-2.7-1.9
				c-1.4-0.9-2.9-1.5-4.5-1.8c-0.2,0-0.3-0.1-0.5-0.1c0,0,0,0,0,0h0c-0.5-0.1-1.1-0.2-1.6-0.2c-0.3,0-0.6,0-1,0h-0.3
				c-0.2,0-0.4,0-0.6,0c-1.5,0-3.1,0.2-4.4,1.4c-1,0.9-2,2.3-2.6,4.7c-1.6,5.9-2.9,6-3.3,5.8c-0.1,0-0.1,0-0.1-0.1c0,0,0,0,0,0h0v0
				c0,0,0,0,0,0c0,0,0,0,0,0.1c0,0,0,0.1,0,0.2v0c0,0.2,0,0.4-0.1,0.7c0,0.2,0,0.4-0.1,0.7c0,0.1,0,0.1,0,0.2
				c-0.1,0.7-0.2,1.6-0.3,2.6c-0.9,9-2.7,28.6-1.1,31.5c1.6,3,5.1,5.8,9.7,7.5c0.9,0.3,1.8,0.6,2.7,0.8c0.5,0.1,1.1,0.3,1.6,0.3
				c0.9,0.2,1.8,0.3,2.8,0.4c0.8,0.1,1.5,0.1,2.3,0.1c0.9,0,1.8-0.1,2.7-0.1c0.9-0.1,1.9-0.2,2.8-0.4c0.5-0.1,1.1-0.2,1.6-0.4
				c0.8-0.2,1.6-0.4,2.4-0.7c0.1,0,0.3-0.1,0.4-0.1c1.8-0.6,3.4-1.3,4.8-2c2.4-1.1,4.2-2.3,5.2-2.9
				C323.4,259.8,319.7,228.8,307,216.1z M302.8,213.8c0.8,0.6,1.5,1.4,2.2,2.2c0.4,0.5,0.8,1.1,1.1,1.7c0,0.1,0.1,0.2,0.1,0.3
				c0.5,0.9,0.8,1.9,0.9,2.8c0,0.2,0,0.3,0.1,0.5c0.1,1.4-0.8,2.5-2.1,3.4c-0.1,0.1-0.2,0.1-0.3,0.1l0,0c-1,0.5-2.1,0.9-3.4,1.2
				c-0.2,0-0.3,0.1-0.5,0.1c-0.1,0-0.1,0-0.2,0c-0.5,0.1-1,0.1-1.4,0.2c-0.1,0-0.2,0-0.2,0c0,0,0,0-0.1,0c-0.9,0.1-1.7,0.1-2.5,0
				c-0.5,0-0.9-0.1-1.4-0.2c-0.1,0-0.2,0-0.2,0c-0.4-0.1-0.7-0.2-1.1-0.3c-0.3-0.1-0.6-0.3-0.8-0.5c-0.1-0.1-0.2-0.2-0.3-0.3
				c-0.2-0.2-0.3-0.4-0.5-0.7c-1.3-2.1-1.9-6.1-0.6-9.1v0c0.6-1.5,1.8-2.7,3.5-3.3c0.4-0.2,0.9-0.3,1.4-0.3h0c0.4,0,0.8,0,1.3,0
				c0.3,0,0.6,0.1,0.9,0.2c0.2,0,0.4,0.1,0.7,0.2c0.1,0,0.3,0.1,0.4,0.2c0,0,0,0,0,0C300.9,212.5,301.9,213.1,302.8,213.8z"/>
		</g>
	</g>
	<path class="st12" d="M285.8,195.4l4.7,11.3c0,0-1.2,1.7-0.8,3.9c0.4,2.2,2.5,5.6,2.5,5.6l7.6-0.7c0,0-1.4-8.7-6.6-9.6l-3.2-10.4
		H285.8z"/>
	<g>
		<path class="st10" d="M274.3,149.8c5.9,2,9.6,29.2,9.6,29.2l9.4,24.9l-5.2,1c0,0-12.4-23.5-12.4-23.8c0-0.2-4.2-17.6-4.2-17.6
			s-0.5-5.7,0-8.9C272,151.5,274.3,149.8,274.3,149.8z"/>
		<path class="st11" d="M274.3,149.8c5.9,2,9.6,29.2,9.6,29.2l9.4,24.9l-5.2,1c0,0-12.4-23.5-12.4-23.8c0-0.2-4.2-17.6-4.2-17.6
			s-0.5-5.7,0-8.9C272,151.5,274.3,149.8,274.3,149.8z"/>
	</g>
	<path class="st7" d="M225.8,182.9c0,0,3.6-30.2,10.8-32.3l0.5,0.3c0,0-5.9,3.8-9.1,33.2L225.8,182.9z"/>
	<path class="st12" d="M216.3,164.9l-2-5.8c0,0,0.7-1.9,1-2.7c0.3-0.7-1.4-5.4-1.9-5.7c-0.6-0.4-4.8,2.3-5,4
		c-0.2,1.7,2.8,4.4,2.8,4.4l2.6,7L216.3,164.9z"/>
	<g>
		<path class="st10" d="M225.8,176.8c0-1.6-1.5-2.4-3-2.1c0,0,0,0,0,0c-1.7,0.2-6.9-13-6.9-13l-3.7,1.6c0,0,3.3,15.5,8.5,18.1
			c1.4,0.7,3.2,0,5.1-1.4V176.8z"/>
		<path class="st11" d="M225.8,176.8c0-1.5-1.6-2.7-3-2.1c0,0-0.1,0-0.1,0c-1.7,0.2-6.9-13-6.9-13l-3.7,1.6c0,0,3.3,15.5,8.5,18.1
			c1.4,0.7,3.2,0,5.1-1.4V176.8z"/>
	</g>
</g>
<path class="st18" d="M409.3,209.1c0,37.8-11,73.1-29.9,102.9c-3.3,5.2-6.9,10.3-10.7,15.1c-2.4,3.1-4.9,6.1-7.5,9
	c-0.3,0.3-0.6,0.6-0.9,1c-0.1,0.1-0.1,0.1-0.2,0.2c0,0,0,0,0,0.1c-1.9,2.1-3.8,4.1-5.8,6.2c-0.1,0.1-0.1,0.1-0.2,0.2
	c-6.3,6.5-13.1,12.4-20.3,17.9c-7.5,5.8-15.5,11-23.9,15.6c-4.9,2.7-9.9,5.2-15,7.5c-5.1,2.3-10.4,4.3-15.8,6.2
	c-5.6,1.9-11.4,3.6-17.3,5c-4,1-8.1,1.8-12.2,2.5c-5,0.8-10.1,1.5-15.3,2c-1.9,0.2-3.8,0.3-5.7,0.4c-2.5,0.1-4.9,0.2-7.4,0.3
	c-1.3,0-2.5,0-3.8,0c-2.8,0-5.6-0.1-8.4-0.2c-1.8-0.1-3.6-0.2-5.3-0.3c-1.9-0.1-3.9-0.3-5.8-0.5c-11.7-1.2-23-3.4-33.9-6.6
	c-6-1.7-11.8-3.7-17.6-6c-3.1-1.2-6.1-2.5-9.1-3.9c-3.4-1.6-6.8-3.2-10.1-5c-0.9-0.5-1.8-1-2.7-1.5c-2.3-1.3-4.6-2.6-6.9-4
	c-3.6-2.2-7-4.5-10.4-6.8c-2.9-2-5.7-4.1-8.4-6.3c-1.7-1.3-3.3-2.6-4.9-4c-5.6-4.7-10.9-9.7-15.9-15.1c-1.1-1.2-2.2-2.4-3.3-3.6
	c0,0,0,0-0.1-0.1c0-0.1-0.1-0.1-0.2-0.2c-0.3-0.3-0.6-0.6-0.9-1c-2.1-2.3-4.1-4.7-6-7.2c-1-1.2-1.9-2.4-2.9-3.7
	c-0.5-0.7-1.1-1.4-1.6-2.1c-0.5-0.6-0.9-1.2-1.3-1.8c-0.2-0.3-0.4-0.6-0.6-0.9c-2.1-3-4.2-6.1-6.2-9.2c-0.6-0.9-1.1-1.8-1.7-2.8
	c-0.8-1.4-1.6-2.7-2.4-4.1c0,0,0-0.1-0.1-0.1c-0.1-0.1-0.1-0.2-0.2-0.4c-0.4-0.6-0.7-1.2-1-1.9c-0.5-0.9-1-1.8-1.4-2.6
	c-0.5-1-1.1-2.1-1.6-3.1c-0.3-0.5-0.5-1.1-0.8-1.6c-0.3-0.6-0.6-1.2-0.9-1.8c-0.3-0.7-0.7-1.4-1-2.1c-1.7-3.7-3.3-7.4-4.8-11.2
	c-0.2-0.6-0.5-1.2-0.7-1.8c-0.2-0.6-0.5-1.2-0.7-1.9c-0.3-0.9-0.7-1.8-1-2.7c-0.8-2.1-1.5-4.3-2.2-6.5c-0.3-0.9-0.6-1.8-0.8-2.7
	c-0.3-1-0.6-2-0.9-3.1c-4.6-16.4-7-33.8-7-51.7c0-106.2,86-191.9,191.8-191.9C323.4,17.3,409.3,103,409.3,209.1z"/>
</svg>
