<svg width="261" height="67" viewBox="0 0 261 67" fill="none" xmlns="http://www.w3.org/2000/svg">
<path d="M14.8169 56.9241H12.0156V58.605H14.8169V56.9241Z" fill="#404151"/>
<path d="M9.7746 56.9241H6.97339V58.605H9.7746V56.9241Z" fill="#404151"/>
<path d="M4.73257 56.9241H1.9314V58.605H4.73257V56.9241Z" fill="#404151"/>
<path d="M29.9436 56.9241H27.1423V58.605H29.9436V56.9241Z" fill="#404151"/>
<path d="M24.9013 56.9241H22.1001V58.605H24.9013V56.9241Z" fill="#404151"/>
<path d="M19.8593 56.9241H17.0581V58.605H19.8593V56.9241Z" fill="#404151"/>
<path d="M45.07 56.9241H42.2688V58.605H45.07V56.9241Z" fill="#404151"/>
<path d="M40.0278 56.9241H37.2266V58.605H40.0278V56.9241Z" fill="#404151"/>
<path d="M34.9857 56.9241H32.1846V58.605H34.9857V56.9241Z" fill="#404151"/>
<path d="M60.1965 56.9241H57.3953V58.605H60.1965V56.9241Z" fill="#404151"/>
<path d="M55.1542 56.9241H52.353V58.605H55.1542V56.9241Z" fill="#404151"/>
<path d="M50.2241 56.9241H47.4229V58.605H50.2241V56.9241Z" fill="#404151"/>
<path d="M75.3229 56.9241H72.5217V58.605H75.3229V56.9241Z" fill="#404151"/>
<path d="M70.2807 56.9241H67.4795V58.605H70.2807V56.9241Z" fill="#404151"/>
<path d="M65.3505 56.9241H62.5493V58.605H65.3505V56.9241Z" fill="#404151"/>
<path d="M90.4496 56.9241H87.6484V58.605H90.4496V56.9241Z" fill="#404151"/>
<path d="M85.5195 56.9241H82.7183V58.605H85.5195V56.9241Z" fill="#404151"/>
<path d="M80.4774 56.9241H77.6763V58.605H80.4774V56.9241Z" fill="#404151"/>
<path d="M105.688 56.9241H102.887V58.605H105.688V56.9241Z" fill="#404151"/>
<path d="M100.646 56.9241H97.8447V58.605H100.646V56.9241Z" fill="#404151"/>
<path d="M95.604 56.9241H92.8027V58.605H95.604V56.9241Z" fill="#404151"/>
<path d="M120.815 56.9241H118.013V58.605H120.815V56.9241Z" fill="#404151"/>
<path d="M115.773 56.9241H112.971V58.605H115.773V56.9241Z" fill="#404151"/>
<path d="M110.73 56.9241H107.929V58.605H110.73V56.9241Z" fill="#404151"/>
<path d="M135.941 56.9241H133.14V58.605H135.941V56.9241Z" fill="#404151"/>
<path d="M130.899 56.9241H128.098V58.605H130.899V56.9241Z" fill="#404151"/>
<path d="M125.857 56.9241H123.056V58.605H125.857V56.9241Z" fill="#404151"/>
<path d="M146.586 34.1709H144.905V37.1973H146.586V34.1709Z" fill="#404151"/>
<path d="M146.586 39.5508H144.905V42.5767H146.586V39.5508Z" fill="#404151"/>
<path d="M146.586 44.9309H144.905V47.9573H146.586V44.9309Z" fill="#404151"/>
<path d="M146.586 18.1436H144.905V21.1697H146.586V18.1436Z" fill="#404151"/>
<path d="M146.586 23.4111H144.905V26.437H146.586V23.4111Z" fill="#404151"/>
<path d="M146.586 28.7913H144.905V31.8174H146.586V28.7913Z" fill="#404151"/>
<path d="M167.875 7.94385H165.074V9.62524H167.875V7.94385Z" fill="#404151"/>
<path d="M162.833 7.94385H160.032V9.62524H162.833V7.94385Z" fill="#404151"/>
<path d="M157.791 7.94385H154.99V9.62524H157.791V7.94385Z" fill="#404151"/>
<path d="M183.114 7.94385H180.312V9.62524H183.114V7.94385Z" fill="#404151"/>
<path d="M178.071 7.94385H175.27V9.62524H178.071V7.94385Z" fill="#404151"/>
<path d="M173.029 7.94385H170.228V9.62524H173.029V7.94385Z" fill="#404151"/>
<path d="M198.24 7.94385H195.439V9.62524H198.24V7.94385Z" fill="#404151"/>
<path d="M193.198 7.94385H190.397V9.62524H193.198V7.94385Z" fill="#404151"/>
<path d="M188.156 7.94385H185.354V9.62524H188.156V7.94385Z" fill="#404151"/>
<path d="M213.479 7.94385H210.677V9.62524H213.479V7.94385Z" fill="#404151"/>
<path d="M208.436 7.94385H205.635V9.62524H208.436V7.94385Z" fill="#404151"/>
<path d="M203.394 7.94385H200.593V9.62524H203.394V7.94385Z" fill="#404151"/>
<path d="M228.717 7.94385H225.916V9.62524H228.717V7.94385Z" fill="#404151"/>
<path d="M223.563 7.94385H220.762V9.62524H223.563V7.94385Z" fill="#404151"/>
<path d="M218.521 7.94385H215.72V9.62524H218.521V7.94385Z" fill="#404151"/>
<path d="M243.844 7.94385H241.043V9.62524H243.844V7.94385Z" fill="#404151"/>
<path d="M238.802 7.94385H236V9.62524H238.802V7.94385Z" fill="#404151"/>
<path d="M233.76 7.94385H230.958V9.62524H233.76V7.94385Z" fill="#404151"/>
<path d="M259.082 7.94385H256.281V9.62524H259.082V7.94385Z" fill="#404151"/>
<path d="M254.04 7.94385H251.239V9.62524H254.04V7.94385Z" fill="#404151"/>
<path d="M248.998 7.94385H246.197V9.62524H248.998V7.94385Z" fill="#404151"/>
<path d="M140.983 56.5874H138.182V58.2686H140.983V56.5874Z" fill="#404151"/>
<path fill-rule="evenodd" clip-rule="evenodd" d="M146.026 58.269H143.224V56.5875H144.345V55.4666H146.026V58.269Z" fill="#404151"/>
<path d="M146.026 50.4229H144.345V53.2249H146.026V50.4229Z" fill="#404151"/>
<path d="M146.362 12.9875H144.681V15.7896H146.362V12.9875Z" fill="#404151"/>
<path fill-rule="evenodd" clip-rule="evenodd" d="M144.681 7.94385V10.7463H146.474V9.62534H147.482V7.94385H144.681Z" fill="#404151"/>
<path d="M152.525 7.9436H149.723V9.62524H152.525V7.9436Z" fill="#404151"/>
</svg>
