<svg width="19" height="154" viewBox="0 0 19 154" fill="none" xmlns="http://www.w3.org/2000/svg">
<path d="M10.6761 139.305H8.91211V142.131H10.6761V139.305Z" fill="#404151"/>
<path d="M10.6761 144.368H8.91211V147.194H10.6761V144.368Z" fill="#404151"/>
<path d="M10.6761 149.431H8.91211V152.258H10.6761V149.431Z" fill="#404151"/>
<path d="M10.6761 123.997H8.91211V126.823H10.6761V123.997Z" fill="#404151"/>
<path d="M10.6761 129.06H8.91211V131.886H10.6761V129.06Z" fill="#404151"/>
<path d="M10.6761 134.124H8.91211V136.95H10.6761V134.124Z" fill="#404151"/>
<path d="M10.6761 108.689H8.91211V111.515H10.6761V108.689Z" fill="#404151"/>
<path d="M10.6761 113.753H8.91211V116.579H10.6761V113.753Z" fill="#404151"/>
<path d="M10.6761 118.816H8.91211V121.642H10.6761V118.816Z" fill="#404151"/>
<path d="M10.6761 93.3813H8.91211V96.207H10.6761V93.3813Z" fill="#404151"/>
<path d="M10.6761 98.4448H8.91211V101.271H10.6761V98.4448Z" fill="#404151"/>
<path d="M10.6761 103.508H8.91211V106.334H10.6761V103.508Z" fill="#404151"/>
<path d="M10.6761 78.0735H8.91211V80.8997H10.6761V78.0735Z" fill="#404151"/>
<path d="M10.6761 83.1365H8.91211V85.9626H10.6761V83.1365Z" fill="#404151"/>
<path d="M10.6761 88.2002H8.91211V91.0266H10.6761V88.2002Z" fill="#404151"/>
<path d="M10.6761 62.7656H8.91211V65.5916H10.6761V62.7656Z" fill="#404151"/>
<path d="M10.6761 67.8289H8.91211V70.655H10.6761V67.8289Z" fill="#404151"/>
<path d="M10.6761 72.8921H8.91211V75.7188H10.6761V72.8921Z" fill="#404151"/>
<path d="M10.6761 47.4575H8.91211V50.2842H10.6761V47.4575Z" fill="#404151"/>
<path d="M10.6761 52.521H8.91211V55.3469H10.6761V52.521Z" fill="#404151"/>
<path d="M10.6761 57.5845H8.91211V60.4106H10.6761V57.5845Z" fill="#404151"/>
<path d="M10.6761 32.1499H8.91211V34.9761H10.6761V32.1499Z" fill="#404151"/>
<path d="M10.6761 37.2131H8.91211V40.0396H10.6761V37.2131Z" fill="#404151"/>
<path d="M10.6761 42.2769H8.91211V45.1023H10.6761V42.2769Z" fill="#404151"/>
<path d="M10.6761 16.8418H8.91211V19.6682H10.6761V16.8418Z" fill="#404151"/>
<path d="M10.6761 21.9055H8.91211V24.7314H10.6761V21.9055Z" fill="#404151"/>
<path d="M10.6761 26.969H8.91211V29.7944H10.6761V26.969Z" fill="#404151"/>
<path d="M10.6761 1.53394H8.91211V4.35962H10.6761V1.53394Z" fill="#404151"/>
<path d="M10.6761 6.59741H8.91211V9.42334H10.6761V6.59741Z" fill="#404151"/>
<path d="M10.6761 11.6609H8.91211V14.4868H10.6761V11.6609Z" fill="#404151"/>
</svg>
